<?xml version="1.0" encoding="UTF-8" standalone="no"?>
<!DOCTYPE svg PUBLIC "-//W3C//DTD SVG 1.1//EN"
 "http://www.w3.org/Graphics/SVG/1.1/DTD/svg11.dtd">
<!-- Generated by graphviz version 2.43.0 (0)
 -->
<!-- Title: test Pages: 1 -->
<svg width="3488pt" height="656pt"
 viewBox="0.00 0.00 3488.00 656.00" xmlns="http://www.w3.org/2000/svg" xmlns:xlink="http://www.w3.org/1999/xlink">
<g id="graph0" class="graph" transform="scale(1 1) rotate(0) translate(4 652)">
<title>test</title>
<polygon fill="white" stroke="transparent" points="-4,4 -4,-652 3484,-652 3484,4 -4,4"/>
<!-- node1 -->
<g id="node1" class="node">
<title>node1</title>
<polygon fill="white" stroke="black" points="706,-466.5 706,-587.5 1022,-587.5 1022,-466.5 706,-466.5"/>
<text text-anchor="middle" x="864" y="-572.3" font-family="Times,serif" font-size="14.00">aggregates</text>
<polyline fill="none" stroke="black" points="706,-564.5 1022,-564.5 "/>
<text text-anchor="start" x="714" y="-549.3" font-family="Times,serif" font-size="14.00">&#45; aggregate_cid text [U]</text>
<text text-anchor="start" x="714" y="-534.3" font-family="Times,serif" font-size="14.00">&#45; piece_cid text [U]</text>
<text text-anchor="start" x="714" y="-519.3" font-family="Times,serif" font-size="14.00">&#45; sha256hex text</text>
<text text-anchor="start" x="714" y="-504.3" font-family="Times,serif" font-size="14.00">&#45; export_size bigint</text>
<text text-anchor="start" x="714" y="-489.3" font-family="Times,serif" font-size="14.00">&#45; metadata jsonb [N]</text>
<text text-anchor="start" x="714" y="-474.3" font-family="Times,serif" font-size="14.00">&#45; entry_created timestamp with time zone</text>
</g>
<!-- node9 -->
<g id="node9" class="node">
<title>node9</title>
<polygon fill="white" stroke="black" points="653.5,-211 653.5,-287 864.5,-287 864.5,-211 653.5,-211"/>
<text text-anchor="middle" x="759" y="-271.8" font-family="Times,serif" font-size="14.00">aggregate_entries</text>
<polyline fill="none" stroke="black" points="653.5,-264 864.5,-264 "/>
<text text-anchor="start" x="661.5" y="-248.8" font-family="Times,serif" font-size="14.00">&#45; aggregate_cid text [FK,U]</text>
<text text-anchor="start" x="661.5" y="-233.8" font-family="Times,serif" font-size="14.00">&#45; cid_v1 text [FK,U]</text>
<text text-anchor="start" x="661.5" y="-218.8" font-family="Times,serif" font-size="14.00">&#45; datamodel_selector text</text>
</g>
<!-- node1&#45;&gt;node9 -->
<g id="edge1" class="edge">
<title>node1&#45;&gt;node9</title>
<path fill="none" stroke="black" d="M841.35,-466.45C821.98,-415.56 794.51,-343.35 776.72,-296.59"/>
<polygon fill="black" stroke="black" points="779.91,-295.11 773.08,-287.01 773.37,-297.6 779.91,-295.11"/>
</g>
<!-- node11 -->
<g id="node11" class="node">
<title>node11</title>
<polygon fill="white" stroke="black" points="929,-128.5 929,-369.5 1297,-369.5 1297,-128.5 929,-128.5"/>
<text text-anchor="middle" x="1113" y="-354.3" font-family="Times,serif" font-size="14.00">deals</text>
<polyline fill="none" stroke="black" points="929,-346.5 1297,-346.5 "/>
<text text-anchor="start" x="937" y="-331.3" font-family="Times,serif" font-size="14.00">&#45; deal_id bigint [U]</text>
<text text-anchor="start" x="937" y="-316.3" font-family="Times,serif" font-size="14.00">&#45; aggregate_cid text [FK]</text>
<text text-anchor="start" x="937" y="-301.3" font-family="Times,serif" font-size="14.00">&#45; client text [FK]</text>
<text text-anchor="start" x="937" y="-286.3" font-family="Times,serif" font-size="14.00">&#45; provider text [FK]</text>
<text text-anchor="start" x="937" y="-271.3" font-family="Times,serif" font-size="14.00">&#45; status text</text>
<text text-anchor="start" x="937" y="-256.3" font-family="Times,serif" font-size="14.00">&#45; start_epoch integer</text>
<text text-anchor="start" x="937" y="-241.3" font-family="Times,serif" font-size="14.00">&#45; end_epoch integer</text>
<text text-anchor="start" x="937" y="-226.3" font-family="Times,serif" font-size="14.00">&#45; entry_created timestamp with time zone</text>
<text text-anchor="start" x="937" y="-211.3" font-family="Times,serif" font-size="14.00">&#45; entry_last_updated timestamp with time zone</text>
<text text-anchor="start" x="937" y="-196.3" font-family="Times,serif" font-size="14.00">&#45; status_meta text [N]</text>
<text text-anchor="start" x="937" y="-181.3" font-family="Times,serif" font-size="14.00">&#45; start_time timestamp with time zone</text>
<text text-anchor="start" x="937" y="-166.3" font-family="Times,serif" font-size="14.00">&#45; sector_start_epoch integer [N]</text>
<text text-anchor="start" x="937" y="-151.3" font-family="Times,serif" font-size="14.00">&#45; sector_start_time timestamp with time zone [N]</text>
<text text-anchor="start" x="937" y="-136.3" font-family="Times,serif" font-size="14.00">&#45; end_time timestamp with time zone</text>
</g>
<!-- node1&#45;&gt;node11 -->
<g id="edge2" class="edge">
<title>node1&#45;&gt;node11</title>
<path fill="none" stroke="black" d="M917.72,-466.45C941.41,-440.19 970.23,-408.25 998.36,-377.07"/>
<polygon fill="black" stroke="black" points="1001.01,-379.35 1005.11,-369.58 995.82,-374.67 1001.01,-379.35"/>
</g>
<!-- node2 -->
<g id="node2" class="node">
<title>node2</title>
<polygon fill="white" stroke="black" points="1204.5,-489 1204.5,-565 1369.5,-565 1369.5,-489 1204.5,-489"/>
<text text-anchor="middle" x="1287" y="-549.8" font-family="Times,serif" font-size="14.00">clients</text>
<polyline fill="none" stroke="black" points="1204.5,-542 1369.5,-542 "/>
<text text-anchor="start" x="1212.5" y="-526.8" font-family="Times,serif" font-size="14.00">&#45; client text [U]</text>
<text text-anchor="start" x="1212.5" y="-511.8" font-family="Times,serif" font-size="14.00">&#45; filp_available bigint</text>
<text text-anchor="start" x="1212.5" y="-496.8" font-family="Times,serif" font-size="14.00">&#45; details jsonb [N]</text>
</g>
<!-- node2&#45;&gt;node11 -->
<g id="edge3" class="edge">
<title>node2&#45;&gt;node11</title>
<path fill="none" stroke="black" d="M1263.53,-488.78C1245.43,-460.07 1219.27,-418.56 1193.81,-378.18"/>
<polygon fill="black" stroke="black" points="1196.69,-376.18 1188.39,-369.59 1190.76,-379.91 1196.69,-376.18"/>
</g>
<!-- node3 -->
<g id="node3" class="node">
<title>node3</title>
<polygon fill="white" stroke="black" points="334.5,-466.5 334.5,-587.5 687.5,-587.5 687.5,-466.5 334.5,-466.5"/>
<text text-anchor="middle" x="511" y="-572.3" font-family="Times,serif" font-size="14.00">dags</text>
<polyline fill="none" stroke="black" points="334.5,-564.5 687.5,-564.5 "/>
<text text-anchor="start" x="342.5" y="-549.3" font-family="Times,serif" font-size="14.00">&#45; cid_v1 text [U]</text>
<text text-anchor="start" x="342.5" y="-534.3" font-family="Times,serif" font-size="14.00">&#45; size_actual bigint [N]</text>
<text text-anchor="start" x="342.5" y="-519.3" font-family="Times,serif" font-size="14.00">&#45; entry_created timestamp with time zone</text>
<text text-anchor="start" x="342.5" y="-504.3" font-family="Times,serif" font-size="14.00">&#45; entry_last_updated timestamp with time zone</text>
<text text-anchor="start" x="342.5" y="-489.3" font-family="Times,serif" font-size="14.00">&#45; entry_analyzed timestamp with time zone [N]</text>
<text text-anchor="start" x="342.5" y="-474.3" font-family="Times,serif" font-size="14.00">&#45; meta jsonb [N]</text>
</g>
<!-- node8 -->
<g id="node8" class="node">
<title>node8</title>
<polygon fill="white" stroke="black" points="433.5,-218.5 433.5,-279.5 588.5,-279.5 588.5,-218.5 433.5,-218.5"/>
<text text-anchor="middle" x="511" y="-264.3" font-family="Times,serif" font-size="14.00">refs</text>
<polyline fill="none" stroke="black" points="433.5,-256.5 588.5,-256.5 "/>
<text text-anchor="start" x="441.5" y="-241.3" font-family="Times,serif" font-size="14.00">&#45; cid_v1 text [FK,U]</text>
<text text-anchor="start" x="441.5" y="-226.3" font-family="Times,serif" font-size="14.00">&#45; ref_cid text [U]</text>
</g>
<!-- node3&#45;&gt;node8 -->
<g id="edge6" class="edge">
<title>node3&#45;&gt;node8</title>
<path fill="none" stroke="black" d="M511,-466.45C511,-413.08 511,-336.28 511,-289.95"/>
<polygon fill="black" stroke="black" points="514.5,-289.71 511,-279.71 507.5,-289.71 514.5,-289.71"/>
</g>
<!-- node3&#45;&gt;node9 -->
<g id="edge4" class="edge">
<title>node3&#45;&gt;node9</title>
<path fill="none" stroke="black" d="M564.51,-466.45C610.91,-414.81 677.03,-341.23 718.97,-294.55"/>
<polygon fill="black" stroke="black" points="721.66,-296.79 725.74,-287.01 716.46,-292.11 721.66,-296.79"/>
</g>
<!-- node10 -->
<g id="node10" class="node">
<title>node10</title>
<polygon fill="white" stroke="black" points="22.5,-173.5 22.5,-324.5 375.5,-324.5 375.5,-173.5 22.5,-173.5"/>
<text text-anchor="middle" x="199" y="-309.3" font-family="Times,serif" font-size="14.00">dag_sources</text>
<polyline fill="none" stroke="black" points="22.5,-301.5 375.5,-301.5 "/>
<text text-anchor="start" x="30.5" y="-286.3" font-family="Times,serif" font-size="14.00">&#45; srcid bigint [FK,U]</text>
<text text-anchor="start" x="30.5" y="-271.3" font-family="Times,serif" font-size="14.00">&#45; cid_v1 text [FK]</text>
<text text-anchor="start" x="30.5" y="-256.3" font-family="Times,serif" font-size="14.00">&#45; source_key text [U]</text>
<text text-anchor="start" x="30.5" y="-241.3" font-family="Times,serif" font-size="14.00">&#45; entry_created timestamp with time zone</text>
<text text-anchor="start" x="30.5" y="-226.3" font-family="Times,serif" font-size="14.00">&#45; entry_removed timestamp with time zone [N]</text>
<text text-anchor="start" x="30.5" y="-211.3" font-family="Times,serif" font-size="14.00">&#45; details jsonb [N]</text>
<text text-anchor="start" x="30.5" y="-196.3" font-family="Times,serif" font-size="14.00">&#45; entry_last_updated timestamp with time zone</text>
<text text-anchor="start" x="30.5" y="-181.3" font-family="Times,serif" font-size="14.00">&#45; size_claimed bigint [N]</text>
</g>
<!-- node3&#45;&gt;node10 -->
<g id="edge5" class="edge">
<title>node3&#45;&gt;node10</title>
<path fill="none" stroke="black" d="M443.68,-466.45C399.13,-427.04 340.13,-374.85 291.23,-331.59"/>
<polygon fill="black" stroke="black" points="293.28,-328.73 283.47,-324.73 288.64,-333.97 293.28,-328.73"/>
</g>
<!-- node4 -->
<g id="node4" class="node">
<title>node4</title>
<polygon fill="white" stroke="black" points="1388,-466.5 1388,-587.5 1690,-587.5 1690,-466.5 1388,-466.5"/>
<text text-anchor="middle" x="1539" y="-572.3" font-family="Times,serif" font-size="14.00">metrics</text>
<polyline fill="none" stroke="black" points="1388,-564.5 1690,-564.5 "/>
<text text-anchor="start" x="1396" y="-549.3" font-family="Times,serif" font-size="14.00">&#45; name text [U]</text>
<text text-anchor="start" x="1396" y="-534.3" font-family="Times,serif" font-size="14.00">&#45; dimensions text[] [U]</text>
<text text-anchor="start" x="1396" y="-519.3" font-family="Times,serif" font-size="14.00">&#45; description text</text>
<text text-anchor="start" x="1396" y="-504.3" font-family="Times,serif" font-size="14.00">&#45; value bigint [N]</text>
<text text-anchor="start" x="1396" y="-489.3" font-family="Times,serif" font-size="14.00">&#45; collected_at timestamp with time zone</text>
<text text-anchor="start" x="1396" y="-474.3" font-family="Times,serif" font-size="14.00">&#45; collection_took_seconds numeric</text>
</g>
<!-- node5 -->
<g id="node5" class="node">
<title>node5</title>
<polygon fill="white" stroke="black" points="1708,-481.5 1708,-572.5 2010,-572.5 2010,-481.5 1708,-481.5"/>
<text text-anchor="middle" x="1859" y="-557.3" font-family="Times,serif" font-size="14.00">metrics_log</text>
<polyline fill="none" stroke="black" points="1708,-549.5 2010,-549.5 "/>
<text text-anchor="start" x="1716" y="-534.3" font-family="Times,serif" font-size="14.00">&#45; name text</text>
<text text-anchor="start" x="1716" y="-519.3" font-family="Times,serif" font-size="14.00">&#45; dimensions text[]</text>
<text text-anchor="start" x="1716" y="-504.3" font-family="Times,serif" font-size="14.00">&#45; value bigint [N]</text>
<text text-anchor="start" x="1716" y="-489.3" font-family="Times,serif" font-size="14.00">&#45; collected_at timestamp with time zone</text>
</g>
<!-- node6 -->
<g id="node6" class="node">
<title>node6</title>
<polygon fill="white" stroke="black" points="1040,-496.5 1040,-557.5 1186,-557.5 1186,-496.5 1040,-496.5"/>
<text text-anchor="middle" x="1113" y="-542.3" font-family="Times,serif" font-size="14.00">providers</text>
<polyline fill="none" stroke="black" points="1040,-534.5 1186,-534.5 "/>
<text text-anchor="start" x="1048" y="-519.3" font-family="Times,serif" font-size="14.00">&#45; provider text [U]</text>
<text text-anchor="start" x="1048" y="-504.3" font-family="Times,serif" font-size="14.00">&#45; details jsonb [N]</text>
</g>
<!-- node6&#45;&gt;node11 -->
<g id="edge8" class="edge">
<title>node6&#45;&gt;node11</title>
<path fill="none" stroke="black" d="M1113,-496.46C1113,-468.14 1113,-423.36 1113,-379.7"/>
<polygon fill="black" stroke="black" points="1116.5,-379.52 1113,-369.52 1109.5,-379.52 1116.5,-379.52"/>
</g>
<!-- node7 -->
<g id="node7" class="node">
<title>node7</title>
<polygon fill="white" stroke="black" points="0,-466.5 0,-587.5 316,-587.5 316,-466.5 0,-466.5"/>
<text text-anchor="middle" x="158" y="-572.3" font-family="Times,serif" font-size="14.00">sources</text>
<polyline fill="none" stroke="black" points="0,-564.5 316,-564.5 "/>
<text text-anchor="start" x="8" y="-549.3" font-family="Times,serif" font-size="14.00">&#45; srcid bigint [U]</text>
<text text-anchor="start" x="8" y="-534.3" font-family="Times,serif" font-size="14.00">&#45; project integer [U]</text>
<text text-anchor="start" x="8" y="-519.3" font-family="Times,serif" font-size="14.00">&#45; source_label text [U]</text>
<text text-anchor="start" x="8" y="-504.3" font-family="Times,serif" font-size="14.00">&#45; details jsonb [N]</text>
<text text-anchor="start" x="8" y="-489.3" font-family="Times,serif" font-size="14.00">&#45; entry_created timestamp with time zone</text>
<text text-anchor="start" x="8" y="-474.3" font-family="Times,serif" font-size="14.00">&#45; weight integer [N]</text>
</g>
<!-- node7&#45;&gt;node10 -->
<g id="edge9" class="edge">
<title>node7&#45;&gt;node10</title>
<path fill="none" stroke="black" d="M166.85,-466.45C172.56,-428.01 180.07,-377.42 186.4,-334.81"/>
<polygon fill="black" stroke="black" points="189.89,-335.13 187.9,-324.73 182.97,-334.1 189.89,-335.13"/>
</g>
<!-- node12 -->
<g id="node12" class="node">
<title>node12</title>
<polygon fill="white" stroke="black" points="955,-0.5 955,-91.5 1271,-91.5 1271,-0.5 955,-0.5"/>
<text text-anchor="middle" x="1113" y="-76.3" font-family="Times,serif" font-size="14.00">deal_events</text>
<polyline fill="none" stroke="black" points="955,-68.5 1271,-68.5 "/>
<text text-anchor="start" x="963" y="-53.3" font-family="Times,serif" font-size="14.00">&#45; entry_id bigint [U]</text>
<text text-anchor="start" x="963" y="-38.3" font-family="Times,serif" font-size="14.00">&#45; deal_id bigint [FK]</text>
<text text-anchor="start" x="963" y="-23.3" font-family="Times,serif" font-size="14.00">&#45; status text</text>
<text text-anchor="start" x="963" y="-8.3" font-family="Times,serif" font-size="14.00">&#45; entry_created timestamp with time zone</text>
</g>
<!-- node11&#45;&gt;node12 -->
<g id="edge7" class="edge">
<title>node11&#45;&gt;node12</title>
<path fill="none" stroke="black" d="M1113,-128.46C1113,-119.23 1113,-110.23 1113,-101.77"/>
<polygon fill="black" stroke="black" points="1116.5,-101.75 1113,-91.75 1109.5,-101.75 1116.5,-101.75"/>
</g>
<!-- node13 -->
<g id="node13" class="node">
<title>node13</title>
<polygon fill="white" stroke="black" points="2028.5,-451.5 2028.5,-602.5 2191.5,-602.5 2191.5,-451.5 2028.5,-451.5"/>
<text text-anchor="middle" x="2110" y="-587.3" font-family="Times,serif" font-size="14.00">aggregate_summary</text>
<polyline fill="none" stroke="black" points="2028.5,-579.5 2191.5,-579.5 "/>
<text text-anchor="start" x="2036.5" y="-564.3" font-family="Times,serif" font-size="14.00">&#45; aggregate_cid</text>
<text text-anchor="start" x="2036.5" y="-549.3" font-family="Times,serif" font-size="14.00">&#45; piece_cid</text>
<text text-anchor="start" x="2036.5" y="-534.3" font-family="Times,serif" font-size="14.00">&#45; car_size</text>
<text text-anchor="start" x="2036.5" y="-519.3" font-family="Times,serif" font-size="14.00">&#45; aggregated_at</text>
<text text-anchor="start" x="2036.5" y="-504.3" font-family="Times,serif" font-size="14.00">&#45; web2_source</text>
<text text-anchor="start" x="2036.5" y="-489.3" font-family="Times,serif" font-size="14.00">&#45; tentative_replicas</text>
<text text-anchor="start" x="2036.5" y="-474.3" font-family="Times,serif" font-size="14.00">&#45; dag_counts</text>
<text text-anchor="start" x="2036.5" y="-459.3" font-family="Times,serif" font-size="14.00">&#45; replica_counts</text>
</g>
<!-- node14 -->
<g id="node14" class="node">
<title>node14</title>
<polygon fill="white" stroke="black" points="2210,-421.5 2210,-632.5 2352,-632.5 2352,-421.5 2210,-421.5"/>
<text text-anchor="middle" x="2281" y="-617.3" font-family="Times,serif" font-size="14.00">dags_missing_list</text>
<polyline fill="none" stroke="black" points="2210,-609.5 2352,-609.5 "/>
<text text-anchor="start" x="2218" y="-594.3" font-family="Times,serif" font-size="14.00">&#45; cid_v1</text>
<text text-anchor="start" x="2218" y="-579.3" font-family="Times,serif" font-size="14.00">&#45; source_key</text>
<text text-anchor="start" x="2218" y="-564.3" font-family="Times,serif" font-size="14.00">&#45; srcid</text>
<text text-anchor="start" x="2218" y="-549.3" font-family="Times,serif" font-size="14.00">&#45; entry_created</text>
<text text-anchor="start" x="2218" y="-534.3" font-family="Times,serif" font-size="14.00">&#45; entry_removed</text>
<text text-anchor="start" x="2218" y="-519.3" font-family="Times,serif" font-size="14.00">&#45; is_tombstone</text>
<text text-anchor="start" x="2218" y="-504.3" font-family="Times,serif" font-size="14.00">&#45; is_pinned</text>
<text text-anchor="start" x="2218" y="-489.3" font-family="Times,serif" font-size="14.00">&#45; via_psa</text>
<text text-anchor="start" x="2218" y="-474.3" font-family="Times,serif" font-size="14.00">&#45; size_claimed</text>
<text text-anchor="start" x="2218" y="-459.3" font-family="Times,serif" font-size="14.00">&#45; details</text>
<text text-anchor="start" x="2218" y="-444.3" font-family="Times,serif" font-size="14.00">&#45; project</text>
<text text-anchor="start" x="2218" y="-429.3" font-family="Times,serif" font-size="14.00">&#45; weight</text>
</g>
<!-- node15 -->
<g id="node15" class="node">
<title>node15</title>
<polygon fill="white" stroke="black" points="2370,-406.5 2370,-647.5 2556,-647.5 2556,-406.5 2370,-406.5"/>
<text text-anchor="middle" x="2463" y="-632.3" font-family="Times,serif" font-size="14.00">dags_missing_summary</text>
<polyline fill="none" stroke="black" points="2370,-624.5 2556,-624.5 "/>
<text text-anchor="start" x="2378" y="-609.3" font-family="Times,serif" font-size="14.00">&#45; project</text>
<text text-anchor="start" x="2378" y="-594.3" font-family="Times,serif" font-size="14.00">&#45; srcid</text>
<text text-anchor="start" x="2378" y="-579.3" font-family="Times,serif" font-size="14.00">&#45; source_email</text>
<text text-anchor="start" x="2378" y="-564.3" font-family="Times,serif" font-size="14.00">&#45; weight</text>
<text text-anchor="start" x="2378" y="-549.3" font-family="Times,serif" font-size="14.00">&#45; oldest_missing</text>
<text text-anchor="start" x="2378" y="-534.3" font-family="Times,serif" font-size="14.00">&#45; newest_missing</text>
<text text-anchor="start" x="2378" y="-519.3" font-family="Times,serif" font-size="14.00">&#45; cnt</text>
<text text-anchor="start" x="2378" y="-504.3" font-family="Times,serif" font-size="14.00">&#45; size_claimed</text>
<text text-anchor="start" x="2378" y="-489.3" font-family="Times,serif" font-size="14.00">&#45; pct_not_pinned</text>
<text text-anchor="start" x="2378" y="-474.3" font-family="Times,serif" font-size="14.00">&#45; pct_via_psa</text>
<text text-anchor="start" x="2378" y="-459.3" font-family="Times,serif" font-size="14.00">&#45; cnt_pinned</text>
<text text-anchor="start" x="2378" y="-444.3" font-family="Times,serif" font-size="14.00">&#45; size_pinned</text>
<text text-anchor="start" x="2378" y="-429.3" font-family="Times,serif" font-size="14.00">&#45; oldest_pinned</text>
<text text-anchor="start" x="2378" y="-414.3" font-family="Times,serif" font-size="14.00">&#45; bytes_pinned</text>
</g>
<!-- node16 -->
<g id="node16" class="node">
<title>node16</title>
<polygon fill="white" stroke="black" points="2574,-406.5 2574,-647.5 2774,-647.5 2774,-406.5 2574,-406.5"/>
<text text-anchor="middle" x="2674" y="-632.3" font-family="Times,serif" font-size="14.00">source_all_time_summary</text>
<polyline fill="none" stroke="black" points="2574,-624.5 2774,-624.5 "/>
<text text-anchor="start" x="2582" y="-609.3" font-family="Times,serif" font-size="14.00">&#45; project</text>
<text text-anchor="start" x="2582" y="-594.3" font-family="Times,serif" font-size="14.00">&#45; srcid</text>
<text text-anchor="start" x="2582" y="-579.3" font-family="Times,serif" font-size="14.00">&#45; source_nick</text>
<text text-anchor="start" x="2582" y="-564.3" font-family="Times,serif" font-size="14.00">&#45; source_name</text>
<text text-anchor="start" x="2582" y="-549.3" font-family="Times,serif" font-size="14.00">&#45; source_email</text>
<text text-anchor="start" x="2582" y="-534.3" font-family="Times,serif" font-size="14.00">&#45; source_ghkey</text>
<text text-anchor="start" x="2582" y="-519.3" font-family="Times,serif" font-size="14.00">&#45; weight</text>
<text text-anchor="start" x="2582" y="-504.3" font-family="Times,serif" font-size="14.00">&#45; count_total</text>
<text text-anchor="start" x="2582" y="-489.3" font-family="Times,serif" font-size="14.00">&#45; size_total</text>
<text text-anchor="start" x="2582" y="-474.3" font-family="Times,serif" font-size="14.00">&#45; gib_total</text>
<text text-anchor="start" x="2582" y="-459.3" font-family="Times,serif" font-size="14.00">&#45; most_recent_upload</text>
<text text-anchor="start" x="2582" y="-444.3" font-family="Times,serif" font-size="14.00">&#45; dags_missing</text>
<text text-anchor="start" x="2582" y="-429.3" font-family="Times,serif" font-size="14.00">&#45; oldest_missing</text>
<text text-anchor="start" x="2582" y="-414.3" font-family="Times,serif" font-size="14.00">&#45; newest_missing</text>
</g>
<!-- node17 -->
<g id="node17" class="node">
<title>node17</title>
<polygon fill="white" stroke="black" points="2792,-421.5 2792,-632.5 3008,-632.5 3008,-421.5 2792,-421.5"/>
<text text-anchor="middle" x="2900" y="-617.3" font-family="Times,serif" font-size="14.00">source_daily_ranked_count</text>
<polyline fill="none" stroke="black" points="2792,-609.5 3008,-609.5 "/>
<text text-anchor="start" x="2800" y="-594.3" font-family="Times,serif" font-size="14.00">&#45; cargo_retrieval_day</text>
<text text-anchor="start" x="2800" y="-579.3" font-family="Times,serif" font-size="14.00">&#45; project</text>
<text text-anchor="start" x="2800" y="-564.3" font-family="Times,serif" font-size="14.00">&#45; daily_rank</text>
<text text-anchor="start" x="2800" y="-549.3" font-family="Times,serif" font-size="14.00">&#45; srcid</text>
<text text-anchor="start" x="2800" y="-534.3" font-family="Times,serif" font-size="14.00">&#45; max_retrieval_lag_seconds</text>
<text text-anchor="start" x="2800" y="-519.3" font-family="Times,serif" font-size="14.00">&#45; daily_count</text>
<text text-anchor="start" x="2800" y="-504.3" font-family="Times,serif" font-size="14.00">&#45; daily_bytes</text>
<text text-anchor="start" x="2800" y="-489.3" font-family="Times,serif" font-size="14.00">&#45; source_nick</text>
<text text-anchor="start" x="2800" y="-474.3" font-family="Times,serif" font-size="14.00">&#45; source_name</text>
<text text-anchor="start" x="2800" y="-459.3" font-family="Times,serif" font-size="14.00">&#45; source_email</text>
<text text-anchor="start" x="2800" y="-444.3" font-family="Times,serif" font-size="14.00">&#45; source_ghkey</text>
<text text-anchor="start" x="2800" y="-429.3" font-family="Times,serif" font-size="14.00">&#45; weight</text>
</g>
<!-- node18 -->
<g id="node18" class="node">
<title>node18</title>
<polygon fill="white" stroke="black" points="3026,-421.5 3026,-632.5 3246,-632.5 3246,-421.5 3026,-421.5"/>
<text text-anchor="middle" x="3136" y="-617.3" font-family="Times,serif" font-size="14.00">source_daily_ranked_volume</text>
<polyline fill="none" stroke="black" points="3026,-609.5 3246,-609.5 "/>
<text text-anchor="start" x="3034" y="-594.3" font-family="Times,serif" font-size="14.00">&#45; cargo_retrieval_day</text>
<text text-anchor="start" x="3034" y="-579.3" font-family="Times,serif" font-size="14.00">&#45; project</text>
<text text-anchor="start" x="3034" y="-564.3" font-family="Times,serif" font-size="14.00">&#45; daily_rank</text>
<text text-anchor="start" x="3034" y="-549.3" font-family="Times,serif" font-size="14.00">&#45; srcid</text>
<text text-anchor="start" x="3034" y="-534.3" font-family="Times,serif" font-size="14.00">&#45; max_retrieval_lag_seconds</text>
<text text-anchor="start" x="3034" y="-519.3" font-family="Times,serif" font-size="14.00">&#45; daily_count</text>
<text text-anchor="start" x="3034" y="-504.3" font-family="Times,serif" font-size="14.00">&#45; daily_bytes</text>
<text text-anchor="start" x="3034" y="-489.3" font-family="Times,serif" font-size="14.00">&#45; source_nick</text>
<text text-anchor="start" x="3034" y="-474.3" font-family="Times,serif" font-size="14.00">&#45; source_name</text>
<text text-anchor="start" x="3034" y="-459.3" font-family="Times,serif" font-size="14.00">&#45; source_email</text>
<text text-anchor="start" x="3034" y="-444.3" font-family="Times,serif" font-size="14.00">&#45; source_ghkey</text>
<text text-anchor="start" x="3034" y="-429.3" font-family="Times,serif" font-size="14.00">&#45; weight</text>
</g>
<!-- node19 -->
<g id="node19" class="node">
<title>node19</title>
<polygon fill="white" stroke="black" points="3264,-466.5 3264,-587.5 3480,-587.5 3480,-466.5 3264,-466.5"/>
<text text-anchor="middle" x="3372" y="-572.3" font-family="Times,serif" font-size="14.00">source_daily_summary</text>
<polyline fill="none" stroke="black" points="3264,-564.5 3480,-564.5 "/>
<text text-anchor="start" x="3272" y="-549.3" font-family="Times,serif" font-size="14.00">&#45; cargo_retrieval_day</text>
<text text-anchor="start" x="3272" y="-534.3" font-family="Times,serif" font-size="14.00">&#45; srcid</text>
<text text-anchor="start" x="3272" y="-519.3" font-family="Times,serif" font-size="14.00">&#45; daily_count</text>
<text text-anchor="start" x="3272" y="-504.3" font-family="Times,serif" font-size="14.00">&#45; daily_bytes</text>
<text text-anchor="start" x="3272" y="-489.3" font-family="Times,serif" font-size="14.00">&#45; max_retrieval_lag_seconds</text>
<text text-anchor="start" x="3272" y="-474.3" font-family="Times,serif" font-size="14.00">&#45; min_retrieval_lag_seconds</text>
</g>
</g>
</svg>
