<?xml version="1.0" encoding="UTF-8" standalone="no"?>
<!DOCTYPE svg PUBLIC "-//W3C//DTD SVG 1.1//EN"
 "http://www.w3.org/Graphics/SVG/1.1/DTD/svg11.dtd">
<!-- Generated by graphviz version 2.43.0 (0)
 -->
<!-- Title: test Pages: 1 -->
<svg width="2850pt" height="716pt"
 viewBox="0.00 0.00 2850.00 716.00" xmlns="http://www.w3.org/2000/svg" xmlns:xlink="http://www.w3.org/1999/xlink">
<g id="graph0" class="graph" transform="scale(1 1) rotate(0) translate(4 712)">
<title>test</title>
<polygon fill="white" stroke="transparent" points="-4,4 -4,-712 2846,-712 2846,4 -4,4"/>
<!-- node1 -->
<g id="node1" class="node">
<title>node1</title>
<polygon fill="white" stroke="black" points="709,-496.5 709,-617.5 1025,-617.5 1025,-496.5 709,-496.5"/>
<text text-anchor="middle" x="867" y="-602.3" font-family="Times,serif" font-size="14.00">aggregates</text>
<polyline fill="none" stroke="black" points="709,-594.5 1025,-594.5 "/>
<text text-anchor="start" x="717" y="-579.3" font-family="Times,serif" font-size="14.00">&#45; aggregate_cid text [U]</text>
<text text-anchor="start" x="717" y="-564.3" font-family="Times,serif" font-size="14.00">&#45; piece_cid text [U]</text>
<text text-anchor="start" x="717" y="-549.3" font-family="Times,serif" font-size="14.00">&#45; sha256hex text</text>
<text text-anchor="start" x="717" y="-534.3" font-family="Times,serif" font-size="14.00">&#45; export_size bigint</text>
<text text-anchor="start" x="717" y="-519.3" font-family="Times,serif" font-size="14.00">&#45; metadata jsonb [N]</text>
<text text-anchor="start" x="717" y="-504.3" font-family="Times,serif" font-size="14.00">&#45; entry_created timestamp with time zone</text>
</g>
<!-- node7 -->
<g id="node7" class="node">
<title>node7</title>
<polygon fill="white" stroke="black" points="656.5,-211 656.5,-287 867.5,-287 867.5,-211 656.5,-211"/>
<text text-anchor="middle" x="762" y="-271.8" font-family="Times,serif" font-size="14.00">aggregate_entries</text>
<polyline fill="none" stroke="black" points="656.5,-264 867.5,-264 "/>
<text text-anchor="start" x="664.5" y="-248.8" font-family="Times,serif" font-size="14.00">&#45; aggregate_cid text [FK,U]</text>
<text text-anchor="start" x="664.5" y="-233.8" font-family="Times,serif" font-size="14.00">&#45; cid_v1 text [FK,U]</text>
<text text-anchor="start" x="664.5" y="-218.8" font-family="Times,serif" font-size="14.00">&#45; datamodel_selector text</text>
</g>
<!-- node1&#45;&gt;node7 -->
<g id="edge1" class="edge">
<title>node1&#45;&gt;node7</title>
<path fill="none" stroke="black" d="M846.51,-496.27C826.5,-437.98 796.48,-350.48 778.12,-296.99"/>
<polygon fill="black" stroke="black" points="781.39,-295.73 774.84,-287.41 774.77,-298.01 781.39,-295.73"/>
</g>
<!-- node9 -->
<g id="node9" class="node">
<title>node9</title>
<polygon fill="white" stroke="black" points="932,-128.5 932,-369.5 1300,-369.5 1300,-128.5 932,-128.5"/>
<text text-anchor="middle" x="1116" y="-354.3" font-family="Times,serif" font-size="14.00">deals</text>
<polyline fill="none" stroke="black" points="932,-346.5 1300,-346.5 "/>
<text text-anchor="start" x="940" y="-331.3" font-family="Times,serif" font-size="14.00">&#45; deal_id bigint [U]</text>
<text text-anchor="start" x="940" y="-316.3" font-family="Times,serif" font-size="14.00">&#45; aggregate_cid text [FK]</text>
<text text-anchor="start" x="940" y="-301.3" font-family="Times,serif" font-size="14.00">&#45; client text [FK]</text>
<text text-anchor="start" x="940" y="-286.3" font-family="Times,serif" font-size="14.00">&#45; provider text [FK]</text>
<text text-anchor="start" x="940" y="-271.3" font-family="Times,serif" font-size="14.00">&#45; status text</text>
<text text-anchor="start" x="940" y="-256.3" font-family="Times,serif" font-size="14.00">&#45; start_epoch integer</text>
<text text-anchor="start" x="940" y="-241.3" font-family="Times,serif" font-size="14.00">&#45; end_epoch integer</text>
<text text-anchor="start" x="940" y="-226.3" font-family="Times,serif" font-size="14.00">&#45; entry_created timestamp with time zone</text>
<text text-anchor="start" x="940" y="-211.3" font-family="Times,serif" font-size="14.00">&#45; entry_last_updated timestamp with time zone</text>
<text text-anchor="start" x="940" y="-196.3" font-family="Times,serif" font-size="14.00">&#45; status_meta text [N]</text>
<text text-anchor="start" x="940" y="-181.3" font-family="Times,serif" font-size="14.00">&#45; start_time timestamp with time zone</text>
<text text-anchor="start" x="940" y="-166.3" font-family="Times,serif" font-size="14.00">&#45; sector_start_epoch integer [N]</text>
<text text-anchor="start" x="940" y="-151.3" font-family="Times,serif" font-size="14.00">&#45; sector_start_time timestamp with time zone [N]</text>
<text text-anchor="start" x="940" y="-136.3" font-family="Times,serif" font-size="14.00">&#45; end_time timestamp with time zone</text>
</g>
<!-- node1&#45;&gt;node9 -->
<g id="edge2" class="edge">
<title>node1&#45;&gt;node9</title>
<path fill="none" stroke="black" d="M915.6,-496.27C943.12,-462.45 978.65,-418.79 1012.13,-377.65"/>
<polygon fill="black" stroke="black" points="1014.98,-379.7 1018.57,-369.73 1009.55,-375.28 1014.98,-379.7"/>
</g>
<!-- node2 -->
<g id="node2" class="node">
<title>node2</title>
<polygon fill="white" stroke="black" points="1207.5,-519 1207.5,-595 1372.5,-595 1372.5,-519 1207.5,-519"/>
<text text-anchor="middle" x="1290" y="-579.8" font-family="Times,serif" font-size="14.00">clients</text>
<polyline fill="none" stroke="black" points="1207.5,-572 1372.5,-572 "/>
<text text-anchor="start" x="1215.5" y="-556.8" font-family="Times,serif" font-size="14.00">&#45; client text [U]</text>
<text text-anchor="start" x="1215.5" y="-541.8" font-family="Times,serif" font-size="14.00">&#45; filp_available bigint</text>
<text text-anchor="start" x="1215.5" y="-526.8" font-family="Times,serif" font-size="14.00">&#45; details jsonb [N]</text>
</g>
<!-- node2&#45;&gt;node9 -->
<g id="edge3" class="edge">
<title>node2&#45;&gt;node9</title>
<path fill="none" stroke="black" d="M1268.84,-518.78C1248.93,-483.78 1217.95,-429.3 1189.07,-378.51"/>
<polygon fill="black" stroke="black" points="1192.07,-376.7 1184.09,-369.74 1185.99,-380.16 1192.07,-376.7"/>
</g>
<!-- node3 -->
<g id="node3" class="node">
<title>node3</title>
<polygon fill="white" stroke="black" points="337.5,-504 337.5,-610 690.5,-610 690.5,-504 337.5,-504"/>
<text text-anchor="middle" x="514" y="-594.8" font-family="Times,serif" font-size="14.00">dags</text>
<polyline fill="none" stroke="black" points="337.5,-587 690.5,-587 "/>
<text text-anchor="start" x="345.5" y="-571.8" font-family="Times,serif" font-size="14.00">&#45; cid_v1 text [U]</text>
<text text-anchor="start" x="345.5" y="-556.8" font-family="Times,serif" font-size="14.00">&#45; size_actual bigint [N]</text>
<text text-anchor="start" x="345.5" y="-541.8" font-family="Times,serif" font-size="14.00">&#45; entry_created timestamp with time zone</text>
<text text-anchor="start" x="345.5" y="-526.8" font-family="Times,serif" font-size="14.00">&#45; entry_last_updated timestamp with time zone</text>
<text text-anchor="start" x="345.5" y="-511.8" font-family="Times,serif" font-size="14.00">&#45; entry_analyzed timestamp with time zone [N]</text>
</g>
<!-- node6 -->
<g id="node6" class="node">
<title>node6</title>
<polygon fill="white" stroke="black" points="436.5,-218.5 436.5,-279.5 591.5,-279.5 591.5,-218.5 436.5,-218.5"/>
<text text-anchor="middle" x="514" y="-264.3" font-family="Times,serif" font-size="14.00">refs</text>
<polyline fill="none" stroke="black" points="436.5,-256.5 591.5,-256.5 "/>
<text text-anchor="start" x="444.5" y="-241.3" font-family="Times,serif" font-size="14.00">&#45; cid_v1 text [FK,U]</text>
<text text-anchor="start" x="444.5" y="-226.3" font-family="Times,serif" font-size="14.00">&#45; ref_cid text [U]</text>
</g>
<!-- node3&#45;&gt;node6 -->
<g id="edge6" class="edge">
<title>node3&#45;&gt;node6</title>
<path fill="none" stroke="black" d="M514,-503.74C514,-443.13 514,-344.53 514,-289.8"/>
<polygon fill="black" stroke="black" points="517.5,-289.79 514,-279.79 510.5,-289.79 517.5,-289.79"/>
</g>
<!-- node3&#45;&gt;node7 -->
<g id="edge4" class="edge">
<title>node3&#45;&gt;node7</title>
<path fill="none" stroke="black" d="M556.35,-503.74C603.95,-445.01 680.45,-350.62 725.51,-295.03"/>
<polygon fill="black" stroke="black" points="728.34,-297.09 731.92,-287.11 722.91,-292.68 728.34,-297.09"/>
</g>
<!-- node8 -->
<g id="node8" class="node">
<title>node8</title>
<polygon fill="white" stroke="black" points="0,-166 0,-332 386,-332 386,-166 0,-166"/>
<text text-anchor="middle" x="193" y="-316.8" font-family="Times,serif" font-size="14.00">dag_sources</text>
<polyline fill="none" stroke="black" points="0,-309 386,-309 "/>
<text text-anchor="start" x="8" y="-293.8" font-family="Times,serif" font-size="14.00">&#45; srcid bigint [FK,U]</text>
<text text-anchor="start" x="8" y="-278.8" font-family="Times,serif" font-size="14.00">&#45; cid_v1 text [FK]</text>
<text text-anchor="start" x="8" y="-263.8" font-family="Times,serif" font-size="14.00">&#45; source_key text [U]</text>
<text text-anchor="start" x="8" y="-248.8" font-family="Times,serif" font-size="14.00">&#45; entry_created timestamp with time zone</text>
<text text-anchor="start" x="8" y="-233.8" font-family="Times,serif" font-size="14.00">&#45; entry_removed timestamp with time zone [N]</text>
<text text-anchor="start" x="8" y="-218.8" font-family="Times,serif" font-size="14.00">&#45; entry_last_exported timestamp with time zone [N]</text>
<text text-anchor="start" x="8" y="-203.8" font-family="Times,serif" font-size="14.00">&#45; details jsonb [N]</text>
<text text-anchor="start" x="8" y="-188.8" font-family="Times,serif" font-size="14.00">&#45; entry_last_updated timestamp with time zone</text>
<text text-anchor="start" x="8" y="-173.8" font-family="Times,serif" font-size="14.00">&#45; size_claimed bigint [N]</text>
</g>
<!-- node3&#45;&gt;node8 -->
<g id="edge5" class="edge">
<title>node3&#45;&gt;node8</title>
<path fill="none" stroke="black" d="M459.18,-503.74C411.88,-458.66 342.54,-392.56 286.49,-339.12"/>
<polygon fill="black" stroke="black" points="288.68,-336.37 279.03,-332.01 283.85,-341.44 288.68,-336.37"/>
</g>
<!-- node4 -->
<g id="node4" class="node">
<title>node4</title>
<polygon fill="white" stroke="black" points="1043,-526.5 1043,-587.5 1189,-587.5 1189,-526.5 1043,-526.5"/>
<text text-anchor="middle" x="1116" y="-572.3" font-family="Times,serif" font-size="14.00">providers</text>
<polyline fill="none" stroke="black" points="1043,-564.5 1189,-564.5 "/>
<text text-anchor="start" x="1051" y="-549.3" font-family="Times,serif" font-size="14.00">&#45; provider text [U]</text>
<text text-anchor="start" x="1051" y="-534.3" font-family="Times,serif" font-size="14.00">&#45; details jsonb [N]</text>
</g>
<!-- node4&#45;&gt;node9 -->
<g id="edge8" class="edge">
<title>node4&#45;&gt;node9</title>
<path fill="none" stroke="black" d="M1116,-526.38C1116,-492.28 1116,-433.97 1116,-379.67"/>
<polygon fill="black" stroke="black" points="1119.5,-379.59 1116,-369.59 1112.5,-379.59 1119.5,-379.59"/>
</g>
<!-- node5 -->
<g id="node5" class="node">
<title>node5</title>
<polygon fill="white" stroke="black" points="3,-496.5 3,-617.5 319,-617.5 319,-496.5 3,-496.5"/>
<text text-anchor="middle" x="161" y="-602.3" font-family="Times,serif" font-size="14.00">sources</text>
<polyline fill="none" stroke="black" points="3,-594.5 319,-594.5 "/>
<text text-anchor="start" x="11" y="-579.3" font-family="Times,serif" font-size="14.00">&#45; srcid bigint [U]</text>
<text text-anchor="start" x="11" y="-564.3" font-family="Times,serif" font-size="14.00">&#45; project integer [U]</text>
<text text-anchor="start" x="11" y="-549.3" font-family="Times,serif" font-size="14.00">&#45; source_label text [U]</text>
<text text-anchor="start" x="11" y="-534.3" font-family="Times,serif" font-size="14.00">&#45; details jsonb [N]</text>
<text text-anchor="start" x="11" y="-519.3" font-family="Times,serif" font-size="14.00">&#45; entry_created timestamp with time zone</text>
<text text-anchor="start" x="11" y="-504.3" font-family="Times,serif" font-size="14.00">&#45; weight integer [N]</text>
</g>
<!-- node5&#45;&gt;node8 -->
<g id="edge9" class="edge">
<title>node5&#45;&gt;node8</title>
<path fill="none" stroke="black" d="M167.25,-496.27C171.82,-452.5 178.12,-392.26 183.35,-342.32"/>
<polygon fill="black" stroke="black" points="186.85,-342.46 184.41,-332.15 179.89,-341.73 186.85,-342.46"/>
</g>
<!-- node10 -->
<g id="node10" class="node">
<title>node10</title>
<polygon fill="white" stroke="black" points="958,-0.5 958,-91.5 1274,-91.5 1274,-0.5 958,-0.5"/>
<text text-anchor="middle" x="1116" y="-76.3" font-family="Times,serif" font-size="14.00">deal_events</text>
<polyline fill="none" stroke="black" points="958,-68.5 1274,-68.5 "/>
<text text-anchor="start" x="966" y="-53.3" font-family="Times,serif" font-size="14.00">&#45; entry_id bigint [U]</text>
<text text-anchor="start" x="966" y="-38.3" font-family="Times,serif" font-size="14.00">&#45; deal_id bigint [FK]</text>
<text text-anchor="start" x="966" y="-23.3" font-family="Times,serif" font-size="14.00">&#45; status text</text>
<text text-anchor="start" x="966" y="-8.3" font-family="Times,serif" font-size="14.00">&#45; entry_created timestamp with time zone</text>
</g>
<!-- node9&#45;&gt;node10 -->
<g id="edge7" class="edge">
<title>node9&#45;&gt;node10</title>
<path fill="none" stroke="black" d="M1116,-128.46C1116,-119.23 1116,-110.23 1116,-101.77"/>
<polygon fill="black" stroke="black" points="1119.5,-101.75 1116,-91.75 1112.5,-101.75 1119.5,-101.75"/>
</g>
<!-- node11 -->
<g id="node11" class="node">
<title>node11</title>
<polygon fill="white" stroke="black" points="1390.5,-481.5 1390.5,-632.5 1553.5,-632.5 1553.5,-481.5 1390.5,-481.5"/>
<text text-anchor="middle" x="1472" y="-617.3" font-family="Times,serif" font-size="14.00">aggregate_summary</text>
<polyline fill="none" stroke="black" points="1390.5,-609.5 1553.5,-609.5 "/>
<text text-anchor="start" x="1398.5" y="-594.3" font-family="Times,serif" font-size="14.00">&#45; aggregate_cid</text>
<text text-anchor="start" x="1398.5" y="-579.3" font-family="Times,serif" font-size="14.00">&#45; piece_cid</text>
<text text-anchor="start" x="1398.5" y="-564.3" font-family="Times,serif" font-size="14.00">&#45; car_size</text>
<text text-anchor="start" x="1398.5" y="-549.3" font-family="Times,serif" font-size="14.00">&#45; aggregated_at</text>
<text text-anchor="start" x="1398.5" y="-534.3" font-family="Times,serif" font-size="14.00">&#45; web2_source</text>
<text text-anchor="start" x="1398.5" y="-519.3" font-family="Times,serif" font-size="14.00">&#45; tentative_replicas</text>
<text text-anchor="start" x="1398.5" y="-504.3" font-family="Times,serif" font-size="14.00">&#45; dag_counts</text>
<text text-anchor="start" x="1398.5" y="-489.3" font-family="Times,serif" font-size="14.00">&#45; replica_counts</text>
</g>
<!-- node12 -->
<g id="node12" class="node">
<title>node12</title>
<polygon fill="white" stroke="black" points="1572,-466.5 1572,-647.5 1714,-647.5 1714,-466.5 1572,-466.5"/>
<text text-anchor="middle" x="1643" y="-632.3" font-family="Times,serif" font-size="14.00">dags_missing_list</text>
<polyline fill="none" stroke="black" points="1572,-624.5 1714,-624.5 "/>
<text text-anchor="start" x="1580" y="-609.3" font-family="Times,serif" font-size="14.00">&#45; cid_v1</text>
<text text-anchor="start" x="1580" y="-594.3" font-family="Times,serif" font-size="14.00">&#45; source_key</text>
<text text-anchor="start" x="1580" y="-579.3" font-family="Times,serif" font-size="14.00">&#45; srcid</text>
<text text-anchor="start" x="1580" y="-564.3" font-family="Times,serif" font-size="14.00">&#45; entry_created</text>
<text text-anchor="start" x="1580" y="-549.3" font-family="Times,serif" font-size="14.00">&#45; entry_removed</text>
<text text-anchor="start" x="1580" y="-534.3" font-family="Times,serif" font-size="14.00">&#45; is_tombstone</text>
<text text-anchor="start" x="1580" y="-519.3" font-family="Times,serif" font-size="14.00">&#45; cluster_pin_lag</text>
<text text-anchor="start" x="1580" y="-504.3" font-family="Times,serif" font-size="14.00">&#45; details</text>
<text text-anchor="start" x="1580" y="-489.3" font-family="Times,serif" font-size="14.00">&#45; project</text>
<text text-anchor="start" x="1580" y="-474.3" font-family="Times,serif" font-size="14.00">&#45; weight</text>
</g>
<!-- node13 -->
<g id="node13" class="node">
<title>node13</title>
<polygon fill="white" stroke="black" points="1732,-459 1732,-655 1918,-655 1918,-459 1732,-459"/>
<text text-anchor="middle" x="1825" y="-639.8" font-family="Times,serif" font-size="14.00">dags_missing_summary</text>
<polyline fill="none" stroke="black" points="1732,-632 1918,-632 "/>
<text text-anchor="start" x="1740" y="-616.8" font-family="Times,serif" font-size="14.00">&#45; project</text>
<text text-anchor="start" x="1740" y="-601.8" font-family="Times,serif" font-size="14.00">&#45; srcid</text>
<text text-anchor="start" x="1740" y="-586.8" font-family="Times,serif" font-size="14.00">&#45; source_nick</text>
<text text-anchor="start" x="1740" y="-571.8" font-family="Times,serif" font-size="14.00">&#45; source_name</text>
<text text-anchor="start" x="1740" y="-556.8" font-family="Times,serif" font-size="14.00">&#45; source_email</text>
<text text-anchor="start" x="1740" y="-541.8" font-family="Times,serif" font-size="14.00">&#45; source_ghkey</text>
<text text-anchor="start" x="1740" y="-526.8" font-family="Times,serif" font-size="14.00">&#45; weight</text>
<text text-anchor="start" x="1740" y="-511.8" font-family="Times,serif" font-size="14.00">&#45; dags_missing</text>
<text text-anchor="start" x="1740" y="-496.8" font-family="Times,serif" font-size="14.00">&#45; oldest_missing</text>
<text text-anchor="start" x="1740" y="-481.8" font-family="Times,serif" font-size="14.00">&#45; newest_missing</text>
<text text-anchor="start" x="1740" y="-466.8" font-family="Times,serif" font-size="14.00">&#45; pct_not_pinned</text>
</g>
<!-- node14 -->
<g id="node14" class="node">
<title>node14</title>
<polygon fill="white" stroke="black" points="1936,-406.5 1936,-707.5 2136,-707.5 2136,-406.5 1936,-406.5"/>
<text text-anchor="middle" x="2036" y="-692.3" font-family="Times,serif" font-size="14.00">source_all_time_summary</text>
<polyline fill="none" stroke="black" points="1936,-684.5 2136,-684.5 "/>
<text text-anchor="start" x="1944" y="-669.3" font-family="Times,serif" font-size="14.00">&#45; project</text>
<text text-anchor="start" x="1944" y="-654.3" font-family="Times,serif" font-size="14.00">&#45; srcid</text>
<text text-anchor="start" x="1944" y="-639.3" font-family="Times,serif" font-size="14.00">&#45; source_nick</text>
<text text-anchor="start" x="1944" y="-624.3" font-family="Times,serif" font-size="14.00">&#45; source_name</text>
<text text-anchor="start" x="1944" y="-609.3" font-family="Times,serif" font-size="14.00">&#45; source_email</text>
<text text-anchor="start" x="1944" y="-594.3" font-family="Times,serif" font-size="14.00">&#45; source_ghkey</text>
<text text-anchor="start" x="1944" y="-579.3" font-family="Times,serif" font-size="14.00">&#45; weight</text>
<text text-anchor="start" x="1944" y="-564.3" font-family="Times,serif" font-size="14.00">&#45; count_total</text>
<text text-anchor="start" x="1944" y="-549.3" font-family="Times,serif" font-size="14.00">&#45; size_total</text>
<text text-anchor="start" x="1944" y="-534.3" font-family="Times,serif" font-size="14.00">&#45; gib_total</text>
<text text-anchor="start" x="1944" y="-519.3" font-family="Times,serif" font-size="14.00">&#45; most_recent_upload</text>
<text text-anchor="start" x="1944" y="-504.3" font-family="Times,serif" font-size="14.00">&#45; count_unagg</text>
<text text-anchor="start" x="1944" y="-489.3" font-family="Times,serif" font-size="14.00">&#45; size_unagg</text>
<text text-anchor="start" x="1944" y="-474.3" font-family="Times,serif" font-size="14.00">&#45; gib_unagg</text>
<text text-anchor="start" x="1944" y="-459.3" font-family="Times,serif" font-size="14.00">&#45; oldest_unagg</text>
<text text-anchor="start" x="1944" y="-444.3" font-family="Times,serif" font-size="14.00">&#45; dags_missing</text>
<text text-anchor="start" x="1944" y="-429.3" font-family="Times,serif" font-size="14.00">&#45; oldest_missing</text>
<text text-anchor="start" x="1944" y="-414.3" font-family="Times,serif" font-size="14.00">&#45; newest_missing</text>
</g>
<!-- node15 -->
<g id="node15" class="node">
<title>node15</title>
<polygon fill="white" stroke="black" points="2154,-451.5 2154,-662.5 2370,-662.5 2370,-451.5 2154,-451.5"/>
<text text-anchor="middle" x="2262" y="-647.3" font-family="Times,serif" font-size="14.00">source_daily_ranked_count</text>
<polyline fill="none" stroke="black" points="2154,-639.5 2370,-639.5 "/>
<text text-anchor="start" x="2162" y="-624.3" font-family="Times,serif" font-size="14.00">&#45; cargo_retrieval_day</text>
<text text-anchor="start" x="2162" y="-609.3" font-family="Times,serif" font-size="14.00">&#45; project</text>
<text text-anchor="start" x="2162" y="-594.3" font-family="Times,serif" font-size="14.00">&#45; daily_rank</text>
<text text-anchor="start" x="2162" y="-579.3" font-family="Times,serif" font-size="14.00">&#45; srcid</text>
<text text-anchor="start" x="2162" y="-564.3" font-family="Times,serif" font-size="14.00">&#45; max_retrieval_lag_seconds</text>
<text text-anchor="start" x="2162" y="-549.3" font-family="Times,serif" font-size="14.00">&#45; daily_count</text>
<text text-anchor="start" x="2162" y="-534.3" font-family="Times,serif" font-size="14.00">&#45; daily_bytes</text>
<text text-anchor="start" x="2162" y="-519.3" font-family="Times,serif" font-size="14.00">&#45; source_nick</text>
<text text-anchor="start" x="2162" y="-504.3" font-family="Times,serif" font-size="14.00">&#45; source_name</text>
<text text-anchor="start" x="2162" y="-489.3" font-family="Times,serif" font-size="14.00">&#45; source_email</text>
<text text-anchor="start" x="2162" y="-474.3" font-family="Times,serif" font-size="14.00">&#45; source_ghkey</text>
<text text-anchor="start" x="2162" y="-459.3" font-family="Times,serif" font-size="14.00">&#45; weight</text>
</g>
<!-- node16 -->
<g id="node16" class="node">
<title>node16</title>
<polygon fill="white" stroke="black" points="2388,-451.5 2388,-662.5 2608,-662.5 2608,-451.5 2388,-451.5"/>
<text text-anchor="middle" x="2498" y="-647.3" font-family="Times,serif" font-size="14.00">source_daily_ranked_volume</text>
<polyline fill="none" stroke="black" points="2388,-639.5 2608,-639.5 "/>
<text text-anchor="start" x="2396" y="-624.3" font-family="Times,serif" font-size="14.00">&#45; cargo_retrieval_day</text>
<text text-anchor="start" x="2396" y="-609.3" font-family="Times,serif" font-size="14.00">&#45; project</text>
<text text-anchor="start" x="2396" y="-594.3" font-family="Times,serif" font-size="14.00">&#45; daily_rank</text>
<text text-anchor="start" x="2396" y="-579.3" font-family="Times,serif" font-size="14.00">&#45; srcid</text>
<text text-anchor="start" x="2396" y="-564.3" font-family="Times,serif" font-size="14.00">&#45; max_retrieval_lag_seconds</text>
<text text-anchor="start" x="2396" y="-549.3" font-family="Times,serif" font-size="14.00">&#45; daily_count</text>
<text text-anchor="start" x="2396" y="-534.3" font-family="Times,serif" font-size="14.00">&#45; daily_bytes</text>
<text text-anchor="start" x="2396" y="-519.3" font-family="Times,serif" font-size="14.00">&#45; source_nick</text>
<text text-anchor="start" x="2396" y="-504.3" font-family="Times,serif" font-size="14.00">&#45; source_name</text>
<text text-anchor="start" x="2396" y="-489.3" font-family="Times,serif" font-size="14.00">&#45; source_email</text>
<text text-anchor="start" x="2396" y="-474.3" font-family="Times,serif" font-size="14.00">&#45; source_ghkey</text>
<text text-anchor="start" x="2396" y="-459.3" font-family="Times,serif" font-size="14.00">&#45; weight</text>
</g>
<!-- node17 -->
<g id="node17" class="node">
<title>node17</title>
<polygon fill="white" stroke="black" points="2626,-496.5 2626,-617.5 2842,-617.5 2842,-496.5 2626,-496.5"/>
<text text-anchor="middle" x="2734" y="-602.3" font-family="Times,serif" font-size="14.00">source_daily_summary</text>
<polyline fill="none" stroke="black" points="2626,-594.5 2842,-594.5 "/>
<text text-anchor="start" x="2634" y="-579.3" font-family="Times,serif" font-size="14.00">&#45; cargo_retrieval_day</text>
<text text-anchor="start" x="2634" y="-564.3" font-family="Times,serif" font-size="14.00">&#45; srcid</text>
<text text-anchor="start" x="2634" y="-549.3" font-family="Times,serif" font-size="14.00">&#45; daily_count</text>
<text text-anchor="start" x="2634" y="-534.3" font-family="Times,serif" font-size="14.00">&#45; daily_bytes</text>
<text text-anchor="start" x="2634" y="-519.3" font-family="Times,serif" font-size="14.00">&#45; max_retrieval_lag_seconds</text>
<text text-anchor="start" x="2634" y="-504.3" font-family="Times,serif" font-size="14.00">&#45; min_retrieval_lag_seconds</text>
</g>
</g>
</svg>
