<?xml version="1.0" encoding="UTF-8" standalone="no"?>
<!DOCTYPE svg PUBLIC "-//W3C//DTD SVG 1.1//EN"
 "http://www.w3.org/Graphics/SVG/1.1/DTD/svg11.dtd">
<!-- Generated by graphviz version 2.43.0 (0)
 -->
<!-- Title: test Pages: 1 -->
<svg width="1263pt" height="356pt"
 viewBox="0.00 0.00 1263.00 356.00" xmlns="http://www.w3.org/2000/svg" xmlns:xlink="http://www.w3.org/1999/xlink">
<g id="graph0" class="graph" transform="scale(1 1) rotate(0) translate(4 352)">
<title>test</title>
<polygon fill="white" stroke="transparent" points="-4,4 -4,-352 1259,-352 1259,4 -4,4"/>
<!-- node1 -->
<g id="node1" class="node">
<title>node1</title>
<polygon fill="white" stroke="black" points="264.5,-234 264.5,-340 580.5,-340 580.5,-234 264.5,-234"/>
<text text-anchor="middle" x="422.5" y="-324.8" font-family="Times,serif" font-size="14.00">batches</text>
<polyline fill="none" stroke="black" points="264.5,-317 580.5,-317 "/>
<text text-anchor="start" x="272.5" y="-301.8" font-family="Times,serif" font-size="14.00">&#45; batch_cid text [U]</text>
<text text-anchor="start" x="272.5" y="-286.8" font-family="Times,serif" font-size="14.00">&#45; piece_cid text [U,N]</text>
<text text-anchor="start" x="272.5" y="-271.8" font-family="Times,serif" font-size="14.00">&#45; car_size bigint [N]</text>
<text text-anchor="start" x="272.5" y="-256.8" font-family="Times,serif" font-size="14.00">&#45; metadata jsonb [N]</text>
<text text-anchor="start" x="272.5" y="-241.8" font-family="Times,serif" font-size="14.00">&#45; entry_created timestamp with time zone</text>
</g>
<!-- node6 -->
<g id="node6" class="node">
<title>node6</title>
<polygon fill="white" stroke="black" points="372.5,-38 372.5,-152 676.5,-152 676.5,-38 372.5,-38"/>
<text text-anchor="middle" x="524.5" y="-136.8" font-family="Times,serif" font-size="14.00">batch_entries</text>
<polyline fill="none" stroke="black" points="372.5,-129 676.5,-129 "/>
<text text-anchor="start" x="380.5" y="-113.8" font-family="Times,serif" font-size="14.00">&#45; batch_cid text [FK,U]</text>
<text text-anchor="start" x="380.5" y="-98.8" font-family="Times,serif" font-size="14.00">&#45; cid_v1 text [FK,U]</text>
<text text-anchor="start" x="380.5" y="-83.8" font-family="Times,serif" font-size="14.00">&#45; datamodel_selector text [N]</text>
<polyline fill="none" stroke="black" points="372.5,-76 676.5,-76 "/>
<text text-anchor="start" x="380.5" y="-60.8" font-family="Times,serif" font-size="14.00">* batch_entries_idx_batch_cid: batch_cid</text>
<text text-anchor="start" x="380.5" y="-45.8" font-family="Times,serif" font-size="14.00">* batch_entries_idx_cid_v1: cid_v1</text>
</g>
<!-- node1&#45;&gt;node6 -->
<g id="edge1" class="edge">
<title>node1&#45;&gt;node6</title>
<path fill="none" stroke="black" d="M450.51,-233.83C462.59,-211.33 476.84,-184.77 489.6,-161"/>
<polygon fill="black" stroke="black" points="492.77,-162.51 494.41,-152.05 486.6,-159.2 492.77,-162.51"/>
</g>
<!-- node7 -->
<g id="node7" class="node">
<title>node7</title>
<polygon fill="white" stroke="black" points="0,-0.5 0,-189.5 353,-189.5 353,-0.5 0,-0.5"/>
<text text-anchor="middle" x="176.5" y="-174.3" font-family="Times,serif" font-size="14.00">deals</text>
<polyline fill="none" stroke="black" points="0,-166.5 353,-166.5 "/>
<text text-anchor="start" x="8" y="-151.3" font-family="Times,serif" font-size="14.00">&#45; batch_cid text [FK]</text>
<text text-anchor="start" x="8" y="-136.3" font-family="Times,serif" font-size="14.00">&#45; provider text [FK]</text>
<text text-anchor="start" x="8" y="-121.3" font-family="Times,serif" font-size="14.00">&#45; status text</text>
<text text-anchor="start" x="8" y="-106.3" font-family="Times,serif" font-size="14.00">&#45; deal_id integer [U,N]</text>
<text text-anchor="start" x="8" y="-91.3" font-family="Times,serif" font-size="14.00">&#45; epoch_start integer [N]</text>
<text text-anchor="start" x="8" y="-76.3" font-family="Times,serif" font-size="14.00">&#45; epoch_end integer [N]</text>
<text text-anchor="start" x="8" y="-61.3" font-family="Times,serif" font-size="14.00">&#45; entry_created timestamp with time zone</text>
<text text-anchor="start" x="8" y="-46.3" font-family="Times,serif" font-size="14.00">&#45; entry_last_updated timestamp with time zone</text>
<polyline fill="none" stroke="black" points="0,-38.5 353,-38.5 "/>
<text text-anchor="start" x="8" y="-23.3" font-family="Times,serif" font-size="14.00">* deals_idx_batch_cid: batch_cid</text>
<text text-anchor="start" x="8" y="-8.3" font-family="Times,serif" font-size="14.00">* deals_idx_provider: provider</text>
</g>
<!-- node1&#45;&gt;node7 -->
<g id="edge2" class="edge">
<title>node1&#45;&gt;node7</title>
<path fill="none" stroke="black" d="M354.95,-233.83C339.67,-222.03 322.95,-209.11 306.06,-196.07"/>
<polygon fill="black" stroke="black" points="307.82,-193 297.76,-189.66 303.54,-198.54 307.82,-193"/>
</g>
<!-- node2 -->
<g id="node2" class="node">
<title>node2</title>
<polygon fill="white" stroke="black" points="598.5,-226.5 598.5,-347.5 984.5,-347.5 984.5,-226.5 598.5,-226.5"/>
<text text-anchor="middle" x="791.5" y="-332.3" font-family="Times,serif" font-size="14.00">dags</text>
<polyline fill="none" stroke="black" points="598.5,-324.5 984.5,-324.5 "/>
<text text-anchor="start" x="606.5" y="-309.3" font-family="Times,serif" font-size="14.00">&#45; cid_v1 text [U]</text>
<text text-anchor="start" x="606.5" y="-294.3" font-family="Times,serif" font-size="14.00">&#45; size_actual bigint [N]</text>
<text text-anchor="start" x="606.5" y="-279.3" font-family="Times,serif" font-size="14.00">&#45; size_claimed bigint [N]</text>
<text text-anchor="start" x="606.5" y="-264.3" font-family="Times,serif" font-size="14.00">&#45; entry_created timestamp with time zone</text>
<text text-anchor="start" x="606.5" y="-249.3" font-family="Times,serif" font-size="14.00">&#45; entry_last_updated timestamp with time zone</text>
<text text-anchor="start" x="606.5" y="-234.3" font-family="Times,serif" font-size="14.00">&#45; entry_last_exported timestamp with time zone [N]</text>
</g>
<!-- node4 -->
<g id="node4" class="node">
<title>node4</title>
<polygon fill="white" stroke="black" points="695.5,-53 695.5,-137 885.5,-137 885.5,-53 695.5,-53"/>
<text text-anchor="middle" x="790.5" y="-121.8" font-family="Times,serif" font-size="14.00">refs</text>
<polyline fill="none" stroke="black" points="695.5,-114 885.5,-114 "/>
<text text-anchor="start" x="703.5" y="-98.8" font-family="Times,serif" font-size="14.00">&#45; cid_v1 text [FK,U]</text>
<text text-anchor="start" x="703.5" y="-83.8" font-family="Times,serif" font-size="14.00">&#45; ref_v1 text [U]</text>
<polyline fill="none" stroke="black" points="695.5,-76 885.5,-76 "/>
<text text-anchor="start" x="703.5" y="-60.8" font-family="Times,serif" font-size="14.00">* refs_idx_cid_v1: cid_v1</text>
</g>
<!-- node2&#45;&gt;node4 -->
<g id="edge4" class="edge">
<title>node2&#45;&gt;node4</title>
<path fill="none" stroke="black" d="M791.19,-226.4C791.05,-200.98 790.9,-171.61 790.77,-147.18"/>
<polygon fill="black" stroke="black" points="794.27,-147.02 790.72,-137.04 787.27,-147.06 794.27,-147.02"/>
</g>
<!-- node5 -->
<g id="node5" class="node">
<title>node5</title>
<polygon fill="white" stroke="black" points="904,-30.5 904,-159.5 1255,-159.5 1255,-30.5 904,-30.5"/>
<text text-anchor="middle" x="1079.5" y="-144.3" font-family="Times,serif" font-size="14.00">sources</text>
<polyline fill="none" stroke="black" points="904,-136.5 1255,-136.5 "/>
<text text-anchor="start" x="912" y="-121.3" font-family="Times,serif" font-size="14.00">&#45; cid_v1 text [FK]</text>
<text text-anchor="start" x="912" y="-106.3" font-family="Times,serif" font-size="14.00">&#45; cid_original text [U]</text>
<text text-anchor="start" x="912" y="-91.3" font-family="Times,serif" font-size="14.00">&#45; source text [U]</text>
<text text-anchor="start" x="912" y="-76.3" font-family="Times,serif" font-size="14.00">&#45; entry_created timestamp with time zone</text>
<text text-anchor="start" x="912" y="-61.3" font-family="Times,serif" font-size="14.00">&#45; entry_removed timestamp with time zone [N]</text>
<polyline fill="none" stroke="black" points="904,-53.5 1255,-53.5 "/>
<text text-anchor="start" x="912" y="-38.3" font-family="Times,serif" font-size="14.00">* sources_idx_cid_v1: cid_v1</text>
</g>
<!-- node2&#45;&gt;node5 -->
<g id="edge5" class="edge">
<title>node2&#45;&gt;node5</title>
<path fill="none" stroke="black" d="M881.83,-226.4C911.24,-207.01 944.12,-185.31 974.51,-165.27"/>
<polygon fill="black" stroke="black" points="976.58,-168.09 983,-159.66 972.73,-162.25 976.58,-168.09"/>
</g>
<!-- node2&#45;&gt;node6 -->
<g id="edge3" class="edge">
<title>node2&#45;&gt;node6</title>
<path fill="none" stroke="black" d="M707.75,-226.4C677.15,-204.63 642.47,-179.95 611.58,-157.97"/>
<polygon fill="black" stroke="black" points="613.58,-155.09 603.4,-152.14 609.52,-160.79 613.58,-155.09"/>
</g>
<!-- node3 -->
<g id="node3" class="node">
<title>node3</title>
<polygon fill="white" stroke="black" points="100.5,-256.5 100.5,-317.5 246.5,-317.5 246.5,-256.5 100.5,-256.5"/>
<text text-anchor="middle" x="173.5" y="-302.3" font-family="Times,serif" font-size="14.00">providers</text>
<polyline fill="none" stroke="black" points="100.5,-294.5 246.5,-294.5 "/>
<text text-anchor="start" x="108.5" y="-279.3" font-family="Times,serif" font-size="14.00">&#45; provider text [U]</text>
<text text-anchor="start" x="108.5" y="-264.3" font-family="Times,serif" font-size="14.00">&#45; details jsonb [N]</text>
</g>
<!-- node3&#45;&gt;node7 -->
<g id="edge6" class="edge">
<title>node3&#45;&gt;node7</title>
<path fill="none" stroke="black" d="M173.97,-256.31C174.22,-240.71 174.53,-220.54 174.86,-199.81"/>
<polygon fill="black" stroke="black" points="178.36,-199.66 175.02,-189.61 171.36,-199.55 178.36,-199.66"/>
</g>
</g>
</svg>
