<?xml version="1.0" encoding="UTF-8" standalone="no"?>
<!DOCTYPE svg PUBLIC "-//W3C//DTD SVG 1.1//EN"
 "http://www.w3.org/Graphics/SVG/1.1/DTD/svg11.dtd">
<!-- Generated by graphviz version 2.43.0 (0)
 -->
<!-- Title: test Pages: 1 -->
<svg width="1436pt" height="537pt"
 viewBox="0.00 0.00 1435.50 537.00" xmlns="http://www.w3.org/2000/svg" xmlns:xlink="http://www.w3.org/1999/xlink">
<g id="graph0" class="graph" transform="scale(1 1) rotate(0) translate(4 533)">
<title>test</title>
<polygon fill="white" stroke="transparent" points="-4,4 -4,-533 1431.5,-533 1431.5,4 -4,4"/>
<!-- node1 -->
<g id="node1" class="node">
<title>node1</title>
<polygon fill="white" stroke="black" points="749,-407.5 749,-528.5 1065,-528.5 1065,-407.5 749,-407.5"/>
<text text-anchor="middle" x="907" y="-513.3" font-family="Times,serif" font-size="14.00">aggregates</text>
<polyline fill="none" stroke="black" points="749,-505.5 1065,-505.5 "/>
<text text-anchor="start" x="757" y="-490.3" font-family="Times,serif" font-size="14.00">&#45; aggregate_cid text [U]</text>
<text text-anchor="start" x="757" y="-475.3" font-family="Times,serif" font-size="14.00">&#45; piece_cid text [U]</text>
<text text-anchor="start" x="757" y="-460.3" font-family="Times,serif" font-size="14.00">&#45; sha256hex text</text>
<text text-anchor="start" x="757" y="-445.3" font-family="Times,serif" font-size="14.00">&#45; payload_size bigint</text>
<text text-anchor="start" x="757" y="-430.3" font-family="Times,serif" font-size="14.00">&#45; metadata jsonb [N]</text>
<text text-anchor="start" x="757" y="-415.3" font-family="Times,serif" font-size="14.00">&#45; entry_created timestamp with time zone</text>
</g>
<!-- node7 -->
<g id="node7" class="node">
<title>node7</title>
<polygon fill="white" stroke="black" points="624.5,-204 624.5,-318 1027.5,-318 1027.5,-204 624.5,-204"/>
<text text-anchor="middle" x="826" y="-302.8" font-family="Times,serif" font-size="14.00">aggregate_entries</text>
<polyline fill="none" stroke="black" points="624.5,-295 1027.5,-295 "/>
<text text-anchor="start" x="632.5" y="-279.8" font-family="Times,serif" font-size="14.00">&#45; aggregate_cid text [FK,U]</text>
<text text-anchor="start" x="632.5" y="-264.8" font-family="Times,serif" font-size="14.00">&#45; cid_v1 text [FK,U]</text>
<text text-anchor="start" x="632.5" y="-249.8" font-family="Times,serif" font-size="14.00">&#45; datamodel_selector text [N]</text>
<polyline fill="none" stroke="black" points="624.5,-242 1027.5,-242 "/>
<text text-anchor="start" x="632.5" y="-226.8" font-family="Times,serif" font-size="14.00">* aggregate_entries_idx_aggregate_cid: aggregate_cid</text>
<text text-anchor="start" x="632.5" y="-211.8" font-family="Times,serif" font-size="14.00">* aggregate_entries_idx_cid_v1: cid_v1</text>
</g>
<!-- node1&#45;&gt;node7 -->
<g id="edge1" class="edge">
<title>node1&#45;&gt;node7</title>
<path fill="none" stroke="black" d="M883.46,-407.43C873.61,-382.48 862.11,-353.39 852,-327.81"/>
<polygon fill="black" stroke="black" points="855.14,-326.21 848.21,-318.2 848.62,-328.78 855.14,-326.21"/>
</g>
<!-- node9 -->
<g id="node9" class="node">
<title>node9</title>
<polygon fill="white" stroke="black" points="1045.5,-151.5 1045.5,-370.5 1398.5,-370.5 1398.5,-151.5 1045.5,-151.5"/>
<text text-anchor="middle" x="1222" y="-355.3" font-family="Times,serif" font-size="14.00">deals</text>
<polyline fill="none" stroke="black" points="1045.5,-347.5 1398.5,-347.5 "/>
<text text-anchor="start" x="1053.5" y="-332.3" font-family="Times,serif" font-size="14.00">&#45; deal_id bigint [U]</text>
<text text-anchor="start" x="1053.5" y="-317.3" font-family="Times,serif" font-size="14.00">&#45; aggregate_cid text [FK]</text>
<text text-anchor="start" x="1053.5" y="-302.3" font-family="Times,serif" font-size="14.00">&#45; client text [FK]</text>
<text text-anchor="start" x="1053.5" y="-287.3" font-family="Times,serif" font-size="14.00">&#45; provider text [FK]</text>
<text text-anchor="start" x="1053.5" y="-272.3" font-family="Times,serif" font-size="14.00">&#45; status text</text>
<text text-anchor="start" x="1053.5" y="-257.3" font-family="Times,serif" font-size="14.00">&#45; epoch_start integer</text>
<text text-anchor="start" x="1053.5" y="-242.3" font-family="Times,serif" font-size="14.00">&#45; epoch_end integer</text>
<text text-anchor="start" x="1053.5" y="-227.3" font-family="Times,serif" font-size="14.00">&#45; entry_created timestamp with time zone</text>
<text text-anchor="start" x="1053.5" y="-212.3" font-family="Times,serif" font-size="14.00">&#45; entry_last_updated timestamp with time zone</text>
<polyline fill="none" stroke="black" points="1045.5,-204.5 1398.5,-204.5 "/>
<text text-anchor="start" x="1053.5" y="-189.3" font-family="Times,serif" font-size="14.00">* deals_idx_aggregate_cid: aggregate_cid</text>
<text text-anchor="start" x="1053.5" y="-174.3" font-family="Times,serif" font-size="14.00">* deals_idx_client: client</text>
<text text-anchor="start" x="1053.5" y="-159.3" font-family="Times,serif" font-size="14.00">* deals_idx_provider: provider</text>
</g>
<!-- node1&#45;&gt;node9 -->
<g id="edge2" class="edge">
<title>node1&#45;&gt;node9</title>
<path fill="none" stroke="black" d="M998.53,-407.43C1013.77,-397.51 1030.01,-386.94 1046.52,-376.2"/>
<polygon fill="black" stroke="black" points="1048.7,-378.96 1055.17,-370.57 1044.88,-373.09 1048.7,-378.96"/>
</g>
<!-- node2 -->
<g id="node2" class="node">
<title>node2</title>
<polygon fill="white" stroke="black" points="1262.5,-430 1262.5,-506 1427.5,-506 1427.5,-430 1262.5,-430"/>
<text text-anchor="middle" x="1345" y="-490.8" font-family="Times,serif" font-size="14.00">clients</text>
<polyline fill="none" stroke="black" points="1262.5,-483 1427.5,-483 "/>
<text text-anchor="start" x="1270.5" y="-467.8" font-family="Times,serif" font-size="14.00">&#45; client text [U]</text>
<text text-anchor="start" x="1270.5" y="-452.8" font-family="Times,serif" font-size="14.00">&#45; filp_available bigint</text>
<text text-anchor="start" x="1270.5" y="-437.8" font-family="Times,serif" font-size="14.00">&#45; details jsonb [N]</text>
</g>
<!-- node2&#45;&gt;node9 -->
<g id="edge3" class="edge">
<title>node2&#45;&gt;node9</title>
<path fill="none" stroke="black" d="M1322.73,-429.88C1314.04,-415.4 1303.56,-397.94 1292.69,-379.82"/>
<polygon fill="black" stroke="black" points="1295.48,-377.66 1287.33,-370.88 1289.47,-381.26 1295.48,-377.66"/>
</g>
<!-- node3 -->
<g id="node3" class="node">
<title>node3</title>
<polygon fill="white" stroke="black" points="346.5,-422.5 346.5,-513.5 699.5,-513.5 699.5,-422.5 346.5,-422.5"/>
<text text-anchor="middle" x="523" y="-498.3" font-family="Times,serif" font-size="14.00">dags</text>
<polyline fill="none" stroke="black" points="346.5,-490.5 699.5,-490.5 "/>
<text text-anchor="start" x="354.5" y="-475.3" font-family="Times,serif" font-size="14.00">&#45; cid_v1 text [U]</text>
<text text-anchor="start" x="354.5" y="-460.3" font-family="Times,serif" font-size="14.00">&#45; size_actual bigint [N]</text>
<text text-anchor="start" x="354.5" y="-445.3" font-family="Times,serif" font-size="14.00">&#45; entry_created timestamp with time zone</text>
<text text-anchor="start" x="354.5" y="-430.3" font-family="Times,serif" font-size="14.00">&#45; entry_last_updated timestamp with time zone</text>
</g>
<!-- node6 -->
<g id="node6" class="node">
<title>node6</title>
<polygon fill="white" stroke="black" points="416,-219 416,-303 606,-303 606,-219 416,-219"/>
<text text-anchor="middle" x="511" y="-287.8" font-family="Times,serif" font-size="14.00">refs</text>
<polyline fill="none" stroke="black" points="416,-280 606,-280 "/>
<text text-anchor="start" x="424" y="-264.8" font-family="Times,serif" font-size="14.00">&#45; cid_v1 text [FK,U]</text>
<text text-anchor="start" x="424" y="-249.8" font-family="Times,serif" font-size="14.00">&#45; ref_v1 text [U]</text>
<polyline fill="none" stroke="black" points="416,-242 606,-242 "/>
<text text-anchor="start" x="424" y="-226.8" font-family="Times,serif" font-size="14.00">* refs_idx_cid_v1: cid_v1</text>
</g>
<!-- node3&#45;&gt;node6 -->
<g id="edge6" class="edge">
<title>node3&#45;&gt;node6</title>
<path fill="none" stroke="black" d="M520.38,-422.27C518.5,-390.13 515.96,-346.74 514,-313.22"/>
<polygon fill="black" stroke="black" points="517.49,-312.93 513.41,-303.15 510.5,-313.34 517.49,-312.93"/>
</g>
<!-- node3&#45;&gt;node7 -->
<g id="edge4" class="edge">
<title>node3&#45;&gt;node7</title>
<path fill="none" stroke="black" d="M589.12,-422.27C631.75,-393.42 687.76,-355.53 734.62,-323.82"/>
<polygon fill="black" stroke="black" points="736.64,-326.69 742.96,-318.18 732.71,-320.89 736.64,-326.69"/>
</g>
<!-- node8 -->
<g id="node8" class="node">
<title>node8</title>
<polygon fill="white" stroke="black" points="0,-181.5 0,-340.5 386,-340.5 386,-181.5 0,-181.5"/>
<text text-anchor="middle" x="193" y="-325.3" font-family="Times,serif" font-size="14.00">dag_sources</text>
<polyline fill="none" stroke="black" points="0,-317.5 386,-317.5 "/>
<text text-anchor="start" x="8" y="-302.3" font-family="Times,serif" font-size="14.00">&#45; srcid bigint [FK,U]</text>
<text text-anchor="start" x="8" y="-287.3" font-family="Times,serif" font-size="14.00">&#45; cid_v1 text [FK]</text>
<text text-anchor="start" x="8" y="-272.3" font-family="Times,serif" font-size="14.00">&#45; cid_original text [U]</text>
<text text-anchor="start" x="8" y="-257.3" font-family="Times,serif" font-size="14.00">&#45; entry_created timestamp with time zone</text>
<text text-anchor="start" x="8" y="-242.3" font-family="Times,serif" font-size="14.00">&#45; entry_removed timestamp with time zone [N]</text>
<text text-anchor="start" x="8" y="-227.3" font-family="Times,serif" font-size="14.00">&#45; entry_last_exported timestamp with time zone [N]</text>
<polyline fill="none" stroke="black" points="0,-219.5 386,-219.5 "/>
<text text-anchor="start" x="8" y="-204.3" font-family="Times,serif" font-size="14.00">* dag_sources_idx_cid_v1: cid_v1</text>
<text text-anchor="start" x="8" y="-189.3" font-family="Times,serif" font-size="14.00">* dag_sources_idx_srcid: srcid</text>
</g>
<!-- node3&#45;&gt;node8 -->
<g id="edge5" class="edge">
<title>node3&#45;&gt;node8</title>
<path fill="none" stroke="black" d="M450.99,-422.27C414.97,-399.89 370.18,-372.06 328.07,-345.91"/>
<polygon fill="black" stroke="black" points="329.75,-342.83 319.41,-340.53 326.06,-348.78 329.75,-342.83"/>
</g>
<!-- node4 -->
<g id="node4" class="node">
<title>node4</title>
<polygon fill="white" stroke="black" points="1098,-437.5 1098,-498.5 1244,-498.5 1244,-437.5 1098,-437.5"/>
<text text-anchor="middle" x="1171" y="-483.3" font-family="Times,serif" font-size="14.00">providers</text>
<polyline fill="none" stroke="black" points="1098,-475.5 1244,-475.5 "/>
<text text-anchor="start" x="1106" y="-460.3" font-family="Times,serif" font-size="14.00">&#45; provider text [U]</text>
<text text-anchor="start" x="1106" y="-445.3" font-family="Times,serif" font-size="14.00">&#45; details jsonb [N]</text>
</g>
<!-- node4&#45;&gt;node9 -->
<g id="edge8" class="edge">
<title>node4&#45;&gt;node9</title>
<path fill="none" stroke="black" d="M1178.42,-437.19C1182.26,-421.76 1187.22,-401.79 1192.42,-380.89"/>
<polygon fill="black" stroke="black" points="1195.89,-381.46 1194.91,-370.91 1189.09,-379.77 1195.89,-381.46"/>
</g>
<!-- node5 -->
<g id="node5" class="node">
<title>node5</title>
<polygon fill="white" stroke="black" points="12,-415 12,-521 328,-521 328,-415 12,-415"/>
<text text-anchor="middle" x="170" y="-505.8" font-family="Times,serif" font-size="14.00">sources</text>
<polyline fill="none" stroke="black" points="12,-498 328,-498 "/>
<text text-anchor="start" x="20" y="-482.8" font-family="Times,serif" font-size="14.00">&#45; srcid bigint [U]</text>
<text text-anchor="start" x="20" y="-467.8" font-family="Times,serif" font-size="14.00">&#45; project integer [U]</text>
<text text-anchor="start" x="20" y="-452.8" font-family="Times,serif" font-size="14.00">&#45; source text [U]</text>
<text text-anchor="start" x="20" y="-437.8" font-family="Times,serif" font-size="14.00">&#45; details jsonb [N]</text>
<text text-anchor="start" x="20" y="-422.8" font-family="Times,serif" font-size="14.00">&#45; entry_created timestamp with time zone</text>
</g>
<!-- node5&#45;&gt;node8 -->
<g id="edge9" class="edge">
<title>node5&#45;&gt;node8</title>
<path fill="none" stroke="black" d="M175.86,-414.74C178.06,-395.19 180.61,-372.41 183.07,-350.5"/>
<polygon fill="black" stroke="black" points="186.56,-350.83 184.19,-340.51 179.6,-350.05 186.56,-350.83"/>
</g>
<!-- node10 -->
<g id="node10" class="node">
<title>node10</title>
<polygon fill="white" stroke="black" points="1064,-0.5 1064,-114.5 1380,-114.5 1380,-0.5 1064,-0.5"/>
<text text-anchor="middle" x="1222" y="-99.3" font-family="Times,serif" font-size="14.00">deal_events</text>
<polyline fill="none" stroke="black" points="1064,-91.5 1380,-91.5 "/>
<text text-anchor="start" x="1072" y="-76.3" font-family="Times,serif" font-size="14.00">&#45; entry_id bigint [U]</text>
<text text-anchor="start" x="1072" y="-61.3" font-family="Times,serif" font-size="14.00">&#45; deal_id bigint [FK]</text>
<text text-anchor="start" x="1072" y="-46.3" font-family="Times,serif" font-size="14.00">&#45; status text</text>
<text text-anchor="start" x="1072" y="-31.3" font-family="Times,serif" font-size="14.00">&#45; entry_created timestamp with time zone</text>
<polyline fill="none" stroke="black" points="1064,-23.5 1380,-23.5 "/>
<text text-anchor="start" x="1072" y="-8.3" font-family="Times,serif" font-size="14.00">* deal_events_idx_deal_id: deal_id</text>
</g>
<!-- node9&#45;&gt;node10 -->
<g id="edge7" class="edge">
<title>node9&#45;&gt;node10</title>
<path fill="none" stroke="black" d="M1222,-151.29C1222,-142.3 1222,-133.4 1222,-124.87"/>
<polygon fill="black" stroke="black" points="1225.5,-124.67 1222,-114.68 1218.5,-124.68 1225.5,-124.67"/>
</g>
</g>
</svg>
