<?xml version="1.0" encoding="UTF-8" standalone="no"?>
<!DOCTYPE svg PUBLIC "-//W3C//DTD SVG 1.1//EN"
 "http://www.w3.org/Graphics/SVG/1.1/DTD/svg11.dtd">
<!-- Generated by graphviz version 2.43.0 (0)
 -->
<!-- Title: test Pages: 1 -->
<svg width="3012pt" height="716pt"
 viewBox="0.00 0.00 3012.00 716.00" xmlns="http://www.w3.org/2000/svg" xmlns:xlink="http://www.w3.org/1999/xlink">
<g id="graph0" class="graph" transform="scale(1 1) rotate(0) translate(4 712)">
<title>test</title>
<polygon fill="white" stroke="transparent" points="-4,4 -4,-712 3008,-712 3008,4 -4,4"/>
<!-- node1 -->
<g id="node1" class="node">
<title>node1</title>
<polygon fill="white" stroke="black" points="706,-496.5 706,-617.5 1022,-617.5 1022,-496.5 706,-496.5"/>
<text text-anchor="middle" x="864" y="-602.3" font-family="Times,serif" font-size="14.00">aggregates</text>
<polyline fill="none" stroke="black" points="706,-594.5 1022,-594.5 "/>
<text text-anchor="start" x="714" y="-579.3" font-family="Times,serif" font-size="14.00">&#45; aggregate_cid text [U]</text>
<text text-anchor="start" x="714" y="-564.3" font-family="Times,serif" font-size="14.00">&#45; piece_cid text [U]</text>
<text text-anchor="start" x="714" y="-549.3" font-family="Times,serif" font-size="14.00">&#45; sha256hex text</text>
<text text-anchor="start" x="714" y="-534.3" font-family="Times,serif" font-size="14.00">&#45; export_size bigint</text>
<text text-anchor="start" x="714" y="-519.3" font-family="Times,serif" font-size="14.00">&#45; metadata jsonb [N]</text>
<text text-anchor="start" x="714" y="-504.3" font-family="Times,serif" font-size="14.00">&#45; entry_created timestamp with time zone</text>
</g>
<!-- node8 -->
<g id="node8" class="node">
<title>node8</title>
<polygon fill="white" stroke="black" points="653.5,-211 653.5,-287 864.5,-287 864.5,-211 653.5,-211"/>
<text text-anchor="middle" x="759" y="-271.8" font-family="Times,serif" font-size="14.00">aggregate_entries</text>
<polyline fill="none" stroke="black" points="653.5,-264 864.5,-264 "/>
<text text-anchor="start" x="661.5" y="-248.8" font-family="Times,serif" font-size="14.00">&#45; aggregate_cid text [FK,U]</text>
<text text-anchor="start" x="661.5" y="-233.8" font-family="Times,serif" font-size="14.00">&#45; cid_v1 text [FK,U]</text>
<text text-anchor="start" x="661.5" y="-218.8" font-family="Times,serif" font-size="14.00">&#45; datamodel_selector text</text>
</g>
<!-- node1&#45;&gt;node8 -->
<g id="edge1" class="edge">
<title>node1&#45;&gt;node8</title>
<path fill="none" stroke="black" d="M843.51,-496.27C823.5,-437.98 793.48,-350.48 775.12,-296.99"/>
<polygon fill="black" stroke="black" points="778.39,-295.73 771.84,-287.41 771.77,-298.01 778.39,-295.73"/>
</g>
<!-- node10 -->
<g id="node10" class="node">
<title>node10</title>
<polygon fill="white" stroke="black" points="929,-128.5 929,-369.5 1297,-369.5 1297,-128.5 929,-128.5"/>
<text text-anchor="middle" x="1113" y="-354.3" font-family="Times,serif" font-size="14.00">deals</text>
<polyline fill="none" stroke="black" points="929,-346.5 1297,-346.5 "/>
<text text-anchor="start" x="937" y="-331.3" font-family="Times,serif" font-size="14.00">&#45; deal_id bigint [U]</text>
<text text-anchor="start" x="937" y="-316.3" font-family="Times,serif" font-size="14.00">&#45; aggregate_cid text [FK]</text>
<text text-anchor="start" x="937" y="-301.3" font-family="Times,serif" font-size="14.00">&#45; client text [FK]</text>
<text text-anchor="start" x="937" y="-286.3" font-family="Times,serif" font-size="14.00">&#45; provider text [FK]</text>
<text text-anchor="start" x="937" y="-271.3" font-family="Times,serif" font-size="14.00">&#45; status text</text>
<text text-anchor="start" x="937" y="-256.3" font-family="Times,serif" font-size="14.00">&#45; start_epoch integer</text>
<text text-anchor="start" x="937" y="-241.3" font-family="Times,serif" font-size="14.00">&#45; end_epoch integer</text>
<text text-anchor="start" x="937" y="-226.3" font-family="Times,serif" font-size="14.00">&#45; entry_created timestamp with time zone</text>
<text text-anchor="start" x="937" y="-211.3" font-family="Times,serif" font-size="14.00">&#45; entry_last_updated timestamp with time zone</text>
<text text-anchor="start" x="937" y="-196.3" font-family="Times,serif" font-size="14.00">&#45; status_meta text [N]</text>
<text text-anchor="start" x="937" y="-181.3" font-family="Times,serif" font-size="14.00">&#45; start_time timestamp with time zone</text>
<text text-anchor="start" x="937" y="-166.3" font-family="Times,serif" font-size="14.00">&#45; sector_start_epoch integer [N]</text>
<text text-anchor="start" x="937" y="-151.3" font-family="Times,serif" font-size="14.00">&#45; sector_start_time timestamp with time zone [N]</text>
<text text-anchor="start" x="937" y="-136.3" font-family="Times,serif" font-size="14.00">&#45; end_time timestamp with time zone</text>
</g>
<!-- node1&#45;&gt;node10 -->
<g id="edge2" class="edge">
<title>node1&#45;&gt;node10</title>
<path fill="none" stroke="black" d="M912.6,-496.27C940.12,-462.45 975.65,-418.79 1009.13,-377.65"/>
<polygon fill="black" stroke="black" points="1011.98,-379.7 1015.57,-369.73 1006.55,-375.28 1011.98,-379.7"/>
</g>
<!-- node2 -->
<g id="node2" class="node">
<title>node2</title>
<polygon fill="white" stroke="black" points="1204.5,-519 1204.5,-595 1369.5,-595 1369.5,-519 1204.5,-519"/>
<text text-anchor="middle" x="1287" y="-579.8" font-family="Times,serif" font-size="14.00">clients</text>
<polyline fill="none" stroke="black" points="1204.5,-572 1369.5,-572 "/>
<text text-anchor="start" x="1212.5" y="-556.8" font-family="Times,serif" font-size="14.00">&#45; client text [U]</text>
<text text-anchor="start" x="1212.5" y="-541.8" font-family="Times,serif" font-size="14.00">&#45; filp_available bigint</text>
<text text-anchor="start" x="1212.5" y="-526.8" font-family="Times,serif" font-size="14.00">&#45; details jsonb [N]</text>
</g>
<!-- node2&#45;&gt;node10 -->
<g id="edge3" class="edge">
<title>node2&#45;&gt;node10</title>
<path fill="none" stroke="black" d="M1265.84,-518.78C1245.93,-483.78 1214.95,-429.3 1186.07,-378.51"/>
<polygon fill="black" stroke="black" points="1189.07,-376.7 1181.09,-369.74 1182.99,-380.16 1189.07,-376.7"/>
</g>
<!-- node3 -->
<g id="node3" class="node">
<title>node3</title>
<polygon fill="white" stroke="black" points="1388,-526.5 1388,-587.5 1534,-587.5 1534,-526.5 1388,-526.5"/>
<text text-anchor="middle" x="1461" y="-572.3" font-family="Times,serif" font-size="14.00">dag_refcounts</text>
<polyline fill="none" stroke="black" points="1388,-564.5 1534,-564.5 "/>
<text text-anchor="start" x="1396" y="-549.3" font-family="Times,serif" font-size="14.00">&#45; cid_v1 text [U,N]</text>
<text text-anchor="start" x="1396" y="-534.3" font-family="Times,serif" font-size="14.00">&#45; cnt bigint [N]</text>
</g>
<!-- node4 -->
<g id="node4" class="node">
<title>node4</title>
<polygon fill="white" stroke="black" points="334.5,-496.5 334.5,-617.5 687.5,-617.5 687.5,-496.5 334.5,-496.5"/>
<text text-anchor="middle" x="511" y="-602.3" font-family="Times,serif" font-size="14.00">dags</text>
<polyline fill="none" stroke="black" points="334.5,-594.5 687.5,-594.5 "/>
<text text-anchor="start" x="342.5" y="-579.3" font-family="Times,serif" font-size="14.00">&#45; cid_v1 text [U]</text>
<text text-anchor="start" x="342.5" y="-564.3" font-family="Times,serif" font-size="14.00">&#45; size_actual bigint [N]</text>
<text text-anchor="start" x="342.5" y="-549.3" font-family="Times,serif" font-size="14.00">&#45; entry_created timestamp with time zone</text>
<text text-anchor="start" x="342.5" y="-534.3" font-family="Times,serif" font-size="14.00">&#45; entry_last_updated timestamp with time zone</text>
<text text-anchor="start" x="342.5" y="-519.3" font-family="Times,serif" font-size="14.00">&#45; entry_analyzed timestamp with time zone [N]</text>
<text text-anchor="start" x="342.5" y="-504.3" font-family="Times,serif" font-size="14.00">&#45; meta jsonb [N]</text>
</g>
<!-- node7 -->
<g id="node7" class="node">
<title>node7</title>
<polygon fill="white" stroke="black" points="433.5,-218.5 433.5,-279.5 588.5,-279.5 588.5,-218.5 433.5,-218.5"/>
<text text-anchor="middle" x="511" y="-264.3" font-family="Times,serif" font-size="14.00">refs</text>
<polyline fill="none" stroke="black" points="433.5,-256.5 588.5,-256.5 "/>
<text text-anchor="start" x="441.5" y="-241.3" font-family="Times,serif" font-size="14.00">&#45; cid_v1 text [FK,U]</text>
<text text-anchor="start" x="441.5" y="-226.3" font-family="Times,serif" font-size="14.00">&#45; ref_cid text [U]</text>
</g>
<!-- node4&#45;&gt;node7 -->
<g id="edge6" class="edge">
<title>node4&#45;&gt;node7</title>
<path fill="none" stroke="black" d="M511,-496.27C511,-435.42 511,-342.72 511,-290.13"/>
<polygon fill="black" stroke="black" points="514.5,-289.85 511,-279.85 507.5,-289.85 514.5,-289.85"/>
</g>
<!-- node4&#45;&gt;node8 -->
<g id="edge4" class="edge">
<title>node4&#45;&gt;node8</title>
<path fill="none" stroke="black" d="M559.41,-496.27C607.14,-437.38 679.04,-348.67 722.26,-295.34"/>
<polygon fill="black" stroke="black" points="725.1,-297.38 728.68,-287.41 719.66,-292.98 725.1,-297.38"/>
</g>
<!-- node9 -->
<g id="node9" class="node">
<title>node9</title>
<polygon fill="white" stroke="black" points="22.5,-173.5 22.5,-324.5 375.5,-324.5 375.5,-173.5 22.5,-173.5"/>
<text text-anchor="middle" x="199" y="-309.3" font-family="Times,serif" font-size="14.00">dag_sources</text>
<polyline fill="none" stroke="black" points="22.5,-301.5 375.5,-301.5 "/>
<text text-anchor="start" x="30.5" y="-286.3" font-family="Times,serif" font-size="14.00">&#45; srcid bigint [FK,U]</text>
<text text-anchor="start" x="30.5" y="-271.3" font-family="Times,serif" font-size="14.00">&#45; cid_v1 text [FK]</text>
<text text-anchor="start" x="30.5" y="-256.3" font-family="Times,serif" font-size="14.00">&#45; source_key text [U]</text>
<text text-anchor="start" x="30.5" y="-241.3" font-family="Times,serif" font-size="14.00">&#45; entry_created timestamp with time zone</text>
<text text-anchor="start" x="30.5" y="-226.3" font-family="Times,serif" font-size="14.00">&#45; entry_removed timestamp with time zone [N]</text>
<text text-anchor="start" x="30.5" y="-211.3" font-family="Times,serif" font-size="14.00">&#45; details jsonb [N]</text>
<text text-anchor="start" x="30.5" y="-196.3" font-family="Times,serif" font-size="14.00">&#45; entry_last_updated timestamp with time zone</text>
<text text-anchor="start" x="30.5" y="-181.3" font-family="Times,serif" font-size="14.00">&#45; size_claimed bigint [N]</text>
</g>
<!-- node4&#45;&gt;node9 -->
<g id="edge5" class="edge">
<title>node4&#45;&gt;node9</title>
<path fill="none" stroke="black" d="M450.1,-496.27C402.34,-449.43 335.34,-383.72 282.56,-331.96"/>
<polygon fill="black" stroke="black" points="284.8,-329.25 275.21,-324.75 279.9,-334.25 284.8,-329.25"/>
</g>
<!-- node5 -->
<g id="node5" class="node">
<title>node5</title>
<polygon fill="white" stroke="black" points="1040,-526.5 1040,-587.5 1186,-587.5 1186,-526.5 1040,-526.5"/>
<text text-anchor="middle" x="1113" y="-572.3" font-family="Times,serif" font-size="14.00">providers</text>
<polyline fill="none" stroke="black" points="1040,-564.5 1186,-564.5 "/>
<text text-anchor="start" x="1048" y="-549.3" font-family="Times,serif" font-size="14.00">&#45; provider text [U]</text>
<text text-anchor="start" x="1048" y="-534.3" font-family="Times,serif" font-size="14.00">&#45; details jsonb [N]</text>
</g>
<!-- node5&#45;&gt;node10 -->
<g id="edge8" class="edge">
<title>node5&#45;&gt;node10</title>
<path fill="none" stroke="black" d="M1113,-526.38C1113,-492.28 1113,-433.97 1113,-379.67"/>
<polygon fill="black" stroke="black" points="1116.5,-379.59 1113,-369.59 1109.5,-379.59 1116.5,-379.59"/>
</g>
<!-- node6 -->
<g id="node6" class="node">
<title>node6</title>
<polygon fill="white" stroke="black" points="0,-496.5 0,-617.5 316,-617.5 316,-496.5 0,-496.5"/>
<text text-anchor="middle" x="158" y="-602.3" font-family="Times,serif" font-size="14.00">sources</text>
<polyline fill="none" stroke="black" points="0,-594.5 316,-594.5 "/>
<text text-anchor="start" x="8" y="-579.3" font-family="Times,serif" font-size="14.00">&#45; srcid bigint [U]</text>
<text text-anchor="start" x="8" y="-564.3" font-family="Times,serif" font-size="14.00">&#45; project integer [U]</text>
<text text-anchor="start" x="8" y="-549.3" font-family="Times,serif" font-size="14.00">&#45; source_label text [U]</text>
<text text-anchor="start" x="8" y="-534.3" font-family="Times,serif" font-size="14.00">&#45; details jsonb [N]</text>
<text text-anchor="start" x="8" y="-519.3" font-family="Times,serif" font-size="14.00">&#45; entry_created timestamp with time zone</text>
<text text-anchor="start" x="8" y="-504.3" font-family="Times,serif" font-size="14.00">&#45; weight integer [N]</text>
</g>
<!-- node6&#45;&gt;node9 -->
<g id="edge9" class="edge">
<title>node6&#45;&gt;node9</title>
<path fill="none" stroke="black" d="M166,-496.27C172.16,-450.29 180.76,-386.13 187.63,-334.83"/>
<polygon fill="black" stroke="black" points="191.13,-335.13 188.98,-324.75 184.19,-334.2 191.13,-335.13"/>
</g>
<!-- node11 -->
<g id="node11" class="node">
<title>node11</title>
<polygon fill="white" stroke="black" points="955,-0.5 955,-91.5 1271,-91.5 1271,-0.5 955,-0.5"/>
<text text-anchor="middle" x="1113" y="-76.3" font-family="Times,serif" font-size="14.00">deal_events</text>
<polyline fill="none" stroke="black" points="955,-68.5 1271,-68.5 "/>
<text text-anchor="start" x="963" y="-53.3" font-family="Times,serif" font-size="14.00">&#45; entry_id bigint [U]</text>
<text text-anchor="start" x="963" y="-38.3" font-family="Times,serif" font-size="14.00">&#45; deal_id bigint [FK]</text>
<text text-anchor="start" x="963" y="-23.3" font-family="Times,serif" font-size="14.00">&#45; status text</text>
<text text-anchor="start" x="963" y="-8.3" font-family="Times,serif" font-size="14.00">&#45; entry_created timestamp with time zone</text>
</g>
<!-- node10&#45;&gt;node11 -->
<g id="edge7" class="edge">
<title>node10&#45;&gt;node11</title>
<path fill="none" stroke="black" d="M1113,-128.46C1113,-119.23 1113,-110.23 1113,-101.77"/>
<polygon fill="black" stroke="black" points="1116.5,-101.75 1113,-91.75 1109.5,-101.75 1116.5,-101.75"/>
</g>
<!-- node12 -->
<g id="node12" class="node">
<title>node12</title>
<polygon fill="white" stroke="black" points="1552.5,-481.5 1552.5,-632.5 1715.5,-632.5 1715.5,-481.5 1552.5,-481.5"/>
<text text-anchor="middle" x="1634" y="-617.3" font-family="Times,serif" font-size="14.00">aggregate_summary</text>
<polyline fill="none" stroke="black" points="1552.5,-609.5 1715.5,-609.5 "/>
<text text-anchor="start" x="1560.5" y="-594.3" font-family="Times,serif" font-size="14.00">&#45; aggregate_cid</text>
<text text-anchor="start" x="1560.5" y="-579.3" font-family="Times,serif" font-size="14.00">&#45; piece_cid</text>
<text text-anchor="start" x="1560.5" y="-564.3" font-family="Times,serif" font-size="14.00">&#45; car_size</text>
<text text-anchor="start" x="1560.5" y="-549.3" font-family="Times,serif" font-size="14.00">&#45; aggregated_at</text>
<text text-anchor="start" x="1560.5" y="-534.3" font-family="Times,serif" font-size="14.00">&#45; web2_source</text>
<text text-anchor="start" x="1560.5" y="-519.3" font-family="Times,serif" font-size="14.00">&#45; tentative_replicas</text>
<text text-anchor="start" x="1560.5" y="-504.3" font-family="Times,serif" font-size="14.00">&#45; dag_counts</text>
<text text-anchor="start" x="1560.5" y="-489.3" font-family="Times,serif" font-size="14.00">&#45; replica_counts</text>
</g>
<!-- node13 -->
<g id="node13" class="node">
<title>node13</title>
<polygon fill="white" stroke="black" points="1734,-451.5 1734,-662.5 1876,-662.5 1876,-451.5 1734,-451.5"/>
<text text-anchor="middle" x="1805" y="-647.3" font-family="Times,serif" font-size="14.00">dags_missing_list</text>
<polyline fill="none" stroke="black" points="1734,-639.5 1876,-639.5 "/>
<text text-anchor="start" x="1742" y="-624.3" font-family="Times,serif" font-size="14.00">&#45; cid_v1</text>
<text text-anchor="start" x="1742" y="-609.3" font-family="Times,serif" font-size="14.00">&#45; source_key</text>
<text text-anchor="start" x="1742" y="-594.3" font-family="Times,serif" font-size="14.00">&#45; srcid</text>
<text text-anchor="start" x="1742" y="-579.3" font-family="Times,serif" font-size="14.00">&#45; entry_created</text>
<text text-anchor="start" x="1742" y="-564.3" font-family="Times,serif" font-size="14.00">&#45; entry_removed</text>
<text text-anchor="start" x="1742" y="-549.3" font-family="Times,serif" font-size="14.00">&#45; is_tombstone</text>
<text text-anchor="start" x="1742" y="-534.3" font-family="Times,serif" font-size="14.00">&#45; is_pinned</text>
<text text-anchor="start" x="1742" y="-519.3" font-family="Times,serif" font-size="14.00">&#45; via_psa</text>
<text text-anchor="start" x="1742" y="-504.3" font-family="Times,serif" font-size="14.00">&#45; size_claimed</text>
<text text-anchor="start" x="1742" y="-489.3" font-family="Times,serif" font-size="14.00">&#45; details</text>
<text text-anchor="start" x="1742" y="-474.3" font-family="Times,serif" font-size="14.00">&#45; project</text>
<text text-anchor="start" x="1742" y="-459.3" font-family="Times,serif" font-size="14.00">&#45; weight</text>
</g>
<!-- node14 -->
<g id="node14" class="node">
<title>node14</title>
<polygon fill="white" stroke="black" points="1894,-436.5 1894,-677.5 2080,-677.5 2080,-436.5 1894,-436.5"/>
<text text-anchor="middle" x="1987" y="-662.3" font-family="Times,serif" font-size="14.00">dags_missing_summary</text>
<polyline fill="none" stroke="black" points="1894,-654.5 2080,-654.5 "/>
<text text-anchor="start" x="1902" y="-639.3" font-family="Times,serif" font-size="14.00">&#45; project</text>
<text text-anchor="start" x="1902" y="-624.3" font-family="Times,serif" font-size="14.00">&#45; srcid</text>
<text text-anchor="start" x="1902" y="-609.3" font-family="Times,serif" font-size="14.00">&#45; source_email</text>
<text text-anchor="start" x="1902" y="-594.3" font-family="Times,serif" font-size="14.00">&#45; weight</text>
<text text-anchor="start" x="1902" y="-579.3" font-family="Times,serif" font-size="14.00">&#45; oldest_missing</text>
<text text-anchor="start" x="1902" y="-564.3" font-family="Times,serif" font-size="14.00">&#45; newest_missing</text>
<text text-anchor="start" x="1902" y="-549.3" font-family="Times,serif" font-size="14.00">&#45; cnt</text>
<text text-anchor="start" x="1902" y="-534.3" font-family="Times,serif" font-size="14.00">&#45; size_claimed</text>
<text text-anchor="start" x="1902" y="-519.3" font-family="Times,serif" font-size="14.00">&#45; pct_not_pinned</text>
<text text-anchor="start" x="1902" y="-504.3" font-family="Times,serif" font-size="14.00">&#45; pct_via_psa</text>
<text text-anchor="start" x="1902" y="-489.3" font-family="Times,serif" font-size="14.00">&#45; cnt_pinned</text>
<text text-anchor="start" x="1902" y="-474.3" font-family="Times,serif" font-size="14.00">&#45; size_pinned</text>
<text text-anchor="start" x="1902" y="-459.3" font-family="Times,serif" font-size="14.00">&#45; oldest_pinned</text>
<text text-anchor="start" x="1902" y="-444.3" font-family="Times,serif" font-size="14.00">&#45; bytes_pinned</text>
</g>
<!-- node15 -->
<g id="node15" class="node">
<title>node15</title>
<polygon fill="white" stroke="black" points="2098,-406.5 2098,-707.5 2298,-707.5 2298,-406.5 2098,-406.5"/>
<text text-anchor="middle" x="2198" y="-692.3" font-family="Times,serif" font-size="14.00">source_all_time_summary</text>
<polyline fill="none" stroke="black" points="2098,-684.5 2298,-684.5 "/>
<text text-anchor="start" x="2106" y="-669.3" font-family="Times,serif" font-size="14.00">&#45; project</text>
<text text-anchor="start" x="2106" y="-654.3" font-family="Times,serif" font-size="14.00">&#45; srcid</text>
<text text-anchor="start" x="2106" y="-639.3" font-family="Times,serif" font-size="14.00">&#45; source_nick</text>
<text text-anchor="start" x="2106" y="-624.3" font-family="Times,serif" font-size="14.00">&#45; source_name</text>
<text text-anchor="start" x="2106" y="-609.3" font-family="Times,serif" font-size="14.00">&#45; source_email</text>
<text text-anchor="start" x="2106" y="-594.3" font-family="Times,serif" font-size="14.00">&#45; source_ghkey</text>
<text text-anchor="start" x="2106" y="-579.3" font-family="Times,serif" font-size="14.00">&#45; weight</text>
<text text-anchor="start" x="2106" y="-564.3" font-family="Times,serif" font-size="14.00">&#45; count_total</text>
<text text-anchor="start" x="2106" y="-549.3" font-family="Times,serif" font-size="14.00">&#45; size_total</text>
<text text-anchor="start" x="2106" y="-534.3" font-family="Times,serif" font-size="14.00">&#45; gib_total</text>
<text text-anchor="start" x="2106" y="-519.3" font-family="Times,serif" font-size="14.00">&#45; most_recent_upload</text>
<text text-anchor="start" x="2106" y="-504.3" font-family="Times,serif" font-size="14.00">&#45; count_unagg</text>
<text text-anchor="start" x="2106" y="-489.3" font-family="Times,serif" font-size="14.00">&#45; size_unagg</text>
<text text-anchor="start" x="2106" y="-474.3" font-family="Times,serif" font-size="14.00">&#45; gib_unagg</text>
<text text-anchor="start" x="2106" y="-459.3" font-family="Times,serif" font-size="14.00">&#45; oldest_unagg</text>
<text text-anchor="start" x="2106" y="-444.3" font-family="Times,serif" font-size="14.00">&#45; dags_missing</text>
<text text-anchor="start" x="2106" y="-429.3" font-family="Times,serif" font-size="14.00">&#45; oldest_missing</text>
<text text-anchor="start" x="2106" y="-414.3" font-family="Times,serif" font-size="14.00">&#45; newest_missing</text>
</g>
<!-- node16 -->
<g id="node16" class="node">
<title>node16</title>
<polygon fill="white" stroke="black" points="2316,-451.5 2316,-662.5 2532,-662.5 2532,-451.5 2316,-451.5"/>
<text text-anchor="middle" x="2424" y="-647.3" font-family="Times,serif" font-size="14.00">source_daily_ranked_count</text>
<polyline fill="none" stroke="black" points="2316,-639.5 2532,-639.5 "/>
<text text-anchor="start" x="2324" y="-624.3" font-family="Times,serif" font-size="14.00">&#45; cargo_retrieval_day</text>
<text text-anchor="start" x="2324" y="-609.3" font-family="Times,serif" font-size="14.00">&#45; project</text>
<text text-anchor="start" x="2324" y="-594.3" font-family="Times,serif" font-size="14.00">&#45; daily_rank</text>
<text text-anchor="start" x="2324" y="-579.3" font-family="Times,serif" font-size="14.00">&#45; srcid</text>
<text text-anchor="start" x="2324" y="-564.3" font-family="Times,serif" font-size="14.00">&#45; max_retrieval_lag_seconds</text>
<text text-anchor="start" x="2324" y="-549.3" font-family="Times,serif" font-size="14.00">&#45; daily_count</text>
<text text-anchor="start" x="2324" y="-534.3" font-family="Times,serif" font-size="14.00">&#45; daily_bytes</text>
<text text-anchor="start" x="2324" y="-519.3" font-family="Times,serif" font-size="14.00">&#45; source_nick</text>
<text text-anchor="start" x="2324" y="-504.3" font-family="Times,serif" font-size="14.00">&#45; source_name</text>
<text text-anchor="start" x="2324" y="-489.3" font-family="Times,serif" font-size="14.00">&#45; source_email</text>
<text text-anchor="start" x="2324" y="-474.3" font-family="Times,serif" font-size="14.00">&#45; source_ghkey</text>
<text text-anchor="start" x="2324" y="-459.3" font-family="Times,serif" font-size="14.00">&#45; weight</text>
</g>
<!-- node17 -->
<g id="node17" class="node">
<title>node17</title>
<polygon fill="white" stroke="black" points="2550,-451.5 2550,-662.5 2770,-662.5 2770,-451.5 2550,-451.5"/>
<text text-anchor="middle" x="2660" y="-647.3" font-family="Times,serif" font-size="14.00">source_daily_ranked_volume</text>
<polyline fill="none" stroke="black" points="2550,-639.5 2770,-639.5 "/>
<text text-anchor="start" x="2558" y="-624.3" font-family="Times,serif" font-size="14.00">&#45; cargo_retrieval_day</text>
<text text-anchor="start" x="2558" y="-609.3" font-family="Times,serif" font-size="14.00">&#45; project</text>
<text text-anchor="start" x="2558" y="-594.3" font-family="Times,serif" font-size="14.00">&#45; daily_rank</text>
<text text-anchor="start" x="2558" y="-579.3" font-family="Times,serif" font-size="14.00">&#45; srcid</text>
<text text-anchor="start" x="2558" y="-564.3" font-family="Times,serif" font-size="14.00">&#45; max_retrieval_lag_seconds</text>
<text text-anchor="start" x="2558" y="-549.3" font-family="Times,serif" font-size="14.00">&#45; daily_count</text>
<text text-anchor="start" x="2558" y="-534.3" font-family="Times,serif" font-size="14.00">&#45; daily_bytes</text>
<text text-anchor="start" x="2558" y="-519.3" font-family="Times,serif" font-size="14.00">&#45; source_nick</text>
<text text-anchor="start" x="2558" y="-504.3" font-family="Times,serif" font-size="14.00">&#45; source_name</text>
<text text-anchor="start" x="2558" y="-489.3" font-family="Times,serif" font-size="14.00">&#45; source_email</text>
<text text-anchor="start" x="2558" y="-474.3" font-family="Times,serif" font-size="14.00">&#45; source_ghkey</text>
<text text-anchor="start" x="2558" y="-459.3" font-family="Times,serif" font-size="14.00">&#45; weight</text>
</g>
<!-- node18 -->
<g id="node18" class="node">
<title>node18</title>
<polygon fill="white" stroke="black" points="2788,-496.5 2788,-617.5 3004,-617.5 3004,-496.5 2788,-496.5"/>
<text text-anchor="middle" x="2896" y="-602.3" font-family="Times,serif" font-size="14.00">source_daily_summary</text>
<polyline fill="none" stroke="black" points="2788,-594.5 3004,-594.5 "/>
<text text-anchor="start" x="2796" y="-579.3" font-family="Times,serif" font-size="14.00">&#45; cargo_retrieval_day</text>
<text text-anchor="start" x="2796" y="-564.3" font-family="Times,serif" font-size="14.00">&#45; srcid</text>
<text text-anchor="start" x="2796" y="-549.3" font-family="Times,serif" font-size="14.00">&#45; daily_count</text>
<text text-anchor="start" x="2796" y="-534.3" font-family="Times,serif" font-size="14.00">&#45; daily_bytes</text>
<text text-anchor="start" x="2796" y="-519.3" font-family="Times,serif" font-size="14.00">&#45; max_retrieval_lag_seconds</text>
<text text-anchor="start" x="2796" y="-504.3" font-family="Times,serif" font-size="14.00">&#45; min_retrieval_lag_seconds</text>
</g>
</g>
</svg>
