<?xml version="1.0" encoding="UTF-8" standalone="no"?>
<!DOCTYPE svg PUBLIC "-//W3C//DTD SVG 1.1//EN"
 "http://www.w3.org/Graphics/SVG/1.1/DTD/svg11.dtd">
<!-- Generated by graphviz version 2.43.0 (0)
 -->
<!-- Title: test Pages: 1 -->
<svg width="1946pt" height="581pt"
 viewBox="0.00 0.00 1946.00 581.00" xmlns="http://www.w3.org/2000/svg" xmlns:xlink="http://www.w3.org/1999/xlink">
<g id="graph0" class="graph" transform="scale(1 1) rotate(0) translate(4 577)">
<title>test</title>
<polygon fill="white" stroke="transparent" points="-4,4 -4,-577 1942,-577 1942,4 -4,4"/>
<!-- node1 -->
<g id="node1" class="node">
<title>node1</title>
<polygon fill="white" stroke="black" points="709,-391.5 709,-512.5 1025,-512.5 1025,-391.5 709,-391.5"/>
<text text-anchor="middle" x="867" y="-497.3" font-family="Times,serif" font-size="14.00">aggregates</text>
<polyline fill="none" stroke="black" points="709,-489.5 1025,-489.5 "/>
<text text-anchor="start" x="717" y="-474.3" font-family="Times,serif" font-size="14.00">&#45; aggregate_cid text [U]</text>
<text text-anchor="start" x="717" y="-459.3" font-family="Times,serif" font-size="14.00">&#45; piece_cid text [U]</text>
<text text-anchor="start" x="717" y="-444.3" font-family="Times,serif" font-size="14.00">&#45; sha256hex text</text>
<text text-anchor="start" x="717" y="-429.3" font-family="Times,serif" font-size="14.00">&#45; export_size bigint</text>
<text text-anchor="start" x="717" y="-414.3" font-family="Times,serif" font-size="14.00">&#45; metadata jsonb [N]</text>
<text text-anchor="start" x="717" y="-399.3" font-family="Times,serif" font-size="14.00">&#45; entry_created timestamp with time zone</text>
</g>
<!-- node7 -->
<g id="node7" class="node">
<title>node7</title>
<polygon fill="white" stroke="black" points="660.5,-173.5 660.5,-249.5 871.5,-249.5 871.5,-173.5 660.5,-173.5"/>
<text text-anchor="middle" x="766" y="-234.3" font-family="Times,serif" font-size="14.00">aggregate_entries</text>
<polyline fill="none" stroke="black" points="660.5,-226.5 871.5,-226.5 "/>
<text text-anchor="start" x="668.5" y="-211.3" font-family="Times,serif" font-size="14.00">&#45; aggregate_cid text [FK,U]</text>
<text text-anchor="start" x="668.5" y="-196.3" font-family="Times,serif" font-size="14.00">&#45; cid_v1 text [FK,U]</text>
<text text-anchor="start" x="668.5" y="-181.3" font-family="Times,serif" font-size="14.00">&#45; datamodel_selector text</text>
</g>
<!-- node1&#45;&gt;node7 -->
<g id="edge1" class="edge">
<title>node1&#45;&gt;node7</title>
<path fill="none" stroke="black" d="M841.77,-391.43C824.43,-350.48 801.73,-296.86 785.71,-259.04"/>
<polygon fill="black" stroke="black" points="788.91,-257.62 781.79,-249.78 782.46,-260.35 788.91,-257.62"/>
</g>
<!-- node9 -->
<g id="node9" class="node">
<title>node9</title>
<polygon fill="white" stroke="black" points="939.5,-128.5 939.5,-294.5 1292.5,-294.5 1292.5,-128.5 939.5,-128.5"/>
<text text-anchor="middle" x="1116" y="-279.3" font-family="Times,serif" font-size="14.00">deals</text>
<polyline fill="none" stroke="black" points="939.5,-271.5 1292.5,-271.5 "/>
<text text-anchor="start" x="947.5" y="-256.3" font-family="Times,serif" font-size="14.00">&#45; deal_id bigint [U]</text>
<text text-anchor="start" x="947.5" y="-241.3" font-family="Times,serif" font-size="14.00">&#45; aggregate_cid text [FK]</text>
<text text-anchor="start" x="947.5" y="-226.3" font-family="Times,serif" font-size="14.00">&#45; client text [FK]</text>
<text text-anchor="start" x="947.5" y="-211.3" font-family="Times,serif" font-size="14.00">&#45; provider text [FK]</text>
<text text-anchor="start" x="947.5" y="-196.3" font-family="Times,serif" font-size="14.00">&#45; status text</text>
<text text-anchor="start" x="947.5" y="-181.3" font-family="Times,serif" font-size="14.00">&#45; epoch_start integer</text>
<text text-anchor="start" x="947.5" y="-166.3" font-family="Times,serif" font-size="14.00">&#45; epoch_end integer</text>
<text text-anchor="start" x="947.5" y="-151.3" font-family="Times,serif" font-size="14.00">&#45; entry_created timestamp with time zone</text>
<text text-anchor="start" x="947.5" y="-136.3" font-family="Times,serif" font-size="14.00">&#45; entry_last_updated timestamp with time zone</text>
</g>
<!-- node1&#45;&gt;node9 -->
<g id="edge2" class="edge">
<title>node1&#45;&gt;node9</title>
<path fill="none" stroke="black" d="M929.19,-391.43C957.46,-364.35 991.51,-331.74 1022.75,-301.82"/>
<polygon fill="black" stroke="black" points="1025.4,-304.12 1030.2,-294.68 1020.56,-299.07 1025.4,-304.12"/>
</g>
<!-- node2 -->
<g id="node2" class="node">
<title>node2</title>
<polygon fill="white" stroke="black" points="1207.5,-414 1207.5,-490 1372.5,-490 1372.5,-414 1207.5,-414"/>
<text text-anchor="middle" x="1290" y="-474.8" font-family="Times,serif" font-size="14.00">clients</text>
<polyline fill="none" stroke="black" points="1207.5,-467 1372.5,-467 "/>
<text text-anchor="start" x="1215.5" y="-451.8" font-family="Times,serif" font-size="14.00">&#45; client text [U]</text>
<text text-anchor="start" x="1215.5" y="-436.8" font-family="Times,serif" font-size="14.00">&#45; filp_available bigint</text>
<text text-anchor="start" x="1215.5" y="-421.8" font-family="Times,serif" font-size="14.00">&#45; details jsonb [N]</text>
</g>
<!-- node2&#45;&gt;node9 -->
<g id="edge3" class="edge">
<title>node2&#45;&gt;node9</title>
<path fill="none" stroke="black" d="M1263,-414C1241.35,-384.31 1210.02,-341.37 1181.85,-302.76"/>
<polygon fill="black" stroke="black" points="1184.61,-300.6 1175.89,-294.59 1178.95,-304.73 1184.61,-300.6"/>
</g>
<!-- node3 -->
<g id="node3" class="node">
<title>node3</title>
<polygon fill="white" stroke="black" points="337.5,-406.5 337.5,-497.5 690.5,-497.5 690.5,-406.5 337.5,-406.5"/>
<text text-anchor="middle" x="514" y="-482.3" font-family="Times,serif" font-size="14.00">dags</text>
<polyline fill="none" stroke="black" points="337.5,-474.5 690.5,-474.5 "/>
<text text-anchor="start" x="345.5" y="-459.3" font-family="Times,serif" font-size="14.00">&#45; cid_v1 text [U]</text>
<text text-anchor="start" x="345.5" y="-444.3" font-family="Times,serif" font-size="14.00">&#45; size_actual bigint [N]</text>
<text text-anchor="start" x="345.5" y="-429.3" font-family="Times,serif" font-size="14.00">&#45; entry_created timestamp with time zone</text>
<text text-anchor="start" x="345.5" y="-414.3" font-family="Times,serif" font-size="14.00">&#45; entry_last_updated timestamp with time zone</text>
</g>
<!-- node6 -->
<g id="node6" class="node">
<title>node6</title>
<polygon fill="white" stroke="black" points="436.5,-181 436.5,-242 591.5,-242 591.5,-181 436.5,-181"/>
<text text-anchor="middle" x="514" y="-226.8" font-family="Times,serif" font-size="14.00">refs</text>
<polyline fill="none" stroke="black" points="436.5,-219 591.5,-219 "/>
<text text-anchor="start" x="444.5" y="-203.8" font-family="Times,serif" font-size="14.00">&#45; cid_v1 text [FK,U]</text>
<text text-anchor="start" x="444.5" y="-188.8" font-family="Times,serif" font-size="14.00">&#45; ref_v1 text [U]</text>
</g>
<!-- node3&#45;&gt;node6 -->
<g id="edge6" class="edge">
<title>node3&#45;&gt;node6</title>
<path fill="none" stroke="black" d="M514,-406.42C514,-362.17 514,-294.97 514,-252.43"/>
<polygon fill="black" stroke="black" points="517.5,-252.17 514,-242.17 510.5,-252.17 517.5,-252.17"/>
</g>
<!-- node3&#45;&gt;node7 -->
<g id="edge4" class="edge">
<title>node3&#45;&gt;node7</title>
<path fill="none" stroke="black" d="M561.1,-406.42C606.31,-363.64 674.19,-299.39 719.27,-256.73"/>
<polygon fill="black" stroke="black" points="721.72,-259.23 726.58,-249.81 716.91,-254.14 721.72,-259.23"/>
</g>
<!-- node8 -->
<g id="node8" class="node">
<title>node8</title>
<polygon fill="white" stroke="black" points="0,-136 0,-287 386,-287 386,-136 0,-136"/>
<text text-anchor="middle" x="193" y="-271.8" font-family="Times,serif" font-size="14.00">dag_sources</text>
<polyline fill="none" stroke="black" points="0,-264 386,-264 "/>
<text text-anchor="start" x="8" y="-248.8" font-family="Times,serif" font-size="14.00">&#45; srcid bigint [FK,U]</text>
<text text-anchor="start" x="8" y="-233.8" font-family="Times,serif" font-size="14.00">&#45; cid_v1 text [FK]</text>
<text text-anchor="start" x="8" y="-218.8" font-family="Times,serif" font-size="14.00">&#45; source_key text [U]</text>
<text text-anchor="start" x="8" y="-203.8" font-family="Times,serif" font-size="14.00">&#45; entry_created timestamp with time zone</text>
<text text-anchor="start" x="8" y="-188.8" font-family="Times,serif" font-size="14.00">&#45; entry_removed timestamp with time zone [N]</text>
<text text-anchor="start" x="8" y="-173.8" font-family="Times,serif" font-size="14.00">&#45; entry_last_exported timestamp with time zone [N]</text>
<text text-anchor="start" x="8" y="-158.8" font-family="Times,serif" font-size="14.00">&#45; details jsonb [N]</text>
<text text-anchor="start" x="8" y="-143.8" font-family="Times,serif" font-size="14.00">&#45; entry_last_updated timestamp with time zone</text>
</g>
<!-- node3&#45;&gt;node8 -->
<g id="edge5" class="edge">
<title>node3&#45;&gt;node8</title>
<path fill="none" stroke="black" d="M454,-406.42C411.2,-374.62 352.43,-330.96 301.5,-293.12"/>
<polygon fill="black" stroke="black" points="303.52,-290.25 293.4,-287.1 299.34,-295.87 303.52,-290.25"/>
</g>
<!-- node4 -->
<g id="node4" class="node">
<title>node4</title>
<polygon fill="white" stroke="black" points="1043,-421.5 1043,-482.5 1189,-482.5 1189,-421.5 1043,-421.5"/>
<text text-anchor="middle" x="1116" y="-467.3" font-family="Times,serif" font-size="14.00">providers</text>
<polyline fill="none" stroke="black" points="1043,-459.5 1189,-459.5 "/>
<text text-anchor="start" x="1051" y="-444.3" font-family="Times,serif" font-size="14.00">&#45; provider text [U]</text>
<text text-anchor="start" x="1051" y="-429.3" font-family="Times,serif" font-size="14.00">&#45; details jsonb [N]</text>
</g>
<!-- node4&#45;&gt;node9 -->
<g id="edge8" class="edge">
<title>node4&#45;&gt;node9</title>
<path fill="none" stroke="black" d="M1116,-421.28C1116,-392.15 1116,-346.23 1116,-304.86"/>
<polygon fill="black" stroke="black" points="1119.5,-304.73 1116,-294.73 1112.5,-304.73 1119.5,-304.73"/>
</g>
<!-- node5 -->
<g id="node5" class="node">
<title>node5</title>
<polygon fill="white" stroke="black" points="3,-391.5 3,-512.5 319,-512.5 319,-391.5 3,-391.5"/>
<text text-anchor="middle" x="161" y="-497.3" font-family="Times,serif" font-size="14.00">sources</text>
<polyline fill="none" stroke="black" points="3,-489.5 319,-489.5 "/>
<text text-anchor="start" x="11" y="-474.3" font-family="Times,serif" font-size="14.00">&#45; srcid bigint [U]</text>
<text text-anchor="start" x="11" y="-459.3" font-family="Times,serif" font-size="14.00">&#45; project integer [U]</text>
<text text-anchor="start" x="11" y="-444.3" font-family="Times,serif" font-size="14.00">&#45; source text [U]</text>
<text text-anchor="start" x="11" y="-429.3" font-family="Times,serif" font-size="14.00">&#45; details jsonb [N]</text>
<text text-anchor="start" x="11" y="-414.3" font-family="Times,serif" font-size="14.00">&#45; entry_created timestamp with time zone</text>
<text text-anchor="start" x="11" y="-399.3" font-family="Times,serif" font-size="14.00">&#45; weight integer [N]</text>
</g>
<!-- node5&#45;&gt;node8 -->
<g id="edge9" class="edge">
<title>node5&#45;&gt;node8</title>
<path fill="none" stroke="black" d="M168.99,-391.43C172.82,-362.92 177.47,-328.28 181.65,-297.1"/>
<polygon fill="black" stroke="black" points="185.13,-297.48 182.99,-287.11 178.19,-296.55 185.13,-297.48"/>
</g>
<!-- node10 -->
<g id="node10" class="node">
<title>node10</title>
<polygon fill="white" stroke="black" points="958,-0.5 958,-91.5 1274,-91.5 1274,-0.5 958,-0.5"/>
<text text-anchor="middle" x="1116" y="-76.3" font-family="Times,serif" font-size="14.00">deal_events</text>
<polyline fill="none" stroke="black" points="958,-68.5 1274,-68.5 "/>
<text text-anchor="start" x="966" y="-53.3" font-family="Times,serif" font-size="14.00">&#45; entry_id bigint [U]</text>
<text text-anchor="start" x="966" y="-38.3" font-family="Times,serif" font-size="14.00">&#45; deal_id bigint [FK]</text>
<text text-anchor="start" x="966" y="-23.3" font-family="Times,serif" font-size="14.00">&#45; status text</text>
<text text-anchor="start" x="966" y="-8.3" font-family="Times,serif" font-size="14.00">&#45; entry_created timestamp with time zone</text>
</g>
<!-- node9&#45;&gt;node10 -->
<g id="edge7" class="edge">
<title>node9&#45;&gt;node10</title>
<path fill="none" stroke="black" d="M1116,-128.27C1116,-119.34 1116,-110.41 1116,-101.92"/>
<polygon fill="black" stroke="black" points="1119.5,-101.81 1116,-91.81 1112.5,-101.81 1119.5,-101.81"/>
</g>
<!-- node11 -->
<g id="node11" class="node">
<title>node11</title>
<polygon fill="white" stroke="black" points="1390.5,-331.5 1390.5,-572.5 1573.5,-572.5 1573.5,-331.5 1390.5,-331.5"/>
<text text-anchor="middle" x="1482" y="-557.3" font-family="Times,serif" font-size="14.00">dag_sources_summary</text>
<polyline fill="none" stroke="black" points="1390.5,-549.5 1573.5,-549.5 "/>
<text text-anchor="start" x="1398.5" y="-534.3" font-family="Times,serif" font-size="14.00">&#45; project</text>
<text text-anchor="start" x="1398.5" y="-519.3" font-family="Times,serif" font-size="14.00">&#45; srcid</text>
<text text-anchor="start" x="1398.5" y="-504.3" font-family="Times,serif" font-size="14.00">&#45; source_nick</text>
<text text-anchor="start" x="1398.5" y="-489.3" font-family="Times,serif" font-size="14.00">&#45; source_name</text>
<text text-anchor="start" x="1398.5" y="-474.3" font-family="Times,serif" font-size="14.00">&#45; source_email</text>
<text text-anchor="start" x="1398.5" y="-459.3" font-family="Times,serif" font-size="14.00">&#45; weight</text>
<text text-anchor="start" x="1398.5" y="-444.3" font-family="Times,serif" font-size="14.00">&#45; count_total</text>
<text text-anchor="start" x="1398.5" y="-429.3" font-family="Times,serif" font-size="14.00">&#45; count_unaggregated</text>
<text text-anchor="start" x="1398.5" y="-414.3" font-family="Times,serif" font-size="14.00">&#45; oldest_unaggregated</text>
<text text-anchor="start" x="1398.5" y="-399.3" font-family="Times,serif" font-size="14.00">&#45; newest_unaggregated</text>
<text text-anchor="start" x="1398.5" y="-384.3" font-family="Times,serif" font-size="14.00">&#45; size_total</text>
<text text-anchor="start" x="1398.5" y="-369.3" font-family="Times,serif" font-size="14.00">&#45; gib_total</text>
<text text-anchor="start" x="1398.5" y="-354.3" font-family="Times,serif" font-size="14.00">&#45; size_unaggregated</text>
<text text-anchor="start" x="1398.5" y="-339.3" font-family="Times,serif" font-size="14.00">&#45; gib_unaggregated</text>
</g>
<!-- node12 -->
<g id="node12" class="node">
<title>node12</title>
<polygon fill="white" stroke="black" points="1592,-384 1592,-520 1734,-520 1734,-384 1592,-384"/>
<text text-anchor="middle" x="1663" y="-504.8" font-family="Times,serif" font-size="14.00">dags_missing_list</text>
<polyline fill="none" stroke="black" points="1592,-497 1734,-497 "/>
<text text-anchor="start" x="1600" y="-481.8" font-family="Times,serif" font-size="14.00">&#45; project</text>
<text text-anchor="start" x="1600" y="-466.8" font-family="Times,serif" font-size="14.00">&#45; cid_v1</text>
<text text-anchor="start" x="1600" y="-451.8" font-family="Times,serif" font-size="14.00">&#45; source_key</text>
<text text-anchor="start" x="1600" y="-436.8" font-family="Times,serif" font-size="14.00">&#45; srcid</text>
<text text-anchor="start" x="1600" y="-421.8" font-family="Times,serif" font-size="14.00">&#45; entry_created</text>
<text text-anchor="start" x="1600" y="-406.8" font-family="Times,serif" font-size="14.00">&#45; is_tombstone</text>
<text text-anchor="start" x="1600" y="-391.8" font-family="Times,serif" font-size="14.00">&#45; details</text>
</g>
<!-- node13 -->
<g id="node13" class="node">
<title>node13</title>
<polygon fill="white" stroke="black" points="1752,-354 1752,-550 1938,-550 1938,-354 1752,-354"/>
<text text-anchor="middle" x="1845" y="-534.8" font-family="Times,serif" font-size="14.00">dags_missing_summary</text>
<polyline fill="none" stroke="black" points="1752,-527 1938,-527 "/>
<text text-anchor="start" x="1760" y="-511.8" font-family="Times,serif" font-size="14.00">&#45; project</text>
<text text-anchor="start" x="1760" y="-496.8" font-family="Times,serif" font-size="14.00">&#45; srcid</text>
<text text-anchor="start" x="1760" y="-481.8" font-family="Times,serif" font-size="14.00">&#45; source_nick</text>
<text text-anchor="start" x="1760" y="-466.8" font-family="Times,serif" font-size="14.00">&#45; source_name</text>
<text text-anchor="start" x="1760" y="-451.8" font-family="Times,serif" font-size="14.00">&#45; source_email</text>
<text text-anchor="start" x="1760" y="-436.8" font-family="Times,serif" font-size="14.00">&#45; weight</text>
<text text-anchor="start" x="1760" y="-421.8" font-family="Times,serif" font-size="14.00">&#45; oldest_missing</text>
<text text-anchor="start" x="1760" y="-406.8" font-family="Times,serif" font-size="14.00">&#45; newest_missing</text>
<text text-anchor="start" x="1760" y="-391.8" font-family="Times,serif" font-size="14.00">&#45; count_missing</text>
<text text-anchor="start" x="1760" y="-376.8" font-family="Times,serif" font-size="14.00">&#45; count_total</text>
<text text-anchor="start" x="1760" y="-361.8" font-family="Times,serif" font-size="14.00">&#45; pct_missing</text>
</g>
</g>
</svg>
