<?xml version="1.0" encoding="UTF-8" standalone="no"?>
<!DOCTYPE svg PUBLIC "-//W3C//DTD SVG 1.1//EN"
 "http://www.w3.org/Graphics/SVG/1.1/DTD/svg11.dtd">
<!-- Generated by graphviz version 2.43.0 (0)
 -->
<!-- Title: test Pages: 1 -->
<svg width="2147pt" height="656pt"
 viewBox="0.00 0.00 2146.50 656.00" xmlns="http://www.w3.org/2000/svg" xmlns:xlink="http://www.w3.org/1999/xlink">
<g id="graph0" class="graph" transform="scale(1 1) rotate(0) translate(4 652)">
<title>test</title>
<polygon fill="white" stroke="transparent" points="-4,4 -4,-652 2142.5,-652 2142.5,4 -4,4"/>
<!-- node1 -->
<g id="node1" class="node">
<title>node1</title>
<polygon fill="white" stroke="black" points="709,-466.5 709,-587.5 1025,-587.5 1025,-466.5 709,-466.5"/>
<text text-anchor="middle" x="867" y="-572.3" font-family="Times,serif" font-size="14.00">aggregates</text>
<polyline fill="none" stroke="black" points="709,-564.5 1025,-564.5 "/>
<text text-anchor="start" x="717" y="-549.3" font-family="Times,serif" font-size="14.00">&#45; aggregate_cid text [U]</text>
<text text-anchor="start" x="717" y="-534.3" font-family="Times,serif" font-size="14.00">&#45; piece_cid text [U]</text>
<text text-anchor="start" x="717" y="-519.3" font-family="Times,serif" font-size="14.00">&#45; sha256hex text</text>
<text text-anchor="start" x="717" y="-504.3" font-family="Times,serif" font-size="14.00">&#45; export_size bigint</text>
<text text-anchor="start" x="717" y="-489.3" font-family="Times,serif" font-size="14.00">&#45; metadata jsonb [N]</text>
<text text-anchor="start" x="717" y="-474.3" font-family="Times,serif" font-size="14.00">&#45; entry_created timestamp with time zone</text>
</g>
<!-- node7 -->
<g id="node7" class="node">
<title>node7</title>
<polygon fill="white" stroke="black" points="656.5,-211 656.5,-287 867.5,-287 867.5,-211 656.5,-211"/>
<text text-anchor="middle" x="762" y="-271.8" font-family="Times,serif" font-size="14.00">aggregate_entries</text>
<polyline fill="none" stroke="black" points="656.5,-264 867.5,-264 "/>
<text text-anchor="start" x="664.5" y="-248.8" font-family="Times,serif" font-size="14.00">&#45; aggregate_cid text [FK,U]</text>
<text text-anchor="start" x="664.5" y="-233.8" font-family="Times,serif" font-size="14.00">&#45; cid_v1 text [FK,U]</text>
<text text-anchor="start" x="664.5" y="-218.8" font-family="Times,serif" font-size="14.00">&#45; datamodel_selector text</text>
</g>
<!-- node1&#45;&gt;node7 -->
<g id="edge1" class="edge">
<title>node1&#45;&gt;node7</title>
<path fill="none" stroke="black" d="M844.35,-466.45C824.98,-415.56 797.51,-343.35 779.72,-296.59"/>
<polygon fill="black" stroke="black" points="782.91,-295.11 776.08,-287.01 776.37,-297.6 782.91,-295.11"/>
</g>
<!-- node9 -->
<g id="node9" class="node">
<title>node9</title>
<polygon fill="white" stroke="black" points="932,-128.5 932,-369.5 1300,-369.5 1300,-128.5 932,-128.5"/>
<text text-anchor="middle" x="1116" y="-354.3" font-family="Times,serif" font-size="14.00">deals</text>
<polyline fill="none" stroke="black" points="932,-346.5 1300,-346.5 "/>
<text text-anchor="start" x="940" y="-331.3" font-family="Times,serif" font-size="14.00">&#45; deal_id bigint [U]</text>
<text text-anchor="start" x="940" y="-316.3" font-family="Times,serif" font-size="14.00">&#45; aggregate_cid text [FK]</text>
<text text-anchor="start" x="940" y="-301.3" font-family="Times,serif" font-size="14.00">&#45; client text [FK]</text>
<text text-anchor="start" x="940" y="-286.3" font-family="Times,serif" font-size="14.00">&#45; provider text [FK]</text>
<text text-anchor="start" x="940" y="-271.3" font-family="Times,serif" font-size="14.00">&#45; status text</text>
<text text-anchor="start" x="940" y="-256.3" font-family="Times,serif" font-size="14.00">&#45; start_epoch integer</text>
<text text-anchor="start" x="940" y="-241.3" font-family="Times,serif" font-size="14.00">&#45; end_epoch integer</text>
<text text-anchor="start" x="940" y="-226.3" font-family="Times,serif" font-size="14.00">&#45; entry_created timestamp with time zone</text>
<text text-anchor="start" x="940" y="-211.3" font-family="Times,serif" font-size="14.00">&#45; entry_last_updated timestamp with time zone</text>
<text text-anchor="start" x="940" y="-196.3" font-family="Times,serif" font-size="14.00">&#45; status_meta text [N]</text>
<text text-anchor="start" x="940" y="-181.3" font-family="Times,serif" font-size="14.00">&#45; start_time timestamp with time zone</text>
<text text-anchor="start" x="940" y="-166.3" font-family="Times,serif" font-size="14.00">&#45; sector_start_epoch integer [N]</text>
<text text-anchor="start" x="940" y="-151.3" font-family="Times,serif" font-size="14.00">&#45; sector_start_time timestamp with time zone [N]</text>
<text text-anchor="start" x="940" y="-136.3" font-family="Times,serif" font-size="14.00">&#45; end_time timestamp with time zone</text>
</g>
<!-- node1&#45;&gt;node9 -->
<g id="edge2" class="edge">
<title>node1&#45;&gt;node9</title>
<path fill="none" stroke="black" d="M920.72,-466.45C944.41,-440.19 973.23,-408.25 1001.36,-377.07"/>
<polygon fill="black" stroke="black" points="1004.01,-379.35 1008.11,-369.58 998.82,-374.67 1004.01,-379.35"/>
</g>
<!-- node2 -->
<g id="node2" class="node">
<title>node2</title>
<polygon fill="white" stroke="black" points="1207.5,-489 1207.5,-565 1372.5,-565 1372.5,-489 1207.5,-489"/>
<text text-anchor="middle" x="1290" y="-549.8" font-family="Times,serif" font-size="14.00">clients</text>
<polyline fill="none" stroke="black" points="1207.5,-542 1372.5,-542 "/>
<text text-anchor="start" x="1215.5" y="-526.8" font-family="Times,serif" font-size="14.00">&#45; client text [U]</text>
<text text-anchor="start" x="1215.5" y="-511.8" font-family="Times,serif" font-size="14.00">&#45; filp_available bigint</text>
<text text-anchor="start" x="1215.5" y="-496.8" font-family="Times,serif" font-size="14.00">&#45; details jsonb [N]</text>
</g>
<!-- node2&#45;&gt;node9 -->
<g id="edge3" class="edge">
<title>node2&#45;&gt;node9</title>
<path fill="none" stroke="black" d="M1266.53,-488.78C1248.43,-460.07 1222.27,-418.56 1196.81,-378.18"/>
<polygon fill="black" stroke="black" points="1199.69,-376.18 1191.39,-369.59 1193.76,-379.91 1199.69,-376.18"/>
</g>
<!-- node3 -->
<g id="node3" class="node">
<title>node3</title>
<polygon fill="white" stroke="black" points="337.5,-481.5 337.5,-572.5 690.5,-572.5 690.5,-481.5 337.5,-481.5"/>
<text text-anchor="middle" x="514" y="-557.3" font-family="Times,serif" font-size="14.00">dags</text>
<polyline fill="none" stroke="black" points="337.5,-549.5 690.5,-549.5 "/>
<text text-anchor="start" x="345.5" y="-534.3" font-family="Times,serif" font-size="14.00">&#45; cid_v1 text [U]</text>
<text text-anchor="start" x="345.5" y="-519.3" font-family="Times,serif" font-size="14.00">&#45; size_actual bigint [N]</text>
<text text-anchor="start" x="345.5" y="-504.3" font-family="Times,serif" font-size="14.00">&#45; entry_created timestamp with time zone</text>
<text text-anchor="start" x="345.5" y="-489.3" font-family="Times,serif" font-size="14.00">&#45; entry_last_updated timestamp with time zone</text>
</g>
<!-- node6 -->
<g id="node6" class="node">
<title>node6</title>
<polygon fill="white" stroke="black" points="436.5,-218.5 436.5,-279.5 591.5,-279.5 591.5,-218.5 436.5,-218.5"/>
<text text-anchor="middle" x="514" y="-264.3" font-family="Times,serif" font-size="14.00">refs</text>
<polyline fill="none" stroke="black" points="436.5,-256.5 591.5,-256.5 "/>
<text text-anchor="start" x="444.5" y="-241.3" font-family="Times,serif" font-size="14.00">&#45; cid_v1 text [FK,U]</text>
<text text-anchor="start" x="444.5" y="-226.3" font-family="Times,serif" font-size="14.00">&#45; ref_cid text [U]</text>
</g>
<!-- node3&#45;&gt;node6 -->
<g id="edge6" class="edge">
<title>node3&#45;&gt;node6</title>
<path fill="none" stroke="black" d="M514,-481.35C514,-428.36 514,-340.81 514,-289.97"/>
<polygon fill="black" stroke="black" points="517.5,-289.7 514,-279.7 510.5,-289.7 517.5,-289.7"/>
</g>
<!-- node3&#45;&gt;node7 -->
<g id="edge4" class="edge">
<title>node3&#45;&gt;node7</title>
<path fill="none" stroke="black" d="M554.12,-481.35C600.28,-429.98 675.63,-346.12 721.82,-294.72"/>
<polygon fill="black" stroke="black" points="724.61,-296.84 728.69,-287.07 719.41,-292.17 724.61,-296.84"/>
</g>
<!-- node8 -->
<g id="node8" class="node">
<title>node8</title>
<polygon fill="white" stroke="black" points="0,-173.5 0,-324.5 386,-324.5 386,-173.5 0,-173.5"/>
<text text-anchor="middle" x="193" y="-309.3" font-family="Times,serif" font-size="14.00">dag_sources</text>
<polyline fill="none" stroke="black" points="0,-301.5 386,-301.5 "/>
<text text-anchor="start" x="8" y="-286.3" font-family="Times,serif" font-size="14.00">&#45; srcid bigint [FK,U]</text>
<text text-anchor="start" x="8" y="-271.3" font-family="Times,serif" font-size="14.00">&#45; cid_v1 text [FK]</text>
<text text-anchor="start" x="8" y="-256.3" font-family="Times,serif" font-size="14.00">&#45; source_key text [U]</text>
<text text-anchor="start" x="8" y="-241.3" font-family="Times,serif" font-size="14.00">&#45; entry_created timestamp with time zone</text>
<text text-anchor="start" x="8" y="-226.3" font-family="Times,serif" font-size="14.00">&#45; entry_removed timestamp with time zone [N]</text>
<text text-anchor="start" x="8" y="-211.3" font-family="Times,serif" font-size="14.00">&#45; entry_last_exported timestamp with time zone [N]</text>
<text text-anchor="start" x="8" y="-196.3" font-family="Times,serif" font-size="14.00">&#45; details jsonb [N]</text>
<text text-anchor="start" x="8" y="-181.3" font-family="Times,serif" font-size="14.00">&#45; entry_last_updated timestamp with time zone</text>
</g>
<!-- node3&#45;&gt;node8 -->
<g id="edge5" class="edge">
<title>node3&#45;&gt;node8</title>
<path fill="none" stroke="black" d="M462.07,-481.35C415.03,-440.9 344.57,-380.32 287.55,-331.29"/>
<polygon fill="black" stroke="black" points="289.82,-328.63 279.95,-324.76 285.25,-333.94 289.82,-328.63"/>
</g>
<!-- node4 -->
<g id="node4" class="node">
<title>node4</title>
<polygon fill="white" stroke="black" points="1043,-496.5 1043,-557.5 1189,-557.5 1189,-496.5 1043,-496.5"/>
<text text-anchor="middle" x="1116" y="-542.3" font-family="Times,serif" font-size="14.00">providers</text>
<polyline fill="none" stroke="black" points="1043,-534.5 1189,-534.5 "/>
<text text-anchor="start" x="1051" y="-519.3" font-family="Times,serif" font-size="14.00">&#45; provider text [U]</text>
<text text-anchor="start" x="1051" y="-504.3" font-family="Times,serif" font-size="14.00">&#45; details jsonb [N]</text>
</g>
<!-- node4&#45;&gt;node9 -->
<g id="edge8" class="edge">
<title>node4&#45;&gt;node9</title>
<path fill="none" stroke="black" d="M1116,-496.46C1116,-468.14 1116,-423.36 1116,-379.7"/>
<polygon fill="black" stroke="black" points="1119.5,-379.52 1116,-369.52 1112.5,-379.52 1119.5,-379.52"/>
</g>
<!-- node5 -->
<g id="node5" class="node">
<title>node5</title>
<polygon fill="white" stroke="black" points="3,-466.5 3,-587.5 319,-587.5 319,-466.5 3,-466.5"/>
<text text-anchor="middle" x="161" y="-572.3" font-family="Times,serif" font-size="14.00">sources</text>
<polyline fill="none" stroke="black" points="3,-564.5 319,-564.5 "/>
<text text-anchor="start" x="11" y="-549.3" font-family="Times,serif" font-size="14.00">&#45; srcid bigint [U]</text>
<text text-anchor="start" x="11" y="-534.3" font-family="Times,serif" font-size="14.00">&#45; project integer [U]</text>
<text text-anchor="start" x="11" y="-519.3" font-family="Times,serif" font-size="14.00">&#45; source text [U]</text>
<text text-anchor="start" x="11" y="-504.3" font-family="Times,serif" font-size="14.00">&#45; details jsonb [N]</text>
<text text-anchor="start" x="11" y="-489.3" font-family="Times,serif" font-size="14.00">&#45; entry_created timestamp with time zone</text>
<text text-anchor="start" x="11" y="-474.3" font-family="Times,serif" font-size="14.00">&#45; weight integer [N]</text>
</g>
<!-- node5&#45;&gt;node8 -->
<g id="edge9" class="edge">
<title>node5&#45;&gt;node8</title>
<path fill="none" stroke="black" d="M167.9,-466.45C172.36,-428.01 178.23,-377.42 183.17,-334.81"/>
<polygon fill="black" stroke="black" points="186.66,-335.06 184.34,-324.73 179.71,-334.26 186.66,-335.06"/>
</g>
<!-- node10 -->
<g id="node10" class="node">
<title>node10</title>
<polygon fill="white" stroke="black" points="958,-0.5 958,-91.5 1274,-91.5 1274,-0.5 958,-0.5"/>
<text text-anchor="middle" x="1116" y="-76.3" font-family="Times,serif" font-size="14.00">deal_events</text>
<polyline fill="none" stroke="black" points="958,-68.5 1274,-68.5 "/>
<text text-anchor="start" x="966" y="-53.3" font-family="Times,serif" font-size="14.00">&#45; entry_id bigint [U]</text>
<text text-anchor="start" x="966" y="-38.3" font-family="Times,serif" font-size="14.00">&#45; deal_id bigint [FK]</text>
<text text-anchor="start" x="966" y="-23.3" font-family="Times,serif" font-size="14.00">&#45; status text</text>
<text text-anchor="start" x="966" y="-8.3" font-family="Times,serif" font-size="14.00">&#45; entry_created timestamp with time zone</text>
</g>
<!-- node9&#45;&gt;node10 -->
<g id="edge7" class="edge">
<title>node9&#45;&gt;node10</title>
<path fill="none" stroke="black" d="M1116,-128.46C1116,-119.23 1116,-110.23 1116,-101.77"/>
<polygon fill="black" stroke="black" points="1119.5,-101.75 1116,-91.75 1112.5,-101.75 1119.5,-101.75"/>
</g>
<!-- node11 -->
<g id="node11" class="node">
<title>node11</title>
<polygon fill="white" stroke="black" points="1390.5,-451.5 1390.5,-602.5 1553.5,-602.5 1553.5,-451.5 1390.5,-451.5"/>
<text text-anchor="middle" x="1472" y="-587.3" font-family="Times,serif" font-size="14.00">aggregate_summary</text>
<polyline fill="none" stroke="black" points="1390.5,-579.5 1553.5,-579.5 "/>
<text text-anchor="start" x="1398.5" y="-564.3" font-family="Times,serif" font-size="14.00">&#45; aggregate_cid</text>
<text text-anchor="start" x="1398.5" y="-549.3" font-family="Times,serif" font-size="14.00">&#45; piece_cid</text>
<text text-anchor="start" x="1398.5" y="-534.3" font-family="Times,serif" font-size="14.00">&#45; car_size</text>
<text text-anchor="start" x="1398.5" y="-519.3" font-family="Times,serif" font-size="14.00">&#45; aggregated_at</text>
<text text-anchor="start" x="1398.5" y="-504.3" font-family="Times,serif" font-size="14.00">&#45; web2_source</text>
<text text-anchor="start" x="1398.5" y="-489.3" font-family="Times,serif" font-size="14.00">&#45; tentative_replicas</text>
<text text-anchor="start" x="1398.5" y="-474.3" font-family="Times,serif" font-size="14.00">&#45; dag_counts</text>
<text text-anchor="start" x="1398.5" y="-459.3" font-family="Times,serif" font-size="14.00">&#45; replica_counts</text>
</g>
<!-- node12 -->
<g id="node12" class="node">
<title>node12</title>
<polygon fill="white" stroke="black" points="1572,-436.5 1572,-617.5 1714,-617.5 1714,-436.5 1572,-436.5"/>
<text text-anchor="middle" x="1643" y="-602.3" font-family="Times,serif" font-size="14.00">dags_missing_list</text>
<polyline fill="none" stroke="black" points="1572,-594.5 1714,-594.5 "/>
<text text-anchor="start" x="1580" y="-579.3" font-family="Times,serif" font-size="14.00">&#45; cid_v1</text>
<text text-anchor="start" x="1580" y="-564.3" font-family="Times,serif" font-size="14.00">&#45; source_key</text>
<text text-anchor="start" x="1580" y="-549.3" font-family="Times,serif" font-size="14.00">&#45; srcid</text>
<text text-anchor="start" x="1580" y="-534.3" font-family="Times,serif" font-size="14.00">&#45; entry_created</text>
<text text-anchor="start" x="1580" y="-519.3" font-family="Times,serif" font-size="14.00">&#45; entry_removed</text>
<text text-anchor="start" x="1580" y="-504.3" font-family="Times,serif" font-size="14.00">&#45; is_tombstone</text>
<text text-anchor="start" x="1580" y="-489.3" font-family="Times,serif" font-size="14.00">&#45; cluster_pin_lag</text>
<text text-anchor="start" x="1580" y="-474.3" font-family="Times,serif" font-size="14.00">&#45; details</text>
<text text-anchor="start" x="1580" y="-459.3" font-family="Times,serif" font-size="14.00">&#45; project</text>
<text text-anchor="start" x="1580" y="-444.3" font-family="Times,serif" font-size="14.00">&#45; weight</text>
</g>
<!-- node13 -->
<g id="node13" class="node">
<title>node13</title>
<polygon fill="white" stroke="black" points="1732,-436.5 1732,-617.5 1918,-617.5 1918,-436.5 1732,-436.5"/>
<text text-anchor="middle" x="1825" y="-602.3" font-family="Times,serif" font-size="14.00">dags_missing_summary</text>
<polyline fill="none" stroke="black" points="1732,-594.5 1918,-594.5 "/>
<text text-anchor="start" x="1740" y="-579.3" font-family="Times,serif" font-size="14.00">&#45; project</text>
<text text-anchor="start" x="1740" y="-564.3" font-family="Times,serif" font-size="14.00">&#45; srcid</text>
<text text-anchor="start" x="1740" y="-549.3" font-family="Times,serif" font-size="14.00">&#45; source_nick</text>
<text text-anchor="start" x="1740" y="-534.3" font-family="Times,serif" font-size="14.00">&#45; source_name</text>
<text text-anchor="start" x="1740" y="-519.3" font-family="Times,serif" font-size="14.00">&#45; source_email</text>
<text text-anchor="start" x="1740" y="-504.3" font-family="Times,serif" font-size="14.00">&#45; weight</text>
<text text-anchor="start" x="1740" y="-489.3" font-family="Times,serif" font-size="14.00">&#45; dags_missing</text>
<text text-anchor="start" x="1740" y="-474.3" font-family="Times,serif" font-size="14.00">&#45; oldest_missing</text>
<text text-anchor="start" x="1740" y="-459.3" font-family="Times,serif" font-size="14.00">&#45; newest_missing</text>
<text text-anchor="start" x="1740" y="-444.3" font-family="Times,serif" font-size="14.00">&#45; pct_not_pinned</text>
</g>
<!-- node14 -->
<g id="node14" class="node">
<title>node14</title>
<polygon fill="white" stroke="black" points="1935.5,-406.5 1935.5,-647.5 2138.5,-647.5 2138.5,-406.5 1935.5,-406.5"/>
<text text-anchor="middle" x="2037" y="-632.3" font-family="Times,serif" font-size="14.00">dags_processed_summary</text>
<polyline fill="none" stroke="black" points="1935.5,-624.5 2138.5,-624.5 "/>
<text text-anchor="start" x="1943.5" y="-609.3" font-family="Times,serif" font-size="14.00">&#45; project</text>
<text text-anchor="start" x="1943.5" y="-594.3" font-family="Times,serif" font-size="14.00">&#45; srcid</text>
<text text-anchor="start" x="1943.5" y="-579.3" font-family="Times,serif" font-size="14.00">&#45; source_nick</text>
<text text-anchor="start" x="1943.5" y="-564.3" font-family="Times,serif" font-size="14.00">&#45; source_name</text>
<text text-anchor="start" x="1943.5" y="-549.3" font-family="Times,serif" font-size="14.00">&#45; source_email</text>
<text text-anchor="start" x="1943.5" y="-534.3" font-family="Times,serif" font-size="14.00">&#45; weight</text>
<text text-anchor="start" x="1943.5" y="-519.3" font-family="Times,serif" font-size="14.00">&#45; count_total</text>
<text text-anchor="start" x="1943.5" y="-504.3" font-family="Times,serif" font-size="14.00">&#45; size_total</text>
<text text-anchor="start" x="1943.5" y="-489.3" font-family="Times,serif" font-size="14.00">&#45; gib_total</text>
<text text-anchor="start" x="1943.5" y="-474.3" font-family="Times,serif" font-size="14.00">&#45; most_recent_upload</text>
<text text-anchor="start" x="1943.5" y="-459.3" font-family="Times,serif" font-size="14.00">&#45; count_unagg</text>
<text text-anchor="start" x="1943.5" y="-444.3" font-family="Times,serif" font-size="14.00">&#45; size_unagg</text>
<text text-anchor="start" x="1943.5" y="-429.3" font-family="Times,serif" font-size="14.00">&#45; gib_unagg</text>
<text text-anchor="start" x="1943.5" y="-414.3" font-family="Times,serif" font-size="14.00">&#45; oldest_unagg</text>
</g>
</g>
</svg>
