<?xml version="1.0" encoding="UTF-8" standalone="no"?>
<!DOCTYPE svg PUBLIC "-//W3C//DTD SVG 1.1//EN"
 "http://www.w3.org/Graphics/SVG/1.1/DTD/svg11.dtd">
<!-- Generated by graphviz version 2.43.0 (0)
 -->
<!-- Title: test Pages: 1 -->
<svg width="2147pt" height="716pt"
 viewBox="0.00 0.00 2146.50 716.00" xmlns="http://www.w3.org/2000/svg" xmlns:xlink="http://www.w3.org/1999/xlink">
<g id="graph0" class="graph" transform="scale(1 1) rotate(0) translate(4 712)">
<title>test</title>
<polygon fill="white" stroke="transparent" points="-4,4 -4,-712 2142.5,-712 2142.5,4 -4,4"/>
<!-- node1 -->
<g id="node1" class="node">
<title>node1</title>
<polygon fill="white" stroke="black" points="709,-496.5 709,-617.5 1025,-617.5 1025,-496.5 709,-496.5"/>
<text text-anchor="middle" x="867" y="-602.3" font-family="Times,serif" font-size="14.00">aggregates</text>
<polyline fill="none" stroke="black" points="709,-594.5 1025,-594.5 "/>
<text text-anchor="start" x="717" y="-579.3" font-family="Times,serif" font-size="14.00">&#45; aggregate_cid text [U]</text>
<text text-anchor="start" x="717" y="-564.3" font-family="Times,serif" font-size="14.00">&#45; piece_cid text [U]</text>
<text text-anchor="start" x="717" y="-549.3" font-family="Times,serif" font-size="14.00">&#45; sha256hex text</text>
<text text-anchor="start" x="717" y="-534.3" font-family="Times,serif" font-size="14.00">&#45; export_size bigint</text>
<text text-anchor="start" x="717" y="-519.3" font-family="Times,serif" font-size="14.00">&#45; metadata jsonb [N]</text>
<text text-anchor="start" x="717" y="-504.3" font-family="Times,serif" font-size="14.00">&#45; entry_created timestamp with time zone</text>
</g>
<!-- node7 -->
<g id="node7" class="node">
<title>node7</title>
<polygon fill="white" stroke="black" points="656.5,-211 656.5,-287 867.5,-287 867.5,-211 656.5,-211"/>
<text text-anchor="middle" x="762" y="-271.8" font-family="Times,serif" font-size="14.00">aggregate_entries</text>
<polyline fill="none" stroke="black" points="656.5,-264 867.5,-264 "/>
<text text-anchor="start" x="664.5" y="-248.8" font-family="Times,serif" font-size="14.00">&#45; aggregate_cid text [FK,U]</text>
<text text-anchor="start" x="664.5" y="-233.8" font-family="Times,serif" font-size="14.00">&#45; cid_v1 text [FK,U]</text>
<text text-anchor="start" x="664.5" y="-218.8" font-family="Times,serif" font-size="14.00">&#45; datamodel_selector text</text>
</g>
<!-- node1&#45;&gt;node7 -->
<g id="edge1" class="edge">
<title>node1&#45;&gt;node7</title>
<path fill="none" stroke="black" d="M846.51,-496.27C826.5,-437.98 796.48,-350.48 778.12,-296.99"/>
<polygon fill="black" stroke="black" points="781.39,-295.73 774.84,-287.41 774.77,-298.01 781.39,-295.73"/>
</g>
<!-- node9 -->
<g id="node9" class="node">
<title>node9</title>
<polygon fill="white" stroke="black" points="932,-128.5 932,-369.5 1300,-369.5 1300,-128.5 932,-128.5"/>
<text text-anchor="middle" x="1116" y="-354.3" font-family="Times,serif" font-size="14.00">deals</text>
<polyline fill="none" stroke="black" points="932,-346.5 1300,-346.5 "/>
<text text-anchor="start" x="940" y="-331.3" font-family="Times,serif" font-size="14.00">&#45; deal_id bigint [U]</text>
<text text-anchor="start" x="940" y="-316.3" font-family="Times,serif" font-size="14.00">&#45; aggregate_cid text [FK]</text>
<text text-anchor="start" x="940" y="-301.3" font-family="Times,serif" font-size="14.00">&#45; client text [FK]</text>
<text text-anchor="start" x="940" y="-286.3" font-family="Times,serif" font-size="14.00">&#45; provider text [FK]</text>
<text text-anchor="start" x="940" y="-271.3" font-family="Times,serif" font-size="14.00">&#45; status text</text>
<text text-anchor="start" x="940" y="-256.3" font-family="Times,serif" font-size="14.00">&#45; start_epoch integer</text>
<text text-anchor="start" x="940" y="-241.3" font-family="Times,serif" font-size="14.00">&#45; end_epoch integer</text>
<text text-anchor="start" x="940" y="-226.3" font-family="Times,serif" font-size="14.00">&#45; entry_created timestamp with time zone</text>
<text text-anchor="start" x="940" y="-211.3" font-family="Times,serif" font-size="14.00">&#45; entry_last_updated timestamp with time zone</text>
<text text-anchor="start" x="940" y="-196.3" font-family="Times,serif" font-size="14.00">&#45; status_meta text [N]</text>
<text text-anchor="start" x="940" y="-181.3" font-family="Times,serif" font-size="14.00">&#45; start_time timestamp with time zone</text>
<text text-anchor="start" x="940" y="-166.3" font-family="Times,serif" font-size="14.00">&#45; sector_start_epoch integer [N]</text>
<text text-anchor="start" x="940" y="-151.3" font-family="Times,serif" font-size="14.00">&#45; sector_start_time timestamp with time zone [N]</text>
<text text-anchor="start" x="940" y="-136.3" font-family="Times,serif" font-size="14.00">&#45; end_time timestamp with time zone</text>
</g>
<!-- node1&#45;&gt;node9 -->
<g id="edge2" class="edge">
<title>node1&#45;&gt;node9</title>
<path fill="none" stroke="black" d="M915.6,-496.27C943.12,-462.45 978.65,-418.79 1012.13,-377.65"/>
<polygon fill="black" stroke="black" points="1014.98,-379.7 1018.57,-369.73 1009.55,-375.28 1014.98,-379.7"/>
</g>
<!-- node2 -->
<g id="node2" class="node">
<title>node2</title>
<polygon fill="white" stroke="black" points="1207.5,-519 1207.5,-595 1372.5,-595 1372.5,-519 1207.5,-519"/>
<text text-anchor="middle" x="1290" y="-579.8" font-family="Times,serif" font-size="14.00">clients</text>
<polyline fill="none" stroke="black" points="1207.5,-572 1372.5,-572 "/>
<text text-anchor="start" x="1215.5" y="-556.8" font-family="Times,serif" font-size="14.00">&#45; client text [U]</text>
<text text-anchor="start" x="1215.5" y="-541.8" font-family="Times,serif" font-size="14.00">&#45; filp_available bigint</text>
<text text-anchor="start" x="1215.5" y="-526.8" font-family="Times,serif" font-size="14.00">&#45; details jsonb [N]</text>
</g>
<!-- node2&#45;&gt;node9 -->
<g id="edge3" class="edge">
<title>node2&#45;&gt;node9</title>
<path fill="none" stroke="black" d="M1268.84,-518.78C1248.93,-483.78 1217.95,-429.3 1189.07,-378.51"/>
<polygon fill="black" stroke="black" points="1192.07,-376.7 1184.09,-369.74 1185.99,-380.16 1192.07,-376.7"/>
</g>
<!-- node3 -->
<g id="node3" class="node">
<title>node3</title>
<polygon fill="white" stroke="black" points="337.5,-511.5 337.5,-602.5 690.5,-602.5 690.5,-511.5 337.5,-511.5"/>
<text text-anchor="middle" x="514" y="-587.3" font-family="Times,serif" font-size="14.00">dags</text>
<polyline fill="none" stroke="black" points="337.5,-579.5 690.5,-579.5 "/>
<text text-anchor="start" x="345.5" y="-564.3" font-family="Times,serif" font-size="14.00">&#45; cid_v1 text [U]</text>
<text text-anchor="start" x="345.5" y="-549.3" font-family="Times,serif" font-size="14.00">&#45; size_actual bigint [N]</text>
<text text-anchor="start" x="345.5" y="-534.3" font-family="Times,serif" font-size="14.00">&#45; entry_created timestamp with time zone</text>
<text text-anchor="start" x="345.5" y="-519.3" font-family="Times,serif" font-size="14.00">&#45; entry_last_updated timestamp with time zone</text>
</g>
<!-- node6 -->
<g id="node6" class="node">
<title>node6</title>
<polygon fill="white" stroke="black" points="436.5,-218.5 436.5,-279.5 591.5,-279.5 591.5,-218.5 436.5,-218.5"/>
<text text-anchor="middle" x="514" y="-264.3" font-family="Times,serif" font-size="14.00">refs</text>
<polyline fill="none" stroke="black" points="436.5,-256.5 591.5,-256.5 "/>
<text text-anchor="start" x="444.5" y="-241.3" font-family="Times,serif" font-size="14.00">&#45; cid_v1 text [FK,U]</text>
<text text-anchor="start" x="444.5" y="-226.3" font-family="Times,serif" font-size="14.00">&#45; ref_cid text [U]</text>
</g>
<!-- node3&#45;&gt;node6 -->
<g id="edge6" class="edge">
<title>node3&#45;&gt;node6</title>
<path fill="none" stroke="black" d="M514,-511.18C514,-451.48 514,-346.79 514,-289.77"/>
<polygon fill="black" stroke="black" points="517.5,-289.7 514,-279.7 510.5,-289.7 517.5,-289.7"/>
</g>
<!-- node3&#45;&gt;node7 -->
<g id="edge4" class="edge">
<title>node3&#45;&gt;node7</title>
<path fill="none" stroke="black" d="M550.33,-511.18C597.23,-453.31 678.39,-353.16 725.42,-295.14"/>
<polygon fill="black" stroke="black" points="728.24,-297.21 731.82,-287.24 722.8,-292.81 728.24,-297.21"/>
</g>
<!-- node8 -->
<g id="node8" class="node">
<title>node8</title>
<polygon fill="white" stroke="black" points="0,-173.5 0,-324.5 386,-324.5 386,-173.5 0,-173.5"/>
<text text-anchor="middle" x="193" y="-309.3" font-family="Times,serif" font-size="14.00">dag_sources</text>
<polyline fill="none" stroke="black" points="0,-301.5 386,-301.5 "/>
<text text-anchor="start" x="8" y="-286.3" font-family="Times,serif" font-size="14.00">&#45; srcid bigint [FK,U]</text>
<text text-anchor="start" x="8" y="-271.3" font-family="Times,serif" font-size="14.00">&#45; cid_v1 text [FK]</text>
<text text-anchor="start" x="8" y="-256.3" font-family="Times,serif" font-size="14.00">&#45; source_key text [U]</text>
<text text-anchor="start" x="8" y="-241.3" font-family="Times,serif" font-size="14.00">&#45; entry_created timestamp with time zone</text>
<text text-anchor="start" x="8" y="-226.3" font-family="Times,serif" font-size="14.00">&#45; entry_removed timestamp with time zone [N]</text>
<text text-anchor="start" x="8" y="-211.3" font-family="Times,serif" font-size="14.00">&#45; entry_last_exported timestamp with time zone [N]</text>
<text text-anchor="start" x="8" y="-196.3" font-family="Times,serif" font-size="14.00">&#45; details jsonb [N]</text>
<text text-anchor="start" x="8" y="-181.3" font-family="Times,serif" font-size="14.00">&#45; entry_last_updated timestamp with time zone</text>
</g>
<!-- node3&#45;&gt;node8 -->
<g id="edge5" class="edge">
<title>node3&#45;&gt;node8</title>
<path fill="none" stroke="black" d="M466.98,-511.18C417.61,-464.12 338.93,-389.11 278.52,-331.52"/>
<polygon fill="black" stroke="black" points="280.9,-328.95 271.24,-324.59 276.07,-334.02 280.9,-328.95"/>
</g>
<!-- node4 -->
<g id="node4" class="node">
<title>node4</title>
<polygon fill="white" stroke="black" points="1043,-526.5 1043,-587.5 1189,-587.5 1189,-526.5 1043,-526.5"/>
<text text-anchor="middle" x="1116" y="-572.3" font-family="Times,serif" font-size="14.00">providers</text>
<polyline fill="none" stroke="black" points="1043,-564.5 1189,-564.5 "/>
<text text-anchor="start" x="1051" y="-549.3" font-family="Times,serif" font-size="14.00">&#45; provider text [U]</text>
<text text-anchor="start" x="1051" y="-534.3" font-family="Times,serif" font-size="14.00">&#45; details jsonb [N]</text>
</g>
<!-- node4&#45;&gt;node9 -->
<g id="edge8" class="edge">
<title>node4&#45;&gt;node9</title>
<path fill="none" stroke="black" d="M1116,-526.38C1116,-492.28 1116,-433.97 1116,-379.67"/>
<polygon fill="black" stroke="black" points="1119.5,-379.59 1116,-369.59 1112.5,-379.59 1119.5,-379.59"/>
</g>
<!-- node5 -->
<g id="node5" class="node">
<title>node5</title>
<polygon fill="white" stroke="black" points="3,-496.5 3,-617.5 319,-617.5 319,-496.5 3,-496.5"/>
<text text-anchor="middle" x="161" y="-602.3" font-family="Times,serif" font-size="14.00">sources</text>
<polyline fill="none" stroke="black" points="3,-594.5 319,-594.5 "/>
<text text-anchor="start" x="11" y="-579.3" font-family="Times,serif" font-size="14.00">&#45; srcid bigint [U]</text>
<text text-anchor="start" x="11" y="-564.3" font-family="Times,serif" font-size="14.00">&#45; project integer [U]</text>
<text text-anchor="start" x="11" y="-549.3" font-family="Times,serif" font-size="14.00">&#45; source text [U]</text>
<text text-anchor="start" x="11" y="-534.3" font-family="Times,serif" font-size="14.00">&#45; details jsonb [N]</text>
<text text-anchor="start" x="11" y="-519.3" font-family="Times,serif" font-size="14.00">&#45; entry_created timestamp with time zone</text>
<text text-anchor="start" x="11" y="-504.3" font-family="Times,serif" font-size="14.00">&#45; weight integer [N]</text>
</g>
<!-- node5&#45;&gt;node8 -->
<g id="edge9" class="edge">
<title>node5&#45;&gt;node8</title>
<path fill="none" stroke="black" d="M167.25,-496.27C172.05,-450.29 178.76,-386.13 184.13,-334.83"/>
<polygon fill="black" stroke="black" points="187.62,-335.06 185.18,-324.75 180.66,-334.33 187.62,-335.06"/>
</g>
<!-- node10 -->
<g id="node10" class="node">
<title>node10</title>
<polygon fill="white" stroke="black" points="958,-0.5 958,-91.5 1274,-91.5 1274,-0.5 958,-0.5"/>
<text text-anchor="middle" x="1116" y="-76.3" font-family="Times,serif" font-size="14.00">deal_events</text>
<polyline fill="none" stroke="black" points="958,-68.5 1274,-68.5 "/>
<text text-anchor="start" x="966" y="-53.3" font-family="Times,serif" font-size="14.00">&#45; entry_id bigint [U]</text>
<text text-anchor="start" x="966" y="-38.3" font-family="Times,serif" font-size="14.00">&#45; deal_id bigint [FK]</text>
<text text-anchor="start" x="966" y="-23.3" font-family="Times,serif" font-size="14.00">&#45; status text</text>
<text text-anchor="start" x="966" y="-8.3" font-family="Times,serif" font-size="14.00">&#45; entry_created timestamp with time zone</text>
</g>
<!-- node9&#45;&gt;node10 -->
<g id="edge7" class="edge">
<title>node9&#45;&gt;node10</title>
<path fill="none" stroke="black" d="M1116,-128.46C1116,-119.23 1116,-110.23 1116,-101.77"/>
<polygon fill="black" stroke="black" points="1119.5,-101.75 1116,-91.75 1112.5,-101.75 1119.5,-101.75"/>
</g>
<!-- node11 -->
<g id="node11" class="node">
<title>node11</title>
<polygon fill="white" stroke="black" points="1390.5,-481.5 1390.5,-632.5 1553.5,-632.5 1553.5,-481.5 1390.5,-481.5"/>
<text text-anchor="middle" x="1472" y="-617.3" font-family="Times,serif" font-size="14.00">aggregate_summary</text>
<polyline fill="none" stroke="black" points="1390.5,-609.5 1553.5,-609.5 "/>
<text text-anchor="start" x="1398.5" y="-594.3" font-family="Times,serif" font-size="14.00">&#45; aggregate_cid</text>
<text text-anchor="start" x="1398.5" y="-579.3" font-family="Times,serif" font-size="14.00">&#45; piece_cid</text>
<text text-anchor="start" x="1398.5" y="-564.3" font-family="Times,serif" font-size="14.00">&#45; car_size</text>
<text text-anchor="start" x="1398.5" y="-549.3" font-family="Times,serif" font-size="14.00">&#45; aggregated_at</text>
<text text-anchor="start" x="1398.5" y="-534.3" font-family="Times,serif" font-size="14.00">&#45; web2_source</text>
<text text-anchor="start" x="1398.5" y="-519.3" font-family="Times,serif" font-size="14.00">&#45; tentative_replicas</text>
<text text-anchor="start" x="1398.5" y="-504.3" font-family="Times,serif" font-size="14.00">&#45; dag_counts</text>
<text text-anchor="start" x="1398.5" y="-489.3" font-family="Times,serif" font-size="14.00">&#45; replica_counts</text>
</g>
<!-- node12 -->
<g id="node12" class="node">
<title>node12</title>
<polygon fill="white" stroke="black" points="1572,-466.5 1572,-647.5 1714,-647.5 1714,-466.5 1572,-466.5"/>
<text text-anchor="middle" x="1643" y="-632.3" font-family="Times,serif" font-size="14.00">dags_missing_list</text>
<polyline fill="none" stroke="black" points="1572,-624.5 1714,-624.5 "/>
<text text-anchor="start" x="1580" y="-609.3" font-family="Times,serif" font-size="14.00">&#45; cid_v1</text>
<text text-anchor="start" x="1580" y="-594.3" font-family="Times,serif" font-size="14.00">&#45; source_key</text>
<text text-anchor="start" x="1580" y="-579.3" font-family="Times,serif" font-size="14.00">&#45; srcid</text>
<text text-anchor="start" x="1580" y="-564.3" font-family="Times,serif" font-size="14.00">&#45; entry_created</text>
<text text-anchor="start" x="1580" y="-549.3" font-family="Times,serif" font-size="14.00">&#45; entry_removed</text>
<text text-anchor="start" x="1580" y="-534.3" font-family="Times,serif" font-size="14.00">&#45; is_tombstone</text>
<text text-anchor="start" x="1580" y="-519.3" font-family="Times,serif" font-size="14.00">&#45; cluster_pin_lag</text>
<text text-anchor="start" x="1580" y="-504.3" font-family="Times,serif" font-size="14.00">&#45; details</text>
<text text-anchor="start" x="1580" y="-489.3" font-family="Times,serif" font-size="14.00">&#45; project</text>
<text text-anchor="start" x="1580" y="-474.3" font-family="Times,serif" font-size="14.00">&#45; weight</text>
</g>
<!-- node13 -->
<g id="node13" class="node">
<title>node13</title>
<polygon fill="white" stroke="black" points="1732,-459 1732,-655 1918,-655 1918,-459 1732,-459"/>
<text text-anchor="middle" x="1825" y="-639.8" font-family="Times,serif" font-size="14.00">dags_missing_summary</text>
<polyline fill="none" stroke="black" points="1732,-632 1918,-632 "/>
<text text-anchor="start" x="1740" y="-616.8" font-family="Times,serif" font-size="14.00">&#45; project</text>
<text text-anchor="start" x="1740" y="-601.8" font-family="Times,serif" font-size="14.00">&#45; srcid</text>
<text text-anchor="start" x="1740" y="-586.8" font-family="Times,serif" font-size="14.00">&#45; source_nick</text>
<text text-anchor="start" x="1740" y="-571.8" font-family="Times,serif" font-size="14.00">&#45; source_name</text>
<text text-anchor="start" x="1740" y="-556.8" font-family="Times,serif" font-size="14.00">&#45; source_email</text>
<text text-anchor="start" x="1740" y="-541.8" font-family="Times,serif" font-size="14.00">&#45; source_ghkey</text>
<text text-anchor="start" x="1740" y="-526.8" font-family="Times,serif" font-size="14.00">&#45; weight</text>
<text text-anchor="start" x="1740" y="-511.8" font-family="Times,serif" font-size="14.00">&#45; dags_missing</text>
<text text-anchor="start" x="1740" y="-496.8" font-family="Times,serif" font-size="14.00">&#45; oldest_missing</text>
<text text-anchor="start" x="1740" y="-481.8" font-family="Times,serif" font-size="14.00">&#45; newest_missing</text>
<text text-anchor="start" x="1740" y="-466.8" font-family="Times,serif" font-size="14.00">&#45; pct_not_pinned</text>
</g>
<!-- node14 -->
<g id="node14" class="node">
<title>node14</title>
<polygon fill="white" stroke="black" points="1935.5,-406.5 1935.5,-707.5 2138.5,-707.5 2138.5,-406.5 1935.5,-406.5"/>
<text text-anchor="middle" x="2037" y="-692.3" font-family="Times,serif" font-size="14.00">dags_processed_summary</text>
<polyline fill="none" stroke="black" points="1935.5,-684.5 2138.5,-684.5 "/>
<text text-anchor="start" x="1943.5" y="-669.3" font-family="Times,serif" font-size="14.00">&#45; project</text>
<text text-anchor="start" x="1943.5" y="-654.3" font-family="Times,serif" font-size="14.00">&#45; srcid</text>
<text text-anchor="start" x="1943.5" y="-639.3" font-family="Times,serif" font-size="14.00">&#45; source_nick</text>
<text text-anchor="start" x="1943.5" y="-624.3" font-family="Times,serif" font-size="14.00">&#45; source_name</text>
<text text-anchor="start" x="1943.5" y="-609.3" font-family="Times,serif" font-size="14.00">&#45; source_email</text>
<text text-anchor="start" x="1943.5" y="-594.3" font-family="Times,serif" font-size="14.00">&#45; source_ghkey</text>
<text text-anchor="start" x="1943.5" y="-579.3" font-family="Times,serif" font-size="14.00">&#45; weight</text>
<text text-anchor="start" x="1943.5" y="-564.3" font-family="Times,serif" font-size="14.00">&#45; count_total</text>
<text text-anchor="start" x="1943.5" y="-549.3" font-family="Times,serif" font-size="14.00">&#45; size_total</text>
<text text-anchor="start" x="1943.5" y="-534.3" font-family="Times,serif" font-size="14.00">&#45; gib_total</text>
<text text-anchor="start" x="1943.5" y="-519.3" font-family="Times,serif" font-size="14.00">&#45; most_recent_upload</text>
<text text-anchor="start" x="1943.5" y="-504.3" font-family="Times,serif" font-size="14.00">&#45; count_unagg</text>
<text text-anchor="start" x="1943.5" y="-489.3" font-family="Times,serif" font-size="14.00">&#45; size_unagg</text>
<text text-anchor="start" x="1943.5" y="-474.3" font-family="Times,serif" font-size="14.00">&#45; gib_unagg</text>
<text text-anchor="start" x="1943.5" y="-459.3" font-family="Times,serif" font-size="14.00">&#45; oldest_unagg</text>
<text text-anchor="start" x="1943.5" y="-444.3" font-family="Times,serif" font-size="14.00">&#45; dags_missing</text>
<text text-anchor="start" x="1943.5" y="-429.3" font-family="Times,serif" font-size="14.00">&#45; oldest_missing</text>
<text text-anchor="start" x="1943.5" y="-414.3" font-family="Times,serif" font-size="14.00">&#45; newest_missing</text>
</g>
</g>
</svg>
