<?xml version="1.0" encoding="UTF-8" standalone="no"?>
<!DOCTYPE svg PUBLIC "-//W3C//DTD SVG 1.1//EN"
 "http://www.w3.org/Graphics/SVG/1.1/DTD/svg11.dtd">
<!-- Generated by graphviz version 2.43.0 (0)
 -->
<!-- Title: test Pages: 1 -->
<svg width="2001pt" height="657pt"
 viewBox="0.00 0.00 2001.00 657.00" xmlns="http://www.w3.org/2000/svg" xmlns:xlink="http://www.w3.org/1999/xlink">
<g id="graph0" class="graph" transform="scale(1 1) rotate(0) translate(4 653)">
<title>test</title>
<polygon fill="white" stroke="transparent" points="-4,4 -4,-653 1997,-653 1997,4 -4,4"/>
<!-- node1 -->
<g id="node1" class="node">
<title>node1</title>
<polygon fill="white" stroke="black" points="749,-467.5 749,-588.5 1065,-588.5 1065,-467.5 749,-467.5"/>
<text text-anchor="middle" x="907" y="-573.3" font-family="Times,serif" font-size="14.00">aggregates</text>
<polyline fill="none" stroke="black" points="749,-565.5 1065,-565.5 "/>
<text text-anchor="start" x="757" y="-550.3" font-family="Times,serif" font-size="14.00">&#45; aggregate_cid text [U]</text>
<text text-anchor="start" x="757" y="-535.3" font-family="Times,serif" font-size="14.00">&#45; piece_cid text [U]</text>
<text text-anchor="start" x="757" y="-520.3" font-family="Times,serif" font-size="14.00">&#45; sha256hex text</text>
<text text-anchor="start" x="757" y="-505.3" font-family="Times,serif" font-size="14.00">&#45; export_size bigint</text>
<text text-anchor="start" x="757" y="-490.3" font-family="Times,serif" font-size="14.00">&#45; metadata jsonb [N]</text>
<text text-anchor="start" x="757" y="-475.3" font-family="Times,serif" font-size="14.00">&#45; entry_created timestamp with time zone</text>
</g>
<!-- node7 -->
<g id="node7" class="node">
<title>node7</title>
<polygon fill="white" stroke="black" points="624.5,-204 624.5,-318 1027.5,-318 1027.5,-204 624.5,-204"/>
<text text-anchor="middle" x="826" y="-302.8" font-family="Times,serif" font-size="14.00">aggregate_entries</text>
<polyline fill="none" stroke="black" points="624.5,-295 1027.5,-295 "/>
<text text-anchor="start" x="632.5" y="-279.8" font-family="Times,serif" font-size="14.00">&#45; aggregate_cid text [FK,U]</text>
<text text-anchor="start" x="632.5" y="-264.8" font-family="Times,serif" font-size="14.00">&#45; cid_v1 text [FK,U]</text>
<text text-anchor="start" x="632.5" y="-249.8" font-family="Times,serif" font-size="14.00">&#45; datamodel_selector text</text>
<polyline fill="none" stroke="black" points="624.5,-242 1027.5,-242 "/>
<text text-anchor="start" x="632.5" y="-226.8" font-family="Times,serif" font-size="14.00">* aggregate_entries_idx_aggregate_cid: aggregate_cid</text>
<text text-anchor="start" x="632.5" y="-211.8" font-family="Times,serif" font-size="14.00">* aggregate_entries_idx_cid_v1: cid_v1</text>
</g>
<!-- node1&#45;&gt;node7 -->
<g id="edge1" class="edge">
<title>node1&#45;&gt;node7</title>
<path fill="none" stroke="black" d="M888.72,-467.2C876.08,-425.84 859.26,-370.81 846.22,-328.14"/>
<polygon fill="black" stroke="black" points="849.51,-326.95 843.24,-318.41 842.82,-329 849.51,-326.95"/>
</g>
<!-- node9 -->
<g id="node9" class="node">
<title>node9</title>
<polygon fill="white" stroke="black" points="1045.5,-151.5 1045.5,-370.5 1398.5,-370.5 1398.5,-151.5 1045.5,-151.5"/>
<text text-anchor="middle" x="1222" y="-355.3" font-family="Times,serif" font-size="14.00">deals</text>
<polyline fill="none" stroke="black" points="1045.5,-347.5 1398.5,-347.5 "/>
<text text-anchor="start" x="1053.5" y="-332.3" font-family="Times,serif" font-size="14.00">&#45; deal_id bigint [U]</text>
<text text-anchor="start" x="1053.5" y="-317.3" font-family="Times,serif" font-size="14.00">&#45; aggregate_cid text [FK]</text>
<text text-anchor="start" x="1053.5" y="-302.3" font-family="Times,serif" font-size="14.00">&#45; client text [FK]</text>
<text text-anchor="start" x="1053.5" y="-287.3" font-family="Times,serif" font-size="14.00">&#45; provider text [FK]</text>
<text text-anchor="start" x="1053.5" y="-272.3" font-family="Times,serif" font-size="14.00">&#45; status text</text>
<text text-anchor="start" x="1053.5" y="-257.3" font-family="Times,serif" font-size="14.00">&#45; epoch_start integer</text>
<text text-anchor="start" x="1053.5" y="-242.3" font-family="Times,serif" font-size="14.00">&#45; epoch_end integer</text>
<text text-anchor="start" x="1053.5" y="-227.3" font-family="Times,serif" font-size="14.00">&#45; entry_created timestamp with time zone</text>
<text text-anchor="start" x="1053.5" y="-212.3" font-family="Times,serif" font-size="14.00">&#45; entry_last_updated timestamp with time zone</text>
<polyline fill="none" stroke="black" points="1045.5,-204.5 1398.5,-204.5 "/>
<text text-anchor="start" x="1053.5" y="-189.3" font-family="Times,serif" font-size="14.00">* deals_idx_aggregate_cid: aggregate_cid</text>
<text text-anchor="start" x="1053.5" y="-174.3" font-family="Times,serif" font-size="14.00">* deals_idx_client: client</text>
<text text-anchor="start" x="1053.5" y="-159.3" font-family="Times,serif" font-size="14.00">* deals_idx_provider: provider</text>
</g>
<!-- node1&#45;&gt;node9 -->
<g id="edge2" class="edge">
<title>node1&#45;&gt;node9</title>
<path fill="none" stroke="black" d="M978.08,-467.2C1009.76,-440.55 1048.2,-408.21 1085.1,-377.17"/>
<polygon fill="black" stroke="black" points="1087.55,-379.68 1092.95,-370.57 1083.04,-374.33 1087.55,-379.68"/>
</g>
<!-- node2 -->
<g id="node2" class="node">
<title>node2</title>
<polygon fill="white" stroke="black" points="1262.5,-490 1262.5,-566 1427.5,-566 1427.5,-490 1262.5,-490"/>
<text text-anchor="middle" x="1345" y="-550.8" font-family="Times,serif" font-size="14.00">clients</text>
<polyline fill="none" stroke="black" points="1262.5,-543 1427.5,-543 "/>
<text text-anchor="start" x="1270.5" y="-527.8" font-family="Times,serif" font-size="14.00">&#45; client text [U]</text>
<text text-anchor="start" x="1270.5" y="-512.8" font-family="Times,serif" font-size="14.00">&#45; filp_available bigint</text>
<text text-anchor="start" x="1270.5" y="-497.8" font-family="Times,serif" font-size="14.00">&#45; details jsonb [N]</text>
</g>
<!-- node2&#45;&gt;node9 -->
<g id="edge3" class="edge">
<title>node2&#45;&gt;node9</title>
<path fill="none" stroke="black" d="M1327.77,-489.87C1314.43,-461.13 1295.17,-419.65 1276.74,-379.94"/>
<polygon fill="black" stroke="black" points="1279.84,-378.29 1272.45,-370.69 1273.49,-381.24 1279.84,-378.29"/>
</g>
<!-- node3 -->
<g id="node3" class="node">
<title>node3</title>
<polygon fill="white" stroke="black" points="346.5,-482.5 346.5,-573.5 699.5,-573.5 699.5,-482.5 346.5,-482.5"/>
<text text-anchor="middle" x="523" y="-558.3" font-family="Times,serif" font-size="14.00">dags</text>
<polyline fill="none" stroke="black" points="346.5,-550.5 699.5,-550.5 "/>
<text text-anchor="start" x="354.5" y="-535.3" font-family="Times,serif" font-size="14.00">&#45; cid_v1 text [U]</text>
<text text-anchor="start" x="354.5" y="-520.3" font-family="Times,serif" font-size="14.00">&#45; size_actual bigint [N]</text>
<text text-anchor="start" x="354.5" y="-505.3" font-family="Times,serif" font-size="14.00">&#45; entry_created timestamp with time zone</text>
<text text-anchor="start" x="354.5" y="-490.3" font-family="Times,serif" font-size="14.00">&#45; entry_last_updated timestamp with time zone</text>
</g>
<!-- node6 -->
<g id="node6" class="node">
<title>node6</title>
<polygon fill="white" stroke="black" points="416,-219 416,-303 606,-303 606,-219 416,-219"/>
<text text-anchor="middle" x="511" y="-287.8" font-family="Times,serif" font-size="14.00">refs</text>
<polyline fill="none" stroke="black" points="416,-280 606,-280 "/>
<text text-anchor="start" x="424" y="-264.8" font-family="Times,serif" font-size="14.00">&#45; cid_v1 text [FK,U]</text>
<text text-anchor="start" x="424" y="-249.8" font-family="Times,serif" font-size="14.00">&#45; ref_v1 text [U]</text>
<polyline fill="none" stroke="black" points="416,-242 606,-242 "/>
<text text-anchor="start" x="424" y="-226.8" font-family="Times,serif" font-size="14.00">* refs_idx_cid_v1: cid_v1</text>
</g>
<!-- node3&#45;&gt;node6 -->
<g id="edge6" class="edge">
<title>node3&#45;&gt;node6</title>
<path fill="none" stroke="black" d="M520.98,-482.35C518.86,-435.66 515.55,-362.5 513.33,-313.43"/>
<polygon fill="black" stroke="black" points="516.82,-313.17 512.87,-303.34 509.83,-313.49 516.82,-313.17"/>
</g>
<!-- node3&#45;&gt;node7 -->
<g id="edge4" class="edge">
<title>node3&#45;&gt;node7</title>
<path fill="none" stroke="black" d="M574.06,-482.35C623.43,-439.17 698.7,-373.33 754.12,-324.87"/>
<polygon fill="black" stroke="black" points="756.58,-327.36 761.8,-318.15 751.97,-322.09 756.58,-327.36"/>
</g>
<!-- node8 -->
<g id="node8" class="node">
<title>node8</title>
<polygon fill="white" stroke="black" points="0,-166.5 0,-355.5 386,-355.5 386,-166.5 0,-166.5"/>
<text text-anchor="middle" x="193" y="-340.3" font-family="Times,serif" font-size="14.00">dag_sources</text>
<polyline fill="none" stroke="black" points="0,-332.5 386,-332.5 "/>
<text text-anchor="start" x="8" y="-317.3" font-family="Times,serif" font-size="14.00">&#45; srcid bigint [FK,U]</text>
<text text-anchor="start" x="8" y="-302.3" font-family="Times,serif" font-size="14.00">&#45; cid_v1 text [FK]</text>
<text text-anchor="start" x="8" y="-287.3" font-family="Times,serif" font-size="14.00">&#45; source_key text [U]</text>
<text text-anchor="start" x="8" y="-272.3" font-family="Times,serif" font-size="14.00">&#45; entry_created timestamp with time zone</text>
<text text-anchor="start" x="8" y="-257.3" font-family="Times,serif" font-size="14.00">&#45; entry_removed timestamp with time zone [N]</text>
<text text-anchor="start" x="8" y="-242.3" font-family="Times,serif" font-size="14.00">&#45; entry_last_exported timestamp with time zone [N]</text>
<text text-anchor="start" x="8" y="-227.3" font-family="Times,serif" font-size="14.00">&#45; details jsonb [N]</text>
<text text-anchor="start" x="8" y="-212.3" font-family="Times,serif" font-size="14.00">&#45; entry_last_updated timestamp with time zone</text>
<polyline fill="none" stroke="black" points="0,-204.5 386,-204.5 "/>
<text text-anchor="start" x="8" y="-189.3" font-family="Times,serif" font-size="14.00">* dag_sources_idx_cid_v1: cid_v1</text>
<text text-anchor="start" x="8" y="-174.3" font-family="Times,serif" font-size="14.00">* dag_sources_idx_srcid: srcid</text>
</g>
<!-- node3&#45;&gt;node8 -->
<g id="edge5" class="edge">
<title>node3&#45;&gt;node8</title>
<path fill="none" stroke="black" d="M467.39,-482.35C426.42,-449.44 369.07,-403.39 317.39,-361.89"/>
<polygon fill="black" stroke="black" points="319.47,-359.07 309.48,-355.54 315.09,-364.53 319.47,-359.07"/>
</g>
<!-- node4 -->
<g id="node4" class="node">
<title>node4</title>
<polygon fill="white" stroke="black" points="1098,-497.5 1098,-558.5 1244,-558.5 1244,-497.5 1098,-497.5"/>
<text text-anchor="middle" x="1171" y="-543.3" font-family="Times,serif" font-size="14.00">providers</text>
<polyline fill="none" stroke="black" points="1098,-535.5 1244,-535.5 "/>
<text text-anchor="start" x="1106" y="-520.3" font-family="Times,serif" font-size="14.00">&#45; provider text [U]</text>
<text text-anchor="start" x="1106" y="-505.3" font-family="Times,serif" font-size="14.00">&#45; details jsonb [N]</text>
</g>
<!-- node4&#45;&gt;node9 -->
<g id="edge8" class="edge">
<title>node4&#45;&gt;node9</title>
<path fill="none" stroke="black" d="M1176.7,-497.37C1182.19,-468.87 1190.85,-423.87 1199.13,-380.81"/>
<polygon fill="black" stroke="black" points="1202.61,-381.28 1201.06,-370.8 1195.73,-379.95 1202.61,-381.28"/>
</g>
<!-- node5 -->
<g id="node5" class="node">
<title>node5</title>
<polygon fill="white" stroke="black" points="12,-467.5 12,-588.5 328,-588.5 328,-467.5 12,-467.5"/>
<text text-anchor="middle" x="170" y="-573.3" font-family="Times,serif" font-size="14.00">sources</text>
<polyline fill="none" stroke="black" points="12,-565.5 328,-565.5 "/>
<text text-anchor="start" x="20" y="-550.3" font-family="Times,serif" font-size="14.00">&#45; srcid bigint [U]</text>
<text text-anchor="start" x="20" y="-535.3" font-family="Times,serif" font-size="14.00">&#45; project integer [U]</text>
<text text-anchor="start" x="20" y="-520.3" font-family="Times,serif" font-size="14.00">&#45; source text [U]</text>
<text text-anchor="start" x="20" y="-505.3" font-family="Times,serif" font-size="14.00">&#45; details jsonb [N]</text>
<text text-anchor="start" x="20" y="-490.3" font-family="Times,serif" font-size="14.00">&#45; entry_created timestamp with time zone</text>
<text text-anchor="start" x="20" y="-475.3" font-family="Times,serif" font-size="14.00">&#45; weight integer [N]</text>
</g>
<!-- node5&#45;&gt;node8 -->
<g id="edge9" class="edge">
<title>node5&#45;&gt;node8</title>
<path fill="none" stroke="black" d="M175.19,-467.2C177.79,-437.26 181.01,-400.14 184,-365.74"/>
<polygon fill="black" stroke="black" points="187.49,-365.91 184.87,-355.65 180.52,-365.31 187.49,-365.91"/>
</g>
<!-- node10 -->
<g id="node10" class="node">
<title>node10</title>
<polygon fill="white" stroke="black" points="1064,-0.5 1064,-114.5 1380,-114.5 1380,-0.5 1064,-0.5"/>
<text text-anchor="middle" x="1222" y="-99.3" font-family="Times,serif" font-size="14.00">deal_events</text>
<polyline fill="none" stroke="black" points="1064,-91.5 1380,-91.5 "/>
<text text-anchor="start" x="1072" y="-76.3" font-family="Times,serif" font-size="14.00">&#45; entry_id bigint [U]</text>
<text text-anchor="start" x="1072" y="-61.3" font-family="Times,serif" font-size="14.00">&#45; deal_id bigint [FK]</text>
<text text-anchor="start" x="1072" y="-46.3" font-family="Times,serif" font-size="14.00">&#45; status text</text>
<text text-anchor="start" x="1072" y="-31.3" font-family="Times,serif" font-size="14.00">&#45; entry_created timestamp with time zone</text>
<polyline fill="none" stroke="black" points="1064,-23.5 1380,-23.5 "/>
<text text-anchor="start" x="1072" y="-8.3" font-family="Times,serif" font-size="14.00">* deal_events_idx_deal_id: deal_id</text>
</g>
<!-- node9&#45;&gt;node10 -->
<g id="edge7" class="edge">
<title>node9&#45;&gt;node10</title>
<path fill="none" stroke="black" d="M1222,-151.29C1222,-142.3 1222,-133.4 1222,-124.87"/>
<polygon fill="black" stroke="black" points="1225.5,-124.67 1222,-114.68 1218.5,-124.68 1225.5,-124.67"/>
</g>
<!-- node11 -->
<g id="node11" class="node">
<title>node11</title>
<polygon fill="white" stroke="black" points="1445.5,-407.5 1445.5,-648.5 1628.5,-648.5 1628.5,-407.5 1445.5,-407.5"/>
<text text-anchor="middle" x="1537" y="-633.3" font-family="Times,serif" font-size="14.00">dag_sources_summary</text>
<polyline fill="none" stroke="black" points="1445.5,-625.5 1628.5,-625.5 "/>
<text text-anchor="start" x="1453.5" y="-610.3" font-family="Times,serif" font-size="14.00">&#45; project</text>
<text text-anchor="start" x="1453.5" y="-595.3" font-family="Times,serif" font-size="14.00">&#45; srcid</text>
<text text-anchor="start" x="1453.5" y="-580.3" font-family="Times,serif" font-size="14.00">&#45; source_nick</text>
<text text-anchor="start" x="1453.5" y="-565.3" font-family="Times,serif" font-size="14.00">&#45; source_name</text>
<text text-anchor="start" x="1453.5" y="-550.3" font-family="Times,serif" font-size="14.00">&#45; source_email</text>
<text text-anchor="start" x="1453.5" y="-535.3" font-family="Times,serif" font-size="14.00">&#45; weight</text>
<text text-anchor="start" x="1453.5" y="-520.3" font-family="Times,serif" font-size="14.00">&#45; count_total</text>
<text text-anchor="start" x="1453.5" y="-505.3" font-family="Times,serif" font-size="14.00">&#45; count_unaggregated</text>
<text text-anchor="start" x="1453.5" y="-490.3" font-family="Times,serif" font-size="14.00">&#45; oldest_unaggregated</text>
<text text-anchor="start" x="1453.5" y="-475.3" font-family="Times,serif" font-size="14.00">&#45; newest_unaggregated</text>
<text text-anchor="start" x="1453.5" y="-460.3" font-family="Times,serif" font-size="14.00">&#45; size_total</text>
<text text-anchor="start" x="1453.5" y="-445.3" font-family="Times,serif" font-size="14.00">&#45; gib_total</text>
<text text-anchor="start" x="1453.5" y="-430.3" font-family="Times,serif" font-size="14.00">&#45; size_unaggregated</text>
<text text-anchor="start" x="1453.5" y="-415.3" font-family="Times,serif" font-size="14.00">&#45; gib_unaggregated</text>
</g>
<!-- node12 -->
<g id="node12" class="node">
<title>node12</title>
<polygon fill="white" stroke="black" points="1647,-460 1647,-596 1789,-596 1789,-460 1647,-460"/>
<text text-anchor="middle" x="1718" y="-580.8" font-family="Times,serif" font-size="14.00">dags_missing_list</text>
<polyline fill="none" stroke="black" points="1647,-573 1789,-573 "/>
<text text-anchor="start" x="1655" y="-557.8" font-family="Times,serif" font-size="14.00">&#45; project</text>
<text text-anchor="start" x="1655" y="-542.8" font-family="Times,serif" font-size="14.00">&#45; cid_v1</text>
<text text-anchor="start" x="1655" y="-527.8" font-family="Times,serif" font-size="14.00">&#45; source_key</text>
<text text-anchor="start" x="1655" y="-512.8" font-family="Times,serif" font-size="14.00">&#45; srcid</text>
<text text-anchor="start" x="1655" y="-497.8" font-family="Times,serif" font-size="14.00">&#45; entry_created</text>
<text text-anchor="start" x="1655" y="-482.8" font-family="Times,serif" font-size="14.00">&#45; is_tombstone</text>
<text text-anchor="start" x="1655" y="-467.8" font-family="Times,serif" font-size="14.00">&#45; details</text>
</g>
<!-- node13 -->
<g id="node13" class="node">
<title>node13</title>
<polygon fill="white" stroke="black" points="1807,-430 1807,-626 1993,-626 1993,-430 1807,-430"/>
<text text-anchor="middle" x="1900" y="-610.8" font-family="Times,serif" font-size="14.00">dags_missing_summary</text>
<polyline fill="none" stroke="black" points="1807,-603 1993,-603 "/>
<text text-anchor="start" x="1815" y="-587.8" font-family="Times,serif" font-size="14.00">&#45; project</text>
<text text-anchor="start" x="1815" y="-572.8" font-family="Times,serif" font-size="14.00">&#45; srcid</text>
<text text-anchor="start" x="1815" y="-557.8" font-family="Times,serif" font-size="14.00">&#45; source_nick</text>
<text text-anchor="start" x="1815" y="-542.8" font-family="Times,serif" font-size="14.00">&#45; source_name</text>
<text text-anchor="start" x="1815" y="-527.8" font-family="Times,serif" font-size="14.00">&#45; source_email</text>
<text text-anchor="start" x="1815" y="-512.8" font-family="Times,serif" font-size="14.00">&#45; weight</text>
<text text-anchor="start" x="1815" y="-497.8" font-family="Times,serif" font-size="14.00">&#45; oldest_missing</text>
<text text-anchor="start" x="1815" y="-482.8" font-family="Times,serif" font-size="14.00">&#45; newest_missing</text>
<text text-anchor="start" x="1815" y="-467.8" font-family="Times,serif" font-size="14.00">&#45; count_missing</text>
<text text-anchor="start" x="1815" y="-452.8" font-family="Times,serif" font-size="14.00">&#45; count_total</text>
<text text-anchor="start" x="1815" y="-437.8" font-family="Times,serif" font-size="14.00">&#45; pct_missing</text>
</g>
</g>
</svg>
